<svg width="31" height="21" viewBox="0 0 31 21" fill="none" xmlns="http://www.w3.org/2000/svg">
<path d="M16.167 11.3029L11.5277 19.2484L6.88848 11.3029H16.167ZM17.4098 10.5928H5.64062L11.5277 20.6538L17.4098 10.5928Z" fill="white"/>
<path d="M24.2328 1.42026L28.872 9.36578H19.5936L24.2328 1.42026ZM24.2328 0L18.3457 10.061H30.1199L24.2328 0Z" fill="white"/>
<path d="M0 0L4.93613 8.89899L10.3301 0.223456L0 0Z" fill="#4CAF4F"/>
<path d="M11.5275 0.779297L16.7052 9.62863H6.33984L11.5275 0.779297Z" fill="#4CAF4F"/>
<path d="M18.0386 11.561L23.2213 20.6537H12.6094L17.8776 11.561H18.0386Z" fill="#4CAF4F"/>
<path d="M19.1606 11.0098L24.2326 19.9634L29.375 11.0098H19.1606Z" fill="#4CAF4F"/>
</svg>
