<svg width="308" height="302" viewBox="0 0 308 302" fill="none" xmlns="http://www.w3.org/2000/svg">
<path d="M261.979 301.489C261.979 301.59 212.023 301.676 150.421 301.676C88.818 301.676 38.8408 301.59 38.8408 301.489C38.8408 301.388 88.7892 301.302 150.421 301.302C212.052 301.302 261.979 301.395 261.979 301.489Z" fill="#263238"/>
<path d="M213.304 213.419C202.189 205.657 199.671 191.247 200.11 178.291C200.182 176.132 199.945 173.845 200.974 171.953C202.002 170.061 204.405 168.758 206.34 169.665C207.945 170.42 208.642 172.291 209.542 173.837C210.742 175.898 212.5 177.576 214.613 178.679C215.988 179.398 217.693 179.83 219.052 179.082C220.923 178.053 221.138 175.485 221.124 173.327C221.124 169.312 221.1 165.303 221.052 161.298C220.923 159.148 221.142 156.991 221.7 154.91C222.369 152.867 223.858 150.975 225.894 150.399C227.93 149.824 230.469 151.011 230.93 153.111C231.009 154.001 231.03 154.895 230.994 155.788C231.052 156.687 231.469 157.672 232.311 157.946C233.153 158.219 234.03 157.593 234.678 156.96C236.893 154.802 238.404 151.989 239.807 149.212C241.21 146.435 242.584 143.579 244.598 141.212C246.613 138.846 249.397 136.968 252.512 136.788C255.627 136.608 258.871 138.522 259.648 141.543C260.425 144.565 258.663 147.651 256.771 150.104C253.916 153.746 250.55 156.956 246.778 159.636C246.042 160.038 245.454 160.666 245.102 161.428C244.634 162.867 245.994 164.305 247.411 164.759C249.015 165.291 250.756 165.125 252.447 165.327C254.138 165.528 255.936 166.262 256.576 167.845C257.454 170.046 255.612 172.348 253.807 173.859C250.181 176.881 246.064 179.258 241.634 180.888C240.052 181.463 238.39 181.974 237.109 183.082C235.829 184.19 235.066 186.125 235.836 187.643C236.606 189.161 238.584 189.643 240.246 189.333C241.908 189.024 243.383 188.132 244.965 187.535C247.922 186.42 251.735 186.621 253.598 189.175C254.175 190.055 254.541 191.057 254.666 192.101C254.79 193.146 254.671 194.206 254.317 195.197C253.597 197.169 252.489 198.977 251.059 200.513C246.347 206.143 240.225 210.42 233.318 212.908C226.462 215.282 220.11 215.93 213.297 213.434" fill="#4CAF4F"/>
<path d="M256.483 138.565C256.483 138.565 256.418 138.637 256.274 138.766L255.634 139.335C255.073 139.838 254.246 140.572 253.202 141.543C250.245 144.289 247.499 147.255 244.987 150.414C243.383 152.406 241.721 154.665 239.951 157.118C238.181 159.572 236.354 162.219 234.541 165.032C232.608 167.998 230.838 171.067 229.239 174.226C228.405 175.873 227.671 177.593 226.915 179.348L224.685 184.708C221.746 191.459 219.185 198.368 217.016 205.405C215.269 211.162 214.065 217.07 213.419 223.052C213.001 227.089 212.934 231.154 213.218 235.203C213.333 236.642 213.441 237.742 213.542 238.49C213.585 238.85 213.614 239.138 213.642 239.347V239.642C213.611 239.548 213.59 239.452 213.578 239.354C213.542 239.145 213.498 238.865 213.441 238.505C213.311 237.785 213.175 236.649 213.045 235.21C212.698 231.154 212.722 227.075 213.117 223.023C213.723 217.016 214.901 211.08 216.635 205.297C218.786 198.241 221.339 191.314 224.282 184.549L226.57 179.211C227.325 177.463 228.066 175.729 228.908 174.075C230.519 170.907 232.303 167.83 234.253 164.859C236.095 161.982 237.951 159.377 239.699 156.946C241.447 154.514 243.138 152.241 244.735 150.255C247.272 147.105 250.056 144.16 253.059 141.45C254.123 140.493 254.972 139.774 255.548 139.292L256.217 138.752C256.299 138.681 256.388 138.618 256.483 138.565Z" fill="#263238"/>
<path d="M229.001 174.061C228.9 173.764 228.83 173.458 228.793 173.147C228.678 172.55 228.548 171.708 228.397 170.615C228.088 168.457 227.771 165.5 227.433 162.226C227.095 158.953 226.714 155.989 226.397 153.853C226.232 152.788 226.088 151.932 225.987 151.335C225.908 151.029 225.867 150.715 225.865 150.399C225.989 150.688 226.078 150.989 226.131 151.299C226.289 151.889 226.469 152.737 226.67 153.809C227.081 155.968 227.483 158.903 227.822 162.183C228.16 165.464 228.447 168.341 228.67 170.579C228.778 171.586 228.872 172.442 228.944 173.125C229 173.434 229.019 173.748 229.001 174.061Z" fill="#263238"/>
<path d="M256.685 168.895C256.334 168.971 255.978 169.014 255.62 169.024C254.9 169.089 253.879 169.175 252.613 169.319C250.08 169.593 246.598 170.096 242.778 170.816C238.958 171.535 235.527 172.348 233.059 172.974C231.829 173.29 230.836 173.578 230.182 173.772C229.832 173.897 229.47 173.983 229.103 174.031C229.435 173.864 229.782 173.727 230.138 173.621C230.815 173.384 231.793 173.053 233.016 172.701C235.469 171.981 238.901 171.125 242.735 170.391C245.983 169.77 249.261 169.314 252.555 169.024C253.829 168.916 254.857 168.873 255.577 168.859C255.946 168.834 256.317 168.846 256.685 168.895Z" fill="#263238"/>
<path d="M216.987 204.794C216.911 204.689 216.848 204.576 216.8 204.455L216.326 203.455C215.915 202.585 215.362 201.297 214.7 199.722C213.362 196.556 211.657 192.125 209.844 187.204C208.031 182.283 206.362 177.852 205.096 174.65C204.477 173.097 203.966 171.823 203.585 170.874L203.182 169.845C203.126 169.726 203.087 169.6 203.067 169.471C203.144 169.575 203.206 169.689 203.254 169.809L203.729 170.809C204.132 171.679 204.693 172.967 205.355 174.543C206.693 177.708 208.398 182.139 210.211 187.06C212.023 191.981 213.693 196.412 214.959 199.614C215.577 201.168 216.088 202.441 216.462 203.391C216.628 203.801 216.764 204.11 216.872 204.419C216.928 204.538 216.967 204.664 216.987 204.794Z" fill="#263238"/>
<path d="M253.735 192.945C253.62 193.011 253.496 193.062 253.368 193.096L252.303 193.456L248.368 194.729C245.045 195.808 240.455 197.348 235.419 199.045C230.383 200.743 225.772 202.254 222.426 203.261C220.757 203.772 219.398 204.16 218.455 204.419L217.369 204.7C217.243 204.74 217.112 204.767 216.98 204.779C217.096 204.713 217.219 204.662 217.347 204.628L218.412 204.268L222.347 202.995C225.671 201.916 230.261 200.376 235.297 198.678C240.332 196.981 244.937 195.47 248.282 194.463C249.958 193.952 251.311 193.564 252.26 193.305L253.346 193.024C253.473 192.984 253.603 192.957 253.735 192.945Z" fill="#263238"/>
<path d="M238.742 18.4385L235.037 19.7622L233.447 14.9206C230.526 5.99278 221.217 1.25189 212.664 4.26621C204.11 7.28052 199.556 17.0716 202.477 25.9995L204.067 30.8411L200.347 32.172C198.929 32.7221 197.777 33.7976 197.132 35.1749C196.486 36.5522 196.396 38.1254 196.88 39.5675L207.189 71.0703C207.403 71.7841 207.758 72.4477 208.234 73.0216C208.709 73.5955 209.295 74.0679 209.957 74.4108C210.619 74.7537 211.342 74.9601 212.085 75.0178C212.829 75.0755 213.576 74.9832 214.282 74.7464L252.677 61.013C254.114 60.4638 255.282 59.3788 255.935 57.9861C256.589 56.5935 256.677 55.0017 256.18 53.5455L245.864 22.0427C245.645 21.3309 245.284 20.6705 244.804 20.101C244.323 19.5316 243.733 19.0648 243.068 18.7284C242.404 18.392 241.678 18.193 240.935 18.1432C240.191 18.0934 239.446 18.1938 238.742 18.4385ZM209.477 23.4744C208.689 21.153 208.83 18.6169 209.871 16.3975C210.912 14.178 212.771 12.4474 215.059 11.5682C216.189 11.1816 217.385 11.0266 218.576 11.1124C219.768 11.1981 220.929 11.523 221.992 12.0675C223.055 12.612 223.997 13.365 224.763 14.2817C225.528 15.1983 226.101 16.2597 226.447 17.4026L228.03 22.2442L211.059 28.316L209.477 23.4744ZM231.059 51.4305L233.692 59.4734C233.74 59.6347 233.725 59.8084 233.648 59.9585C233.572 60.1085 233.441 60.2234 233.282 60.2792L229.591 61.5957C229.444 61.6364 229.287 61.6187 229.153 61.5463C229.019 61.4739 228.918 61.3524 228.872 61.2072L226.217 53.2002C224.753 53.1205 223.349 52.5955 222.192 51.6955C221.035 50.7955 220.18 49.5635 219.743 48.1644C219.117 46.3147 219.231 44.2948 220.061 42.5274C220.891 40.76 222.373 39.3822 224.196 38.6826C225.096 38.3751 226.048 38.2519 226.997 38.3204C227.946 38.389 228.871 38.6478 229.718 39.0814C230.564 39.5151 231.315 40.1148 231.925 40.8447C232.534 41.5746 232.991 42.4198 233.267 43.33C233.73 44.7512 233.769 46.2766 233.377 47.7192C232.986 49.1618 232.183 50.4591 231.066 51.4521L231.059 51.4305Z" fill="#4CAF4F"/>
<path d="M234.871 19.6759C234.871 19.7766 228.001 22.3593 219.455 25.4311C210.908 28.503 203.937 30.9706 203.901 30.8986C203.865 30.8267 210.771 28.2224 219.325 25.1434C227.879 22.0643 234.835 19.5824 234.871 19.6759Z" fill="#263238"/>
<path d="M243.03 20.9995C243.061 21.0619 243.088 21.1269 243.109 21.1937C243.166 21.3376 243.231 21.5247 243.317 21.7549C243.504 22.2801 243.763 23.0067 244.087 23.9131L246.85 31.9561C248.001 35.3661 249.375 39.4091 250.9 43.8982C251.619 46.15 252.468 48.4952 253.26 50.9628C253.683 52.2344 253.866 53.5737 253.799 54.9123C253.738 55.6085 253.54 56.2857 253.216 56.9051C252.871 57.5224 252.409 58.0671 251.857 58.5093C250.745 59.3207 249.512 59.9497 248.202 60.3726L244.497 61.7035L237.483 64.2142L225.606 68.4444L217.584 71.2644L215.426 71.9838L214.85 72.1709C214.789 72.1982 214.723 72.2153 214.656 72.2212C214.656 72.2212 214.714 72.2212 214.836 72.1349L215.397 71.9119L217.555 71.099L225.534 68.1638L237.389 63.8473L244.389 61.315L248.094 59.9769C249.367 59.5712 250.564 58.9613 251.641 58.1712C252.155 57.7609 252.585 57.2552 252.907 56.6821C253.212 56.1093 253.395 55.4799 253.447 54.8332C253.513 53.5434 253.337 52.2527 252.929 51.0275C252.152 48.5815 251.332 46.2147 250.591 43.963C249.094 39.4667 247.713 35.4092 246.619 31.9992C245.526 28.5892 244.605 25.8483 243.972 23.9203C243.67 22.9779 243.44 22.2441 243.253 21.7117L243.08 21.1362C243.058 21.0926 243.041 21.0468 243.03 20.9995Z" fill="#263238"/>
<path d="M222.771 11.0788C222.771 11.0788 222.39 10.8918 221.685 10.604C220.68 10.2179 219.617 10.0039 218.541 9.97093C216.946 9.91623 215.359 10.216 213.894 10.8486C212.112 11.6363 210.588 12.9105 209.498 14.5248C208.4 16.1345 207.811 18.0367 207.807 19.9851C207.822 21.5819 208.065 23.1686 208.527 24.6972C208.901 26.0065 209.289 27.0496 209.548 27.7762C209.701 28.1453 209.826 28.5252 209.922 28.9129C209.718 28.5678 209.547 28.2041 209.412 27.8266C209.117 27.1072 208.692 26.0856 208.275 24.7691C207.763 23.2245 207.484 21.612 207.448 19.9851C207.429 17.9631 208.031 15.9841 209.174 14.3161C210.303 12.6429 211.888 11.3293 213.743 10.5321C215.253 9.89599 216.89 9.6154 218.527 9.71194C219.626 9.76797 220.706 10.0239 221.714 10.4673C221.983 10.5916 222.243 10.7359 222.49 10.899C222.593 10.9439 222.687 11.0046 222.771 11.0788Z" fill="#263238"/>
<path d="M223.102 39.2293C223.217 39.1597 223.337 39.0996 223.462 39.0494C223.822 38.8869 224.195 38.7546 224.577 38.6538C225.183 38.4748 225.809 38.3685 226.44 38.3372C227.299 38.2911 228.158 38.4208 228.965 38.7185C230.807 39.366 232.498 41.2436 233.332 43.7544C233.732 45.1017 233.732 46.5364 233.332 47.8838C232.888 49.3461 232.093 50.6775 231.016 51.7613L231.059 51.5671C232.016 54.1929 233.059 57.0418 234.138 60.0129L234.203 60.1928L234.023 60.2575L232.375 60.8043L228.778 62.0057L228.598 62.0632L228.541 61.8834C227.555 58.9051 226.476 56.1281 225.663 53.4016L225.822 53.5239C224.415 53.4071 223.074 52.8792 221.966 52.0059C220.963 51.2334 220.14 50.2514 219.556 49.1283C219.028 48.1324 218.766 47.0176 218.793 45.891C218.826 44.7395 219.114 43.6097 219.635 42.5824C220.156 41.5551 220.898 40.6557 221.807 39.9487C222.182 39.6448 222.602 39.402 223.052 39.2293C222.645 39.4704 222.252 39.7321 221.872 40.0134C220.873 40.8586 220.108 41.9461 219.649 43.1716C219.255 44.0958 219.071 45.0957 219.11 46.0994C219.148 47.1032 219.409 48.086 219.872 48.9772C220.447 50.0576 221.249 51.0002 222.225 51.7398C223.282 52.5698 224.561 53.0702 225.901 53.1786H226.023L226.059 53.2865C226.85 55.9627 227.937 58.7612 228.937 61.7539L228.699 61.6388L232.296 60.4374L233.936 59.8834L233.821 60.128C232.749 57.1569 231.714 54.3009 230.764 51.675V51.5671L230.85 51.4808C231.896 50.4419 232.676 49.166 233.124 47.7615C233.505 46.4726 233.505 45.1008 233.124 43.8119C232.339 41.3947 230.721 39.5602 228.965 38.9128C228.188 38.6131 227.359 38.4737 226.527 38.5027C225.905 38.5169 225.287 38.6014 224.685 38.7545C223.613 39.0207 223.109 39.2653 223.102 39.2293Z" fill="#263238"/>
<path d="M200.865 246.951L129.004 246.62C124.854 246.597 120.883 244.928 117.963 241.979C115.042 239.031 113.412 235.044 113.429 230.894L114.191 50.7471C114.2 48.6911 114.613 46.6569 115.409 44.7608C116.204 42.8647 117.365 41.1439 118.825 39.6967C120.286 38.2496 122.017 37.1045 123.92 36.3269C125.824 35.5492 127.862 35.1543 129.918 35.1648L201.772 35.4957C205.922 35.5166 209.894 37.1838 212.815 40.1311C215.737 43.0784 217.37 47.0647 217.354 51.2147L216.592 231.354C216.583 233.411 216.17 235.446 215.375 237.342C214.58 239.239 213.419 240.961 211.959 242.409C210.498 243.858 208.767 245.004 206.864 245.783C204.96 246.563 202.922 246.959 200.865 246.951Z" fill="#455A64"/>
<path d="M201.664 41.6896H187.736C187.282 41.698 186.834 41.7959 186.417 41.9776C186 42.1594 185.624 42.4214 185.308 42.7487C184.993 43.0761 184.745 43.4624 184.579 43.8855C184.413 44.3086 184.332 44.7603 184.341 45.2147V47.7398C184.349 48.1939 184.268 48.6452 184.102 49.0679C183.936 49.4906 183.688 49.8764 183.373 50.2032C183.057 50.53 182.681 50.7913 182.264 50.9723C181.848 51.1532 181.399 51.2502 180.945 51.2577L153.795 51.1354C152.876 51.1109 152.005 50.7229 151.373 50.0566C150.74 49.3902 150.398 48.5001 150.421 47.5816V45.0564C150.444 44.1391 150.103 43.25 149.472 42.5839C148.841 41.9178 147.971 41.5289 147.054 41.5026H142.155L129.961 41.445C127.061 41.4278 124.272 42.5605 122.204 44.5951C120.137 46.6298 118.961 49.4006 118.932 52.3009L118.213 228.138C118.206 229.577 118.483 231.003 119.028 232.335C119.572 233.667 120.374 234.878 121.386 235.9C122.399 236.922 123.603 237.735 124.93 238.292C126.257 238.849 127.68 239.138 129.119 239.145L200.83 239.476C202.269 239.483 203.696 239.206 205.029 238.661C206.362 238.116 207.574 237.314 208.597 236.3C209.62 235.287 210.433 234.082 210.99 232.754C211.547 231.427 211.837 230.002 211.844 228.563L212.563 52.7253C212.58 49.8169 211.442 47.0206 209.398 44.9512C207.354 42.8818 204.573 41.7086 201.664 41.6896Z" fill="white"/>
<path d="M192.017 216.016L138.695 215.786C138.141 215.786 137.695 215.182 137.702 214.448L137.759 200.499C137.759 199.779 138.213 199.161 138.766 199.161L192.089 199.405C192.396 199.458 192.67 199.628 192.855 199.879C193.04 200.129 193.121 200.442 193.082 200.751L193.031 214.685C193.031 215.426 192.571 216.024 192.017 216.016Z" fill="#4CAF4F"/>
<path d="M154.907 209.339C154.612 209.339 154.329 209.292 154.058 209.198C153.79 209.1 153.582 208.975 153.435 208.824L153.599 208.501C153.739 208.637 153.925 208.752 154.159 208.847C154.397 208.937 154.646 208.983 154.907 208.983C155.156 208.983 155.357 208.952 155.512 208.892C155.671 208.828 155.786 208.743 155.857 208.637C155.933 208.532 155.971 208.415 155.971 208.286C155.971 208.132 155.925 208.007 155.835 207.913C155.748 207.818 155.633 207.745 155.49 207.692C155.346 207.635 155.188 207.586 155.014 207.545C154.841 207.503 154.667 207.46 154.493 207.415C154.32 207.366 154.159 207.302 154.012 207.222C153.869 207.143 153.752 207.039 153.661 206.911C153.575 206.779 153.531 206.607 153.531 206.396C153.531 206.2 153.582 206.021 153.684 205.858C153.79 205.692 153.95 205.56 154.165 205.462C154.38 205.36 154.656 205.309 154.991 205.309C155.214 205.309 155.435 205.341 155.654 205.405C155.873 205.466 156.061 205.551 156.22 205.66L156.078 205.994C155.908 205.881 155.727 205.798 155.535 205.745C155.346 205.692 155.163 205.666 154.986 205.666C154.748 205.666 154.552 205.698 154.397 205.762C154.242 205.826 154.127 205.913 154.052 206.022C153.98 206.128 153.944 206.249 153.944 206.385C153.944 206.539 153.988 206.664 154.075 206.758C154.165 206.853 154.282 206.926 154.425 206.979C154.573 207.032 154.733 207.079 154.907 207.12C155.08 207.162 155.252 207.207 155.422 207.256C155.595 207.305 155.754 207.369 155.897 207.449C156.044 207.524 156.161 207.626 156.248 207.754C156.339 207.883 156.384 208.051 156.384 208.258C156.384 208.451 156.331 208.63 156.225 208.796C156.12 208.958 155.957 209.09 155.739 209.192C155.523 209.29 155.246 209.339 154.907 209.339ZM157.296 209.305V205.343H157.715V209.305H157.296ZM159.004 209.305V205.343H159.35L162.083 208.784H161.902V205.343H162.315V209.305H161.97L159.242 205.864H159.423V209.305H159.004ZM165.346 209.339C165.044 209.339 164.765 209.29 164.508 209.192C164.256 209.09 164.035 208.949 163.846 208.767C163.661 208.586 163.516 208.373 163.41 208.128C163.309 207.883 163.258 207.615 163.258 207.324C163.258 207.034 163.309 206.766 163.41 206.52C163.516 206.275 163.663 206.062 163.852 205.881C164.041 205.7 164.261 205.56 164.514 205.462C164.771 205.36 165.05 205.309 165.352 205.309C165.654 205.309 165.929 205.356 166.178 205.451C166.431 205.545 166.646 205.688 166.823 205.881L166.563 206.147C166.397 205.981 166.214 205.862 166.014 205.79C165.814 205.719 165.599 205.683 165.369 205.683C165.124 205.683 164.897 205.724 164.69 205.807C164.486 205.887 164.307 206.002 164.152 206.153C164.001 206.3 163.882 206.473 163.795 206.673C163.712 206.87 163.671 207.086 163.671 207.324C163.671 207.558 163.712 207.775 163.795 207.975C163.882 208.175 164.001 208.351 164.152 208.501C164.307 208.649 164.486 208.764 164.69 208.847C164.897 208.926 165.122 208.966 165.363 208.966C165.59 208.966 165.803 208.932 166.003 208.864C166.206 208.796 166.393 208.681 166.563 208.518L166.801 208.835C166.612 209.001 166.391 209.128 166.139 209.215C165.886 209.298 165.622 209.339 165.346 209.339ZM166.399 208.784V207.324H166.801V208.835L166.399 208.784ZM171.064 209.339C170.558 209.339 170.16 209.194 169.869 208.903C169.579 208.613 169.433 208.183 169.433 207.613V205.343H169.852V207.596C169.852 208.064 169.958 208.409 170.169 208.632C170.381 208.854 170.679 208.966 171.064 208.966C171.452 208.966 171.752 208.854 171.963 208.632C172.175 208.409 172.28 208.064 172.28 207.596V205.343H172.688V207.613C172.688 208.183 172.543 208.613 172.252 208.903C171.965 209.194 171.569 209.339 171.064 209.339ZM173.95 209.305V205.343H175.433C175.769 205.343 176.057 205.398 176.299 205.507C176.54 205.613 176.725 205.768 176.854 205.971C176.986 206.171 177.052 206.415 177.052 206.702C177.052 206.981 176.986 207.222 176.854 207.426C176.725 207.626 176.54 207.781 176.299 207.89C176.057 208 175.769 208.054 175.433 208.054H174.182L174.369 207.856V209.305H173.95ZM174.369 207.89L174.182 207.686H175.422C175.818 207.686 176.118 207.602 176.322 207.432C176.529 207.258 176.633 207.015 176.633 206.702C176.633 206.385 176.529 206.139 176.322 205.966C176.118 205.792 175.818 205.705 175.422 205.705H174.182L174.369 205.507V207.89Z" fill="#E8E8E3"/>
<path d="M149.33 93.3794L130.827 93.2954L130.812 96.691L149.315 96.7749L149.33 93.3794Z" fill="#4CAF4F"/>
<path opacity="0.1" d="M149.33 93.3794L130.827 93.2954L130.812 96.691L149.315 96.7749L149.33 93.3794Z" fill="black"/>
<path d="M203.57 114.227C203.716 114.213 203.858 114.179 203.995 114.127C204.194 114.049 204.367 113.916 204.494 113.745C204.621 113.573 204.698 113.369 204.714 113.155C204.714 112.012 204.714 110.343 204.714 108.199C204.714 107.127 204.714 105.925 204.714 104.602C204.714 104.278 204.714 103.94 204.714 103.602C204.761 103.274 204.69 102.94 204.513 102.659C204.414 102.525 204.285 102.415 204.136 102.339C203.988 102.263 203.823 102.222 203.657 102.22H202.534H192.139L131.968 101.997C131.814 101.995 131.661 102.029 131.524 102.098C131.386 102.167 131.267 102.268 131.176 102.393C131.003 102.674 130.936 103.009 130.989 103.335C130.989 104.055 130.989 104.774 130.989 105.494C130.989 106.933 130.989 108.371 130.989 109.81C130.989 110.53 130.989 111.249 130.989 111.968C130.959 112.303 130.959 112.64 130.989 112.976C131.027 113.119 131.097 113.252 131.195 113.364C131.292 113.477 131.414 113.565 131.55 113.623C131.692 113.679 131.844 113.706 131.997 113.702H135.658L151.636 113.788L178.686 113.954L196.923 114.098L201.88 114.155H203.167C203.462 114.155 203.606 114.155 203.606 114.155H203.167H201.88H196.923H178.686L151.636 114.069L135.658 114.004H131.997C131.795 114.012 131.594 113.978 131.407 113.904C131.217 113.823 131.049 113.7 130.914 113.544C130.779 113.388 130.682 113.203 130.63 113.004C130.588 112.815 130.573 112.622 130.586 112.429V111.896C130.586 111.177 130.586 110.458 130.586 109.738C130.586 108.299 130.586 106.861 130.586 105.422C130.586 104.702 130.586 103.983 130.586 103.264C130.573 103.072 130.573 102.88 130.586 102.688C130.613 102.476 130.695 102.276 130.824 102.105C130.948 101.932 131.112 101.791 131.303 101.694C131.493 101.598 131.704 101.549 131.917 101.551L192.089 101.882L202.484 101.954H203.606C203.804 101.954 203.999 102.002 204.174 102.094C204.349 102.185 204.5 102.317 204.613 102.479C204.816 102.792 204.898 103.168 204.844 103.537C204.844 103.875 204.844 104.213 204.844 104.537C204.844 105.846 204.844 107.048 204.844 108.134C204.844 110.292 204.793 111.947 204.779 113.098C204.761 113.319 204.681 113.531 204.547 113.708C204.413 113.885 204.232 114.02 204.023 114.098C203.887 114.182 203.73 114.227 203.57 114.227Z" fill="#E0E0E0"/>
<path d="M170.226 105.609H136.385V108.781H170.226V105.609Z" fill="#4CAF4F"/>
<path opacity="0.2" d="M170.226 105.609H136.385V108.781H170.226V105.609Z" fill="white"/>
<path d="M149.204 124.356L130.701 124.272L130.686 127.668L149.189 127.752L149.204 124.356Z" fill="#4CAF4F"/>
<path opacity="0.1" d="M149.204 124.356L130.701 124.272L130.686 127.668L149.189 127.752L149.204 124.356Z" fill="black"/>
<path d="M203.103 145.205C203.248 145.187 203.392 145.161 203.534 145.126C203.735 145.062 203.92 144.956 204.076 144.814C204.233 144.673 204.357 144.499 204.441 144.306C204.554 144.016 204.598 143.703 204.57 143.392C204.57 143.047 204.57 142.673 204.57 142.256C204.57 141.421 204.57 140.471 204.57 139.378V134.81C204.605 134.479 204.531 134.146 204.362 133.86C204.184 133.567 203.905 133.349 203.577 133.249C203.219 133.185 202.854 133.165 202.491 133.191H192.139L132.176 132.968C131.854 132.969 131.543 133.087 131.3 133.3C131.058 133.513 130.902 133.807 130.86 134.126C130.86 134.81 130.86 135.565 130.86 136.285C130.86 137.723 130.86 139.162 130.86 140.601C130.86 141.32 130.86 142.04 130.86 142.759C130.833 143.095 130.848 143.434 130.903 143.766C130.993 144.058 131.178 144.311 131.428 144.486C131.694 144.654 132.006 144.735 132.32 144.716H133.32H135.399L151.32 144.795L178.276 144.961L196.448 145.104L201.39 145.162H196.448H178.276L151.305 145.133L135.385 145.076H132.256C131.866 145.099 131.48 144.995 131.155 144.781C130.827 144.554 130.589 144.221 130.479 143.838C130.414 143.473 130.395 143.101 130.421 142.73C130.421 142.011 130.421 141.292 130.421 140.572C130.421 139.133 130.421 137.695 130.421 136.256C130.421 135.536 130.421 134.817 130.421 134.098C130.474 133.686 130.674 133.308 130.985 133.034C131.297 132.76 131.697 132.609 132.112 132.608L192.074 132.939L202.426 133.018C202.812 132.995 203.199 133.021 203.577 133.098C203.951 133.22 204.266 133.476 204.462 133.817C204.648 134.134 204.729 134.502 204.693 134.867C204.693 135.205 204.693 135.536 204.693 135.867C204.693 137.169 204.693 138.364 204.693 139.464C204.693 140.565 204.693 141.493 204.693 142.342C204.693 142.752 204.693 143.133 204.693 143.486C204.719 143.808 204.667 144.131 204.541 144.428C204.448 144.627 204.313 144.803 204.145 144.944C203.978 145.086 203.782 145.19 203.57 145.248C203.413 145.261 203.255 145.247 203.103 145.205Z" fill="#E0E0E0"/>
<path d="M149.064 156.678L130.562 156.594L130.546 159.989L149.049 160.073L149.064 156.678Z" fill="#4CAF4F"/>
<path opacity="0.1" d="M149.064 156.678L130.562 156.594L130.546 159.989L149.049 160.073L149.064 156.678Z" fill="black"/>
<path d="M202.959 177.514C203.104 177.496 203.248 177.47 203.39 177.434C203.59 177.371 203.775 177.266 203.931 177.125C204.087 176.985 204.212 176.813 204.297 176.622C204.41 176.331 204.454 176.018 204.426 175.708C204.426 175.355 204.426 174.988 204.426 174.564C204.426 173.737 204.426 172.78 204.426 171.686V167.118C204.461 166.787 204.388 166.454 204.218 166.169C204.036 165.881 203.758 165.667 203.434 165.564C203.076 165.498 202.711 165.476 202.347 165.499H191.995L132.033 165.276C131.71 165.277 131.399 165.395 131.157 165.608C130.914 165.821 130.758 166.115 130.716 166.435C130.716 167.154 130.716 167.874 130.716 168.593C130.716 170.032 130.716 171.471 130.716 172.909C130.716 173.629 130.716 174.348 130.716 175.068C130.689 175.401 130.704 175.737 130.759 176.068C130.845 176.361 131.031 176.615 131.284 176.787C131.548 176.959 131.862 177.04 132.176 177.017H135.306L151.226 177.104L178.182 177.269L196.355 177.413L201.297 177.47H196.355H178.182L151.226 177.391L135.306 177.327H132.176C131.787 177.353 131.4 177.249 131.076 177.032C130.748 176.805 130.509 176.472 130.399 176.089C130.335 175.724 130.316 175.352 130.342 174.981C130.342 174.262 130.342 173.542 130.342 172.823C130.342 171.384 130.342 169.945 130.342 168.507C130.342 167.787 130.342 167.068 130.342 166.312C130.393 165.902 130.592 165.524 130.902 165.249C131.212 164.975 131.611 164.824 132.025 164.823L191.988 165.154L202.34 165.233C202.726 165.21 203.113 165.236 203.491 165.312C203.865 165.435 204.18 165.691 204.376 166.032C204.562 166.349 204.643 166.717 204.606 167.082C204.606 167.42 204.606 167.758 204.606 168.082C204.606 169.384 204.606 170.578 204.606 171.679C204.606 172.78 204.606 173.708 204.606 174.557C204.606 174.967 204.606 175.348 204.606 175.701C204.634 176.022 204.582 176.346 204.455 176.643C204.362 176.842 204.227 177.018 204.059 177.159C203.891 177.301 203.695 177.404 203.484 177.463C203.315 177.521 203.135 177.538 202.959 177.514Z" fill="#E0E0E0"/>
<path d="M169.504 137.484L135.663 137.33L135.649 140.503L169.489 140.656L169.504 137.484Z" fill="#4CAF4F"/>
<path opacity="0.2" d="M169.504 137.484L135.663 137.33L135.649 140.503L169.489 140.656L169.504 137.484Z" fill="white"/>
<path d="M138.723 171.643C138.702 171.933 138.596 172.209 138.419 172.439C138.242 172.669 138.001 172.842 137.727 172.936C137.453 173.031 137.157 173.042 136.876 172.97C136.595 172.898 136.341 172.744 136.146 172.529C135.952 172.314 135.824 172.046 135.78 171.76C135.736 171.473 135.777 171.179 135.899 170.916C136.02 170.652 136.216 170.43 136.462 170.277C136.708 170.123 136.994 170.046 137.284 170.053C137.685 170.076 138.061 170.255 138.33 170.553C138.6 170.85 138.741 171.242 138.723 171.643Z" fill="#4CAF4F"/>
<path d="M143.306 171.665C143.32 171.868 143.292 172.071 143.224 172.263C143.156 172.454 143.05 172.63 142.911 172.779C142.772 172.927 142.605 173.046 142.418 173.127C142.232 173.208 142.03 173.25 141.827 173.25C141.624 173.25 141.423 173.208 141.236 173.127C141.05 173.046 140.882 172.927 140.743 172.779C140.605 172.63 140.498 172.454 140.43 172.263C140.362 172.071 140.335 171.868 140.349 171.665C140.335 171.462 140.362 171.258 140.43 171.067C140.498 170.875 140.605 170.699 140.743 170.551C140.882 170.402 141.05 170.284 141.236 170.202C141.423 170.121 141.624 170.08 141.827 170.08C142.03 170.08 142.232 170.121 142.418 170.202C142.605 170.284 142.772 170.402 142.911 170.551C143.05 170.699 143.156 170.875 143.224 171.067C143.292 171.258 143.32 171.462 143.306 171.665Z" fill="#4CAF4F"/>
<path d="M147.896 171.687C147.874 171.976 147.769 172.253 147.592 172.483C147.414 172.712 147.174 172.885 146.899 172.98C146.625 173.074 146.329 173.086 146.048 173.013C145.767 172.941 145.513 172.788 145.319 172.573C145.124 172.357 144.997 172.09 144.953 171.803C144.909 171.516 144.95 171.223 145.071 170.959C145.192 170.696 145.388 170.473 145.634 170.32C145.881 170.167 146.167 170.089 146.457 170.097C146.857 170.121 147.232 170.301 147.501 170.598C147.77 170.895 147.911 171.286 147.896 171.687Z" fill="#4CAF4F"/>
<path d="M152.478 171.708C152.457 171.997 152.351 172.274 152.174 172.504C151.997 172.734 151.756 172.907 151.482 173.001C151.208 173.095 150.911 173.107 150.63 173.035C150.349 172.962 150.096 172.809 149.901 172.594C149.707 172.379 149.579 172.111 149.535 171.825C149.491 171.538 149.532 171.244 149.654 170.981C149.775 170.717 149.971 170.495 150.217 170.341C150.463 170.188 150.749 170.111 151.039 170.118C151.439 170.142 151.814 170.322 152.083 170.62C152.352 170.917 152.494 171.308 152.478 171.708Z" fill="#4CAF4F"/>
<path d="M157.061 171.722C157.041 172.012 156.936 172.29 156.76 172.521C156.584 172.751 156.343 172.925 156.069 173.021C155.795 173.116 155.498 173.129 155.217 173.057C154.935 172.986 154.681 172.833 154.485 172.618C154.29 172.403 154.162 172.135 154.118 171.848C154.073 171.561 154.114 171.268 154.235 171.004C154.356 170.739 154.552 170.517 154.799 170.363C155.045 170.21 155.331 170.132 155.622 170.14C156.021 170.164 156.394 170.343 156.663 170.638C156.932 170.934 157.074 171.323 157.061 171.722Z" fill="#4CAF4F"/>
<path d="M161.65 171.744C161.631 172.032 161.527 172.308 161.353 172.539C161.178 172.769 160.94 172.943 160.668 173.04C160.395 173.136 160.101 173.151 159.82 173.083C159.539 173.014 159.285 172.865 159.088 172.653C158.891 172.442 158.76 172.178 158.711 171.893C158.662 171.608 158.698 171.315 158.814 171.05C158.929 170.785 159.12 170.56 159.362 170.402C159.604 170.244 159.887 170.16 160.176 170.161C160.581 170.176 160.964 170.351 161.24 170.648C161.516 170.944 161.664 171.339 161.65 171.744Z" fill="#4CAF4F"/>
<path d="M166.233 171.766C166.247 171.969 166.22 172.172 166.152 172.364C166.084 172.555 165.977 172.731 165.839 172.88C165.7 173.028 165.532 173.147 165.346 173.228C165.159 173.309 164.958 173.351 164.755 173.351C164.552 173.351 164.35 173.309 164.164 173.228C163.978 173.147 163.81 173.028 163.671 172.88C163.532 172.731 163.426 172.555 163.358 172.364C163.29 172.172 163.262 171.969 163.277 171.766C163.262 171.563 163.29 171.359 163.358 171.168C163.426 170.976 163.532 170.801 163.671 170.652C163.81 170.503 163.978 170.385 164.164 170.304C164.35 170.223 164.552 170.181 164.755 170.181C164.958 170.181 165.159 170.223 165.346 170.304C165.532 170.385 165.7 170.503 165.839 170.652C165.977 170.801 166.084 170.976 166.152 171.168C166.22 171.359 166.247 171.563 166.233 171.766Z" fill="#4CAF4F"/>
<path d="M170.816 171.787C170.796 172.076 170.693 172.352 170.518 172.582C170.344 172.812 170.105 172.987 169.833 173.083C169.561 173.18 169.266 173.195 168.985 173.126C168.705 173.057 168.45 172.908 168.253 172.697C168.056 172.485 167.925 172.221 167.877 171.936C167.828 171.651 167.864 171.358 167.979 171.094C168.095 170.829 168.285 170.604 168.527 170.446C168.769 170.288 169.052 170.204 169.341 170.205C169.746 170.22 170.129 170.395 170.406 170.691C170.682 170.988 170.83 171.382 170.816 171.787Z" fill="#4CAF4F"/>
<path d="M175.398 171.809C175.379 172.099 175.274 172.376 175.098 172.607C174.921 172.838 174.681 173.012 174.407 173.107C174.132 173.203 173.836 173.215 173.555 173.144C173.273 173.072 173.019 172.919 172.823 172.704C172.628 172.489 172.5 172.222 172.456 171.935C172.411 171.648 172.452 171.354 172.573 171.09C172.694 170.826 172.89 170.603 173.136 170.45C173.383 170.296 173.669 170.218 173.96 170.226C174.358 170.25 174.732 170.429 175.001 170.725C175.27 171.021 175.412 171.409 175.398 171.809Z" fill="#4CAF4F"/>
<g opacity="0.2">
<path d="M138.723 171.643C138.702 171.933 138.596 172.209 138.419 172.439C138.242 172.669 138.001 172.842 137.727 172.936C137.453 173.031 137.157 173.042 136.876 172.97C136.595 172.898 136.341 172.744 136.146 172.529C135.952 172.314 135.824 172.046 135.78 171.76C135.736 171.473 135.777 171.179 135.899 170.916C136.02 170.652 136.216 170.43 136.462 170.277C136.708 170.123 136.994 170.046 137.284 170.053C137.685 170.076 138.061 170.255 138.33 170.553C138.6 170.85 138.741 171.242 138.723 171.643Z" fill="white"/>
<path d="M143.306 171.665C143.32 171.868 143.292 172.071 143.224 172.263C143.156 172.454 143.05 172.63 142.911 172.779C142.772 172.927 142.605 173.046 142.418 173.127C142.232 173.208 142.03 173.25 141.827 173.25C141.624 173.25 141.423 173.208 141.236 173.127C141.05 173.046 140.882 172.927 140.743 172.779C140.605 172.63 140.498 172.454 140.43 172.263C140.362 172.071 140.335 171.868 140.349 171.665C140.335 171.462 140.362 171.258 140.43 171.067C140.498 170.875 140.605 170.699 140.743 170.551C140.882 170.402 141.05 170.284 141.236 170.202C141.423 170.121 141.624 170.08 141.827 170.08C142.03 170.08 142.232 170.121 142.418 170.202C142.605 170.284 142.772 170.402 142.911 170.551C143.05 170.699 143.156 170.875 143.224 171.067C143.292 171.258 143.32 171.462 143.306 171.665Z" fill="white"/>
<path d="M147.896 171.686C147.874 171.976 147.769 172.252 147.592 172.482C147.414 172.712 147.174 172.885 146.899 172.979C146.625 173.073 146.329 173.085 146.048 173.013C145.767 172.94 145.513 172.787 145.319 172.572C145.124 172.357 144.997 172.089 144.953 171.803C144.909 171.516 144.95 171.222 145.071 170.959C145.192 170.695 145.388 170.473 145.634 170.32C145.881 170.166 146.167 170.089 146.457 170.096C146.857 170.12 147.232 170.3 147.501 170.598C147.77 170.895 147.911 171.286 147.896 171.686Z" fill="white"/>
<path d="M152.478 171.708C152.457 171.997 152.351 172.274 152.174 172.504C151.997 172.734 151.756 172.907 151.482 173.001C151.208 173.095 150.911 173.107 150.63 173.035C150.349 172.962 150.096 172.809 149.901 172.594C149.707 172.379 149.579 172.111 149.535 171.825C149.491 171.538 149.532 171.244 149.654 170.981C149.775 170.717 149.971 170.495 150.217 170.341C150.463 170.188 150.749 170.111 151.039 170.118C151.439 170.142 151.814 170.322 152.083 170.62C152.352 170.917 152.494 171.308 152.478 171.708Z" fill="white"/>
<path d="M157.061 171.722C157.041 172.012 156.936 172.29 156.76 172.521C156.584 172.751 156.343 172.925 156.069 173.021C155.795 173.116 155.498 173.129 155.217 173.057C154.935 172.986 154.681 172.833 154.485 172.618C154.29 172.403 154.162 172.135 154.118 171.848C154.073 171.561 154.114 171.268 154.235 171.004C154.356 170.739 154.552 170.517 154.799 170.363C155.045 170.21 155.331 170.132 155.622 170.14C156.021 170.164 156.394 170.343 156.663 170.638C156.932 170.934 157.074 171.323 157.061 171.722Z" fill="white"/>
<path d="M161.65 171.744C161.631 172.032 161.527 172.308 161.353 172.539C161.178 172.769 160.94 172.943 160.668 173.04C160.395 173.136 160.101 173.151 159.82 173.083C159.539 173.014 159.285 172.865 159.088 172.653C158.891 172.442 158.76 172.178 158.711 171.893C158.662 171.608 158.698 171.315 158.814 171.05C158.929 170.785 159.12 170.56 159.362 170.402C159.604 170.244 159.887 170.16 160.176 170.161C160.581 170.176 160.964 170.351 161.24 170.648C161.516 170.944 161.664 171.339 161.65 171.744Z" fill="white"/>
<path d="M166.233 171.765C166.247 171.968 166.22 172.172 166.152 172.363C166.084 172.555 165.977 172.731 165.839 172.879C165.7 173.028 165.532 173.147 165.346 173.228C165.159 173.309 164.958 173.35 164.755 173.35C164.552 173.35 164.35 173.309 164.164 173.228C163.978 173.147 163.81 173.028 163.671 172.879C163.532 172.731 163.426 172.555 163.358 172.363C163.29 172.172 163.262 171.968 163.277 171.765C163.262 171.563 163.29 171.359 163.358 171.167C163.426 170.976 163.532 170.8 163.671 170.651C163.81 170.503 163.978 170.384 164.164 170.303C164.35 170.222 164.552 170.18 164.755 170.18C164.958 170.18 165.159 170.222 165.346 170.303C165.532 170.384 165.7 170.503 165.839 170.651C165.977 170.8 166.084 170.976 166.152 171.167C166.22 171.359 166.247 171.563 166.233 171.765Z" fill="white"/>
<path d="M170.816 171.787C170.796 172.076 170.693 172.352 170.518 172.582C170.344 172.812 170.105 172.987 169.833 173.083C169.561 173.18 169.266 173.195 168.985 173.126C168.705 173.057 168.45 172.908 168.253 172.697C168.056 172.485 167.925 172.221 167.877 171.936C167.828 171.651 167.864 171.358 167.979 171.094C168.095 170.829 168.285 170.604 168.527 170.446C168.769 170.288 169.052 170.204 169.341 170.205C169.746 170.22 170.129 170.395 170.406 170.691C170.682 170.988 170.83 171.382 170.816 171.787Z" fill="white"/>
<path d="M175.398 171.809C175.379 172.099 175.274 172.376 175.098 172.607C174.921 172.838 174.681 173.012 174.407 173.107C174.132 173.203 173.836 173.215 173.555 173.144C173.273 173.072 173.019 172.919 172.823 172.704C172.628 172.489 172.5 172.222 172.456 171.935C172.411 171.648 172.452 171.354 172.573 171.09C172.694 170.826 172.89 170.603 173.136 170.45C173.383 170.296 173.669 170.218 173.96 170.226C174.358 170.25 174.732 170.429 175.001 170.725C175.27 171.021 175.412 171.409 175.398 171.809Z" fill="white"/>
</g>
<path d="M168.888 67.9552C169.388 67.7351 169.812 67.373 170.107 66.9137C170.403 66.4545 170.557 65.9186 170.55 65.3725C170.568 65.0176 170.515 64.6626 170.392 64.3291C170.269 63.9956 170.079 63.6907 169.834 63.4328C169.59 63.175 169.295 62.9697 168.968 62.8294C168.642 62.6891 168.29 62.6167 167.935 62.6167C167.579 62.6167 167.228 62.6891 166.901 62.8294C166.574 62.9697 166.28 63.175 166.035 63.4328C165.79 63.6907 165.601 63.9956 165.478 64.3291C165.355 64.6626 165.301 65.0176 165.32 65.3725C165.309 65.924 165.461 66.4664 165.758 66.9312C166.055 67.396 166.484 67.7623 166.989 67.984C162.96 68.5883 163.14 72.9623 163.14 72.9623L172.665 73.0054C172.665 73.0054 172.888 68.5523 168.888 67.9552Z" fill="#4CAF4F"/>
<path opacity="0.1" d="M168.888 67.9552C169.388 67.7351 169.812 67.373 170.107 66.9137C170.403 66.4545 170.557 65.9186 170.55 65.3725C170.568 65.0176 170.515 64.6626 170.392 64.3291C170.269 63.9956 170.079 63.6907 169.834 63.4328C169.59 63.175 169.295 62.9697 168.968 62.8294C168.642 62.6891 168.29 62.6167 167.935 62.6167C167.579 62.6167 167.228 62.6891 166.901 62.8294C166.574 62.9697 166.28 63.175 166.035 63.4328C165.79 63.6907 165.601 63.9956 165.478 64.3291C165.355 64.6626 165.301 65.0176 165.32 65.3725C165.309 65.924 165.461 66.4664 165.758 66.9312C166.055 67.396 166.484 67.7623 166.989 67.984C162.96 68.5883 163.14 72.9623 163.14 72.9623L172.665 73.0054C172.665 73.0054 172.888 68.5523 168.888 67.9552Z" fill="black"/>
<path d="M184.365 75.8264L150.417 75.6724L150.399 79.7298L184.347 79.8838L184.365 75.8264Z" fill="#4CAF4F"/>
<path opacity="0.2" d="M184.365 75.8264L150.417 75.6724L150.399 79.7298L184.347 79.8838L184.365 75.8264Z" fill="white"/>
<path d="M59.5595 96.8536H59.2214L58.243 96.9255C57.7135 96.9573 57.187 97.027 56.6675 97.1341C56.331 97.1814 55.9973 97.2462 55.6676 97.3284L54.5525 97.6377C52.6546 98.22 50.8639 99.1068 49.2504 100.264C47.1188 101.811 45.3388 103.792 44.0276 106.076C43.2569 107.393 42.6436 108.796 42.2003 110.256C41.7344 111.843 41.4662 113.481 41.4017 115.134C41.3589 116.002 41.3733 116.872 41.4449 117.738C41.4449 118.177 41.5672 118.616 41.6247 119.062C41.6732 119.511 41.7573 119.956 41.8765 120.393C42.5234 123.279 43.836 125.975 45.7096 128.265C47.5832 130.554 49.9659 132.374 52.6676 133.579C54.623 134.423 56.7189 134.894 58.8473 134.968C61.0456 135.089 63.2461 134.773 65.322 134.04L65.9551 133.802H66.0414L66.1133 133.845L75.185 138.45L74.9189 138.68C73.9477 135.673 73.0124 132.759 72.106 129.961V129.853L72.1851 129.774C74.3858 127.557 76.0194 124.842 76.9476 121.86C77.7882 119.134 78.0336 116.258 77.667 113.429C77.3409 110.914 76.5324 108.486 75.2858 106.278C74.2112 104.381 72.8249 102.679 71.1851 101.242C69.8323 100.105 68.3349 99.1518 66.732 98.4075C65.5192 97.8844 64.2561 97.4867 62.9623 97.2205L61.5235 96.9831L60.4804 96.9039L59.8473 96.8608H59.6315C59.7032 96.8528 59.7756 96.8528 59.8473 96.8608H60.4876L61.5307 96.9039L62.9695 97.1126C64.2794 97.3593 65.5597 97.7426 66.7896 98.2564C68.42 98.9919 69.9444 99.9428 71.3218 101.084C72.9918 102.514 74.4074 104.217 75.5088 106.12C76.7908 108.351 77.6241 110.812 77.962 113.364C78.3589 116.237 78.1307 119.162 77.2929 121.939C76.3587 124.984 74.6998 127.756 72.4585 130.018L72.5017 129.831C73.4081 132.63 74.3505 135.543 75.3289 138.543L75.4656 138.982L75.0555 138.773L65.9838 134.176H66.1421L65.4946 134.414C63.3788 135.158 61.1376 135.481 58.8977 135.363C56.7234 135.281 54.5837 134.793 52.5885 133.925C48.7826 132.295 45.6162 129.462 43.5743 125.86C42.6347 124.197 41.9485 122.402 41.5384 120.536C41.4261 120.089 41.342 119.635 41.2866 119.177C41.2291 118.724 41.1355 118.277 41.114 117.831C40.9193 115.272 41.1898 112.698 41.9125 110.235C42.3669 108.754 42.9973 107.334 43.7902 106.004C45.1327 103.699 46.9497 101.706 49.121 100.156C50.7609 98.996 52.5817 98.116 54.5093 97.5514L55.6388 97.2636C55.9712 97.1865 56.3074 97.1265 56.6459 97.0838C57.1708 96.9866 57.7023 96.9289 58.2358 96.9111L59.2214 96.8752C59.3335 96.8601 59.4465 96.8528 59.5595 96.8536Z" fill="#4CAF4F"/>
<path d="M63.6601 113.63H62.3292L59.4516 109.587V106.932C59.4516 106.932 57.3941 106.803 57.6387 110.277C57.8833 113.752 57.6387 112.867 57.6387 112.867C57.6387 112.867 53.2719 112.867 52.9122 113.263C52.5525 113.659 52.5309 117.874 52.4805 120.227C52.453 120.794 52.6157 121.354 52.9429 121.818C53.27 122.282 53.7429 122.623 54.2863 122.788C54.4386 122.83 54.5958 122.852 54.7539 122.853C55.8474 122.853 61.4084 121.968 61.4084 121.968H63.7033L63.6601 113.63Z" fill="#4CAF4F"/>
<path d="M67.466 112.918L66.6459 122.011H64.3726V113.105L67.466 112.918Z" fill="#4CAF4F"/>
<path d="M94.58 298.043V291.892L83.5515 291.813L83.458 301.115L84.1414 301.165C87.1845 301.36 99.6231 301.647 101.666 301.014C103.94 300.309 94.58 298.043 94.58 298.043Z" fill="#4CAF4F"/>
<path d="M101.925 300.439C101.925 300.539 97.7959 300.626 92.7097 300.626C87.6235 300.626 83.4941 300.539 83.4941 300.439C83.4941 300.338 87.6235 300.251 92.7097 300.251C97.7959 300.251 101.925 300.338 101.925 300.439Z" fill="#263238"/>
<path d="M94.7743 299.302C94.6808 299.251 94.7743 298.928 94.9973 298.582C95.2203 298.237 95.5225 298.093 95.5944 298.165C95.6664 298.237 95.5153 298.51 95.2995 298.805C95.0836 299.1 94.8678 299.352 94.7743 299.302Z" fill="#263238"/>
<path d="M95.4795 299.705C95.3788 299.705 95.4292 299.302 95.645 298.921C95.8608 298.539 96.1486 298.309 96.2277 298.367C96.3068 298.424 96.1773 298.748 95.9759 299.086C95.7745 299.424 95.573 299.741 95.4795 299.705Z" fill="#263238"/>
<path d="M86.8175 300.41C86.7744 300.41 86.6089 300.28 86.3715 300.007C86.0817 299.655 85.7589 299.333 85.4075 299.043C85.0619 298.767 84.6503 298.586 84.2133 298.518C83.8752 298.474 83.6593 298.518 83.6378 298.474C83.6162 298.431 83.8248 298.28 84.2205 298.251C84.7427 298.24 85.252 298.414 85.6593 298.741C86.0408 299.052 86.3626 299.43 86.6089 299.856C86.7744 300.172 86.8607 300.381 86.8175 300.41Z" fill="#263238"/>
<path d="M94.8105 298.143C94.8609 298.23 94.6738 298.445 94.3573 298.561C94.0407 298.676 93.7602 298.633 93.7458 298.561C93.7314 298.489 93.9544 298.338 94.2278 298.237C94.5012 298.136 94.7529 298.057 94.8105 298.143Z" fill="#263238"/>
<path d="M94.6378 297.546C94.6378 297.654 94.35 297.741 93.9759 297.748C93.6019 297.755 93.3069 297.669 93.3141 297.568C93.3213 297.467 93.6162 297.374 93.9759 297.367C94.3356 297.359 94.6234 297.446 94.6378 297.546Z" fill="#263238"/>
<path d="M121.738 298.043V291.892L110.709 291.813L110.616 301.021L111.299 301.072C114.342 301.266 126.788 301.647 128.824 301.014C131.097 300.309 121.738 298.043 121.738 298.043Z" fill="#4CAF4F"/>
<path d="M129.083 300.453C129.083 300.553 124.96 300.64 119.867 300.64C114.774 300.64 110.659 300.553 110.659 300.453C110.659 300.352 114.781 300.266 119.867 300.266C124.953 300.266 129.083 300.352 129.083 300.453Z" fill="#263238"/>
<path d="M121.932 299.302C121.846 299.251 121.932 298.928 122.155 298.582C122.378 298.237 122.68 298.093 122.752 298.165C122.824 298.237 122.673 298.51 122.457 298.805C122.241 299.1 122.025 299.352 121.932 299.302Z" fill="#263238"/>
<path d="M122.637 299.705C122.543 299.705 122.586 299.302 122.809 298.921C123.032 298.539 123.313 298.309 123.392 298.367C123.471 298.424 123.335 298.748 123.133 299.086C122.932 299.424 122.737 299.741 122.637 299.705Z" fill="#263238"/>
<path d="M113.975 300.41C113.932 300.41 113.774 300.28 113.529 300.007C113.239 299.655 112.917 299.333 112.565 299.043C112.22 298.767 111.808 298.586 111.371 298.518C111.04 298.474 110.817 298.518 110.795 298.474C110.774 298.431 110.983 298.28 111.378 298.251C111.9 298.24 112.41 298.414 112.817 298.741C113.201 299.05 113.523 299.428 113.767 299.856C113.932 300.172 114.018 300.381 113.975 300.41Z" fill="#263238"/>
<path d="M121.968 298.143C122.018 298.23 121.831 298.445 121.514 298.561C121.198 298.676 120.917 298.633 120.903 298.561C120.889 298.489 121.112 298.338 121.385 298.237C121.658 298.136 121.91 298.057 121.968 298.143Z" fill="#263238"/>
<path d="M121.81 297.546C121.81 297.654 121.522 297.741 121.148 297.748C120.774 297.755 120.486 297.669 120.493 297.568C120.5 297.467 120.788 297.374 121.148 297.367C121.508 297.359 121.81 297.446 121.81 297.546Z" fill="#263238"/>
<path d="M162.37 115.386C162.082 115.091 161.37 115.235 161.37 115.235C161.441 114.82 161.441 114.397 161.37 113.983C161.24 113.58 160.334 113.659 160.334 113.659C160.292 113.32 160.292 112.977 160.334 112.637C160.341 112.562 160.325 112.487 160.288 112.421C160.25 112.355 160.194 112.303 160.125 112.271C159.696 112.096 159.236 112.012 158.773 112.026C158.219 111.63 160.463 108.486 161.298 107.479C162.132 106.472 161.981 105.688 161.24 105.688C160.73 105.688 158.111 108.709 157.305 109.724C156.499 110.738 154.363 113.558 154.291 111.307C154.219 109.055 153.312 107.357 152.744 107.069C152.176 106.781 151.571 107.458 151.881 108.084C152.153 108.795 152.322 109.541 152.384 110.299C152.463 110.904 152.436 111.517 152.305 112.112C152.067 113.22 151.742 114.307 151.334 115.364H151.277C151.277 115.364 135.579 130.421 134.442 131.493C133.428 132.457 113.026 130.349 108.932 129.918C107.541 129.714 106.137 129.618 104.731 129.63C102.954 129.709 102.637 129.961 100.868 129.982C96.3984 130.032 91.9394 130.424 87.5299 131.155C85.5333 131.494 83.6683 132.376 82.1383 133.703C80.6084 135.03 79.4722 136.751 78.8539 138.68C74.7317 151.557 65.3938 182.039 63.7464 199.16C62.5015 201.418 61.3776 203.74 60.3796 206.117C59.2213 209.268 59.5019 209.376 59.8904 209.448C60.9407 209.642 62.1349 203.988 62.5809 205.355C63.027 206.721 60.3148 212.095 61.4155 212.254C62.8543 212.455 63.9982 206.498 64.1349 206.024C64.2715 205.549 64.9838 205.7 64.8543 206.146C64.6456 206.779 62.6241 213.491 64.0341 213.707C64.8111 213.822 64.8974 212.405 64.8974 212.405C64.8974 212.405 66.3362 205.98 66.9909 206.11C67.6456 206.239 66.9477 210.031 66.6168 211.297C66.2859 212.563 66.7463 213.203 67.4225 212.894C67.883 212.678 68.9837 208.829 69.2858 207.577C69.588 206.326 70.3433 202.858 71.3577 204.865C72.3721 206.872 73.9116 208.038 74.5447 208.067C74.6873 208.05 74.8218 207.991 74.9308 207.898C75.0397 207.804 75.1182 207.68 75.1561 207.542C75.1941 207.403 75.1897 207.257 75.1435 207.121C75.0974 206.985 75.0116 206.866 74.8972 206.779C74.3527 206.247 73.8853 205.642 73.5087 204.98C73.1731 204.465 72.9297 203.896 72.7893 203.297C72.4994 202.104 72.3307 200.884 72.2857 199.657L72.1706 198.937C73.7821 190.959 78.4223 167.543 85.1199 152.586L87.8681 158.241L89.0623 162.428L81.7387 180.506L112.975 180.096L108.314 162.154L113.975 143.45C120.097 143.586 135.816 143.817 138.435 142.629C141.73 141.191 158.773 119.666 158.773 119.666C159.884 118.803 160.948 117.881 161.96 116.904C161.96 116.904 162.996 116.033 162.37 115.386Z" fill="#FFBE9D"/>
<path d="M80.3646 167.147C81.271 164.054 85.9256 148.759 85.9256 148.759C85.9256 148.759 88.2133 161.226 87.609 162.73C87.0531 164.017 86.3964 165.258 85.645 166.442C80.3646 174.478 81.0552 178.499 81.0552 178.499L112.961 177.528C113.033 173.068 110.393 162.694 109.846 161.039C109.299 159.385 111.119 153.967 111.119 153.967C111.119 153.967 114.716 150.306 114.587 148.421C114.518 146.728 114.309 145.043 113.961 143.385L133.385 144.104L132.773 130.939L104.875 128.148C103.904 130.889 95.1196 129.544 95.1196 129.544C85.6378 129.86 85.0479 131.601 81.1055 134.666C77.1632 137.73 70.6382 164.032 70.6382 164.032L80.3646 167.147Z" fill="#4CAF4F"/>
<path d="M99.2273 164.032C98.6744 164.131 98.1113 164.16 97.5511 164.118C96.508 164.118 95.0763 164.046 93.5008 163.888C91.9253 163.73 90.5009 163.507 89.4866 163.305C88.9273 163.233 88.3788 163.093 87.8535 162.888C88.416 162.888 88.9772 162.941 89.5297 163.046C90.5513 163.176 91.9685 163.356 93.5368 163.514C95.1051 163.672 96.5295 163.78 97.5583 163.852C98.1191 163.859 98.6779 163.92 99.2273 164.032Z" fill="#263238"/>
<path d="M101.414 161.32C100.861 161.591 100.276 161.791 99.6735 161.917C96.8033 162.671 93.8421 163.022 90.8751 162.96C90.2612 162.98 89.6472 162.922 89.0479 162.787C89.6538 162.711 90.2646 162.68 90.8751 162.694C92.0046 162.658 93.5585 162.579 95.2707 162.377C96.9829 162.176 98.508 161.888 99.5871 161.658C100.187 161.498 100.797 161.385 101.414 161.32Z" fill="#263238"/>
<path d="M112.148 149.219C112.134 149.768 112.059 150.313 111.925 150.845C111.738 151.845 111.45 153.212 111.083 154.708C110.717 156.205 110.364 157.586 110.047 158.521C109.92 159.056 109.732 159.575 109.486 160.068C109.526 159.521 109.628 158.981 109.788 158.456C110.062 157.334 110.371 156.039 110.717 154.622C111.062 153.205 111.393 151.91 111.666 150.788C111.764 150.247 111.925 149.721 112.148 149.219Z" fill="#263238"/>
<path d="M80.7028 165.312C79.0385 165.055 77.396 164.673 75.7893 164.168C74.1475 163.785 72.5364 163.28 70.9692 162.658C72.6327 162.919 74.275 163.301 75.8828 163.802C77.5249 164.184 79.1361 164.689 80.7028 165.312Z" fill="#263238"/>
<path d="M114.306 143.227C114.035 143.274 113.758 143.274 113.486 143.227C112.735 143.15 111.997 142.973 111.292 142.702C110.115 142.259 109.044 141.576 108.147 140.695C107.25 139.814 106.547 138.755 106.084 137.587C105.571 136.301 105.353 134.917 105.443 133.536C105.475 132.397 105.816 131.289 106.429 130.328C106.86 129.681 107.504 129.205 108.249 128.983C108.448 128.928 108.654 128.901 108.861 128.903C109.004 128.903 109.076 128.903 109.076 128.903C109.076 128.903 108.774 128.903 108.292 129.098C107.609 129.35 107.029 129.824 106.645 130.443C105.666 131.983 105.393 134.795 106.436 137.421C106.922 138.659 107.682 139.771 108.659 140.673C109.46 141.411 110.382 142.005 111.386 142.428C112.327 142.8 113.307 143.068 114.306 143.227Z" fill="#263238"/>
<path d="M131.075 143.846C130.895 141.639 130.838 139.425 130.903 137.213C130.846 135.002 130.914 132.79 131.104 130.587C131.284 132.791 131.342 135.003 131.277 137.213C131.337 139.426 131.27 141.64 131.075 143.846Z" fill="#263238"/>
<path d="M104.688 128.954C104.767 127.349 104.932 125.537 104.932 125.537C104.932 125.537 108.903 125.098 109.141 120.997C109.378 116.896 109.141 107.436 109.141 107.436L101.947 103.753L93.9614 110.033L95.1916 130.536L102.515 131.004C103.075 131.02 103.618 130.812 104.025 130.428C104.433 130.044 104.671 129.513 104.688 128.954Z" fill="#FFBE9D"/>
<path d="M105.4 117.752C105.4 117.752 105.4 117.831 105.335 117.925C105.282 117.993 105.212 118.047 105.133 118.082C105.054 118.117 104.968 118.132 104.882 118.126C104.421 118.126 103.975 117.594 103.817 116.975C103.742 116.675 103.742 116.362 103.817 116.062C103.832 115.931 103.879 115.806 103.955 115.698C104.03 115.59 104.131 115.502 104.249 115.443C104.346 115.403 104.454 115.403 104.551 115.443C104.623 115.479 104.681 115.537 104.716 115.609C104.767 115.731 104.716 115.81 104.716 115.803C104.716 115.796 104.716 115.731 104.644 115.659C104.607 115.607 104.552 115.572 104.489 115.558C104.427 115.545 104.362 115.555 104.306 115.587C104.218 115.64 104.145 115.715 104.093 115.804C104.042 115.894 104.013 115.995 104.011 116.098C103.951 116.365 103.951 116.643 104.011 116.911C104.155 117.472 104.544 117.925 104.889 117.968C104.957 117.977 105.025 117.972 105.091 117.954C105.157 117.935 105.218 117.903 105.27 117.86C105.357 117.803 105.385 117.745 105.4 117.752Z" fill="#EB996E"/>
<path d="M111.608 105.22C111.054 103.336 109.047 102.4 107.22 101.882C104.436 101.091 101.429 100.746 98.7094 101.746C95.99 102.746 92.7239 104.501 92.7239 107.501C91.1196 107.371 90.1988 108.774 89.5657 110.515C89.1609 111.576 88.9184 112.692 88.8463 113.825C88.6449 117.752 87.5442 123.177 84.9975 126.054C83.5587 127.659 81.5659 128.767 80.7458 130.767C80.0264 132.5 80.4005 134.558 79.7314 136.313C79.1343 137.86 77.8178 138.961 76.8538 140.306C75.8717 141.832 75.2937 143.583 75.1741 145.394C75.0546 147.205 75.3974 149.016 76.1704 150.658C76.9489 152.258 78.045 153.683 79.3919 154.845C80.7387 156.008 82.3082 156.884 84.0047 157.421C87.3651 158.443 90.9485 158.478 94.3282 157.521C96.8646 156.915 99.2307 155.742 101.249 154.09C103.314 152.403 104.732 150.055 105.263 147.442C105.774 144.507 104.954 141.522 104.342 138.601C102.429 129.371 102.975 128.889 105.393 120.321C105.45 120.17 105.479 120.011 105.522 119.86C105.565 119.709 105.587 119.637 105.616 119.522C105.684 119.184 105.72 118.839 105.724 118.493C105.371 118.625 104.987 118.653 104.619 118.574C104.251 118.494 103.913 118.312 103.644 118.047C103.376 117.765 103.188 117.416 103.102 117.036C103.016 116.656 103.034 116.26 103.155 115.889C103.325 115.484 103.578 115.119 103.898 114.818C104.217 114.517 104.597 114.286 105.011 114.141C105.81 113.81 106.666 113.637 107.45 113.271C109.112 112.479 110.263 110.839 111.047 109.12C111.692 107.928 111.891 106.546 111.608 105.22Z" fill="#263238"/>
<path d="M105.688 117.947C105.84 118.171 105.965 118.413 106.062 118.666C106.277 119.119 106.565 119.76 106.882 120.501L106.939 120.637H106.788L106.069 120.702C105.572 120.702 105.155 120.796 104.666 120.788C104.623 120.779 104.584 120.759 104.551 120.73C104.519 120.701 104.494 120.664 104.479 120.623C104.458 120.558 104.458 120.487 104.479 120.422C104.496 120.325 104.517 120.229 104.544 120.134L104.673 119.623C104.738 119.282 104.84 118.949 104.975 118.63C104.962 118.978 104.911 119.322 104.824 119.659L104.724 120.17C104.688 120.342 104.623 120.609 104.724 120.587C105.083 120.587 105.594 120.508 106.069 120.479L106.788 120.414L106.695 120.573C106.385 119.853 106.126 119.177 105.975 118.709C105.843 118.471 105.746 118.214 105.688 117.947Z" fill="#4CAF4F"/>
<path d="M81.0551 178.499L112.961 177.528L126.845 231.728L124.291 293.899H107.421L109.486 233.052L97.1482 195.319L99.0474 296.309L81.9975 296.561L80.2062 201.635C80.127 198.995 79.2637 193.045 79.5875 190.427L81.0551 178.499Z" fill="#263238"/>
<path d="M101.393 196.089C100.871 196.122 100.346 196.09 99.8317 195.995C98.8677 195.88 97.5512 195.679 96.1052 195.391C94.6592 195.103 93.3643 194.772 92.429 194.506C91.9291 194.396 91.4455 194.222 90.9902 193.988C90.9902 193.88 93.3355 194.441 96.2131 195.024C99.0907 195.607 101.407 195.981 101.393 196.089Z" fill="#455A64"/>
<path d="M124.119 290.489C124.119 290.59 120.299 290.676 115.587 290.676C110.875 290.676 107.047 290.59 107.047 290.489C107.047 290.389 110.867 290.302 115.587 290.302C120.306 290.302 124.119 290.381 124.119 290.489Z" fill="#455A64"/>
<path d="M98.8965 293.683C98.8965 293.791 95.1844 293.87 90.609 293.87C86.0336 293.87 82.3286 293.791 82.3286 293.683C82.3286 293.575 86.0408 293.496 90.609 293.496C95.1772 293.496 98.8965 293.582 98.8965 293.683Z" fill="#455A64"/>
<path d="M96.6953 293.424C96.5946 293.424 96.1485 271.36 95.6953 244.145C95.2421 216.93 94.9759 194.851 95.0694 194.851C95.1629 194.851 95.6234 216.908 96.0694 244.138C96.5154 271.367 96.8032 293.424 96.6953 293.424Z" fill="#455A64"/>
<path d="M121.853 290.489C121.845 290.391 121.845 290.292 121.853 290.194V289.331C121.853 288.554 121.91 287.439 121.954 286.021C122.054 283.144 122.198 278.964 122.378 273.842C122.767 263.54 123.313 249.339 123.91 233.663C123.91 233.512 123.91 233.368 123.91 233.239V233.289C120.134 218.181 116.716 204.47 114.234 194.549L111.357 182.815C111.026 181.441 110.774 180.369 110.594 179.621C110.508 179.269 110.45 178.995 110.4 178.787C110.372 178.693 110.355 178.597 110.35 178.499C110.387 178.59 110.416 178.684 110.436 178.78C110.493 178.981 110.565 179.254 110.666 179.6C110.86 180.319 111.141 181.413 111.501 182.779C112.22 185.556 113.234 189.556 114.501 194.484C117.004 204.398 120.457 218.074 124.285 233.203V233.253C124.285 233.383 124.285 233.534 124.285 233.677C123.644 249.353 123.062 263.547 122.637 273.849C122.414 278.978 122.227 283.129 122.098 286.021C122.026 287.46 121.968 288.554 121.932 289.331C121.932 289.698 121.889 289.985 121.882 290.194C121.883 290.293 121.873 290.392 121.853 290.489Z" fill="#455A64"/>
<path d="M116.349 231.973C115.137 232.371 113.889 232.648 112.623 232.8C111.069 233.066 109.745 233.253 109.148 233.282V233.138C109.342 233.196 109.443 233.232 109.443 233.26C109.443 233.289 109.321 233.26 109.119 233.26H108.688L109.119 233.131C109.68 232.965 111.004 232.692 112.558 232.411C113.804 232.141 115.074 231.994 116.349 231.973Z" fill="#455A64"/>
<path d="M116.054 234.037C114.932 234.089 113.808 234.038 112.695 233.886C111.571 233.863 110.452 233.74 109.35 233.519C111.598 233.336 113.861 233.511 116.054 234.037Z" fill="#455A64"/>
<path opacity="0.2" d="M80.9185 179.643C81.2963 180.128 81.7723 180.528 82.3152 180.817C82.8582 181.106 83.4559 181.277 84.0694 181.319C85.3544 181.471 86.6542 181.447 87.9327 181.247C96.1699 180.334 104.896 179.492 112.961 177.528C102.522 178.111 91.4937 177.916 81.0551 178.499L80.9472 179.391" fill="black"/>
<g opacity="0.2">
<path d="M91.6738 194.355L97.5586 217.189L97.1485 195.319L91.6738 194.355Z" fill="black"/>
</g>
</svg>
