<svg width="346" height="34" viewBox="0 0 346 34" fill="none" xmlns="http://www.w3.org/2000/svg">
<rect width="33.4113" height="33.4113" rx="5.56856" fill="#E8F5E9"/>
<g clip-path="url(#clip0_211_2510)">
<path fill-rule="evenodd" clip-rule="evenodd" d="M7.20679 0.135254C11.051 0.135254 14.1675 3.25166 14.1675 7.09595V0.135254H21.1282C24.9724 0.135254 28.0889 3.25166 28.0889 7.09595C28.0889 10.9402 24.9724 14.0566 21.1282 14.0566C24.9724 14.0566 28.0889 17.1731 28.0889 21.0173C28.0889 22.9262 27.3205 24.6556 26.0762 25.9131L26.0502 25.9393L26.027 25.9623C24.7692 27.2084 23.0386 27.978 21.1282 27.978C19.2308 27.978 17.5106 27.2188 16.255 25.9876C16.2387 25.9716 16.2224 25.9555 16.2062 25.9393C16.191 25.9241 16.1758 25.9088 16.1607 25.8934C14.9279 24.6375 14.1675 22.9162 14.1675 21.0173C14.1675 24.8616 11.051 27.978 7.20679 27.978C3.3625 27.978 0.246094 24.8616 0.246094 21.0173V14.0566H7.20679C3.3625 14.0566 0.246094 10.9402 0.246094 7.09595C0.246094 3.25166 3.3625 0.135254 7.20679 0.135254ZM12.7753 7.09595C12.7753 10.1714 10.2822 12.6645 7.20679 12.6645V1.52739C10.2822 1.52739 12.7753 4.02052 12.7753 7.09595ZM26.6967 21.0173C26.6967 17.9419 24.2036 15.4488 21.1282 15.4488C18.0527 15.4488 15.5596 17.9419 15.5596 21.0173H26.6967ZM1.63823 15.4488V21.0173C1.63823 24.0928 4.13136 26.5859 7.20679 26.5859C10.2822 26.5859 12.7753 24.0928 12.7753 21.0173V15.4488H1.63823ZM15.5596 12.6645V1.52739H21.1282C24.2036 1.52739 26.6967 4.02052 26.6967 7.09595C26.6967 10.1714 24.2036 12.6645 21.1282 12.6645H15.5596Z" fill="#5417D7"/>
</g>
<rect x="61.9502" width="33.4113" height="33.4113" rx="5.56856" fill="#F5F7FA"/>
<g clip-path="url(#clip1_211_2510)">
<path fill-rule="evenodd" clip-rule="evenodd" d="M68.9791 9.71806L62.0283 16.599C63.4186 17.9753 65.0068 19.1352 66.7384 20.0427C67.217 21.2995 67.9672 22.4782 68.989 23.4897C72.8333 27.2953 79.0662 27.2953 82.9104 23.4897C83.9322 22.4782 84.6825 21.2995 85.1611 20.0426C86.8926 19.1352 88.4808 17.9753 89.8711 16.599L82.9259 9.72366C82.9208 9.71852 82.9156 9.71337 82.9104 9.70823C79.0662 5.90259 72.8333 5.90259 68.989 9.70823C68.9857 9.71151 68.9824 9.71478 68.9791 9.71806ZM82.2453 21.2841C80.2197 21.9609 78.0934 22.3074 75.9497 22.3074C73.806 22.3074 71.6797 21.9609 69.6542 21.2841C69.8736 21.5724 70.116 21.849 70.3812 22.1116C73.4566 25.1561 78.4428 25.1561 81.5183 22.1116C81.7835 21.849 82.0258 21.5724 82.2453 21.2841ZM70.5239 10.9486C71.0462 11.2901 71.6015 11.5824 72.1826 11.8207C73.3769 12.3104 74.657 12.5625 75.9497 12.5625C77.2424 12.5625 78.5225 12.3104 79.7168 11.8207C80.2979 11.5824 80.8532 11.2901 81.3756 10.9485C78.3385 8.08781 73.5609 8.08781 70.5239 10.9486Z" fill="#3B4158"/>
</g>
<rect x="123.9" width="33.4113" height="33.4113" rx="5.56856" fill="#F5F7FA"/>
<g clip-path="url(#clip2_211_2510)">
<path d="M162.181 13.585C162.185 13.556 162.185 13.5267 162.181 13.4976C162.185 13.474 162.185 13.4499 162.181 13.4262L161.898 11.3848C161.857 11.1406 161.747 10.9123 161.582 10.7256L161.533 10.67L161.444 10.5826L156.534 6.4364L156.672 6.57144C156.559 6.43927 156.418 6.33355 156.258 6.26207C156.098 6.19059 155.924 6.15517 155.748 6.15841H154.257C154.015 6.1537 153.778 6.22926 153.585 6.37287C153.382 6.23013 153.138 6.15495 152.888 6.15841H151.397C151.202 6.1553 151.009 6.20287 150.838 6.29632C150.668 6.38977 150.525 6.52578 150.425 6.69058C150.271 6.92596 150.213 7.20955 150.263 7.48487L150.45 8.77162C150.326 8.70301 150.186 8.66741 150.044 8.66837H142.826C142.567 8.66996 142.314 8.74439 142.096 8.88282C141.886 9.01167 141.718 9.19618 141.61 9.41499L141.051 8.94636C140.831 8.74678 140.541 8.6386 140.241 8.64454H128.915C128.655 8.64918 128.4 8.72037 128.177 8.85105C127.872 9.02626 127.648 9.31115 127.553 9.64534L123.956 21.4405C123.889 21.6349 123.882 21.8445 123.937 22.0426C123.992 22.2406 124.106 22.4182 124.264 22.5526C124.305 22.5868 124.349 22.6187 124.394 22.6478C124.394 22.6478 124.321 22.6002 124.28 22.5605L129.19 26.7146C129.398 26.9021 129.669 27.0069 129.952 27.0085H141.367C141.628 27.0019 141.882 26.9279 142.105 26.794C142.23 26.7267 142.343 26.6379 142.437 26.5319L142.477 26.4763L142.542 26.3969L142.591 26.3095L143.125 26.7623C143.33 26.9423 143.596 27.0413 143.871 27.0403H155.311C155.571 27.0318 155.825 26.958 156.048 26.8258C156.171 26.7544 156.283 26.6661 156.38 26.5637L156.421 26.5081L156.486 26.4287C156.52 26.3784 156.55 26.3253 156.575 26.2698C156.601 26.2217 156.623 26.1711 156.639 26.1189L159.921 15.3484V15.253C159.925 15.2161 159.925 15.1788 159.921 15.1418V15.0704C159.925 15.0467 159.925 15.0225 159.921 14.9988C159.924 14.9486 159.924 14.8982 159.921 14.8479H160.974C161.066 14.8562 161.158 14.8562 161.249 14.8479H161.322C161.382 14.8306 161.439 14.8066 161.493 14.7764H161.574L161.719 14.6653L161.784 14.6176L161.898 14.4746V14.427L161.979 14.2919C161.974 14.2657 161.974 14.2388 161.979 14.2125C161.974 14.1996 161.974 14.1857 161.979 14.1728C161.996 14.1262 162.009 14.0784 162.019 14.0298C162.015 14.0141 162.015 13.9978 162.019 13.9821C162.015 13.9585 162.015 13.9343 162.019 13.9107C162.019 13.9107 162.181 13.6009 162.181 13.585Z" fill="black"/>
<path d="M140.573 9.55031C140.616 9.58844 140.646 9.63857 140.659 9.69396C140.672 9.74935 140.668 9.80733 140.646 9.86008L137.057 21.6473C137.012 21.776 136.919 21.8836 136.798 21.9492C136.699 22.0141 136.584 22.0524 136.465 22.0604H125.058C124.96 22.0558 124.868 22.0162 124.799 21.9492C124.757 21.9116 124.728 21.8629 124.715 21.8092C124.702 21.7554 124.706 21.6991 124.726 21.6473L128.323 9.86008C128.364 9.72976 128.454 9.61929 128.574 9.55031C128.675 9.49007 128.789 9.45464 128.906 9.44704H140.314C140.41 9.44796 140.503 9.48488 140.573 9.55031ZM134.618 19.2724L136.765 12.235H130.754L128.615 19.2724H134.618ZM151.462 9.66944C151.501 9.71379 151.55 9.74895 151.604 9.77233C151.659 9.79571 151.718 9.8067 151.778 9.80447H153.261C153.317 9.80501 153.373 9.79144 153.422 9.76504C153.472 9.73863 153.514 9.70026 153.544 9.65356C153.571 9.61708 153.589 9.57578 153.599 9.53211C153.609 9.48845 153.609 9.44332 153.601 9.39939L153.309 7.30246C153.282 7.20541 153.232 7.1158 153.164 7.04035C153.125 6.996 153.076 6.96084 153.021 6.93746C152.967 6.91408 152.907 6.9031 152.848 6.90532H151.365C151.308 6.90478 151.253 6.91835 151.203 6.94476C151.154 6.97116 151.112 7.00953 151.081 7.05624C151.025 7.16743 151 7.23892 151.025 7.30246L151.324 9.39939C151.34 9.50149 151.388 9.5961 151.462 9.66944ZM156.169 7.28658C156.142 7.18952 156.092 7.09991 156.023 7.02446C155.986 6.98028 155.939 6.94512 155.886 6.92171C155.832 6.89829 155.774 6.88724 155.716 6.88943H154.225C154.169 6.88788 154.114 6.90109 154.066 6.92766C154.017 6.95422 153.977 6.99317 153.949 7.04035C153.895 7.11081 153.872 7.19933 153.885 7.28658L154.184 9.3835C154.203 9.48453 154.251 9.5782 154.322 9.65356C154.362 9.69703 154.41 9.73161 154.465 9.75491C154.52 9.77822 154.579 9.7897 154.638 9.78858H156.129C156.184 9.7893 156.239 9.77574 156.287 9.74925C156.336 9.72277 156.376 9.6843 156.404 9.63768C156.432 9.60214 156.452 9.56086 156.462 9.51688C156.472 9.4729 156.471 9.42733 156.461 9.3835L156.169 7.28658ZM150.158 10.4637L150.012 9.43116H142.825C142.713 9.43725 142.603 9.47292 142.509 9.53441C142.45 9.56632 142.398 9.61053 142.357 9.66401C142.317 9.7175 142.288 9.77896 142.274 9.84419L141.675 11.814C141.651 11.8632 141.643 11.9185 141.651 11.9724C141.66 12.0262 141.685 12.0762 141.724 12.1159C141.792 12.1788 141.881 12.2155 141.975 12.2191H150.709L148.562 19.2565H139.852C139.74 19.259 139.63 19.292 139.536 19.3518C139.421 19.4232 139.338 19.5335 139.301 19.6616L138.693 21.6315C138.674 21.682 138.668 21.7369 138.678 21.7902C138.688 21.8435 138.713 21.893 138.75 21.9333C138.816 22.0004 138.906 22.0402 139.001 22.0445H150.441C150.56 22.0345 150.674 21.9963 150.773 21.9333C150.893 21.8674 150.983 21.7596 151.025 21.6315L154.314 10.8609H150.611C150.553 10.862 150.494 10.8513 150.44 10.8295C150.386 10.8076 150.336 10.775 150.295 10.7338C150.228 10.6618 150.181 10.5743 150.158 10.4796V10.4637Z" fill="white"/>
</g>
<rect x="185.851" width="33.4113" height="33.4113" rx="5.56856" fill="#F5F7FA"/>
<g clip-path="url(#clip3_211_2510)">
<path d="M216.475 9.33508C216.475 9.35862 216.475 9.38804 216.469 9.40569C216.438 9.63517 216.438 9.86466 216.457 10.1C216.469 10.1589 216.481 10.2177 216.53 10.2648C216.61 10.353 216.733 10.3354 216.782 10.2295C216.806 10.1765 216.806 10.1236 216.794 10.0706C216.733 9.847 216.72 9.61164 216.714 9.38215C216.714 9.37038 216.714 9.35273 216.714 9.33508C216.782 9.32919 216.843 9.32331 216.898 9.32331C216.941 9.31743 216.978 9.31154 217.008 9.29389C217.1 9.24682 217.1 9.14679 217.002 9.09971C216.966 9.08206 216.917 9.07617 216.874 9.07617C216.72 9.08206 216.567 9.08206 216.414 9.08206C216.359 9.08206 216.303 9.08794 216.248 9.09383C216.218 9.09971 216.181 9.09971 216.156 9.11737C216.113 9.13501 216.089 9.16444 216.089 9.20562C216.095 9.24682 216.113 9.27035 216.156 9.28801C216.181 9.30566 216.211 9.31154 216.242 9.31154C216.316 9.31743 216.395 9.32919 216.475 9.33508ZM218.161 9.60575C218.161 9.61164 218.167 9.61752 218.167 9.61752C218.192 9.77639 218.216 9.92938 218.235 10.0824C218.241 10.1353 218.247 10.1824 218.284 10.2236C218.363 10.3236 218.486 10.3119 218.541 10.2059C218.566 10.153 218.572 10.1 218.56 10.0412C218.523 9.86466 218.504 9.68813 218.468 9.51749C218.443 9.41157 218.412 9.31154 218.382 9.2174C218.363 9.15855 218.32 9.11736 218.247 9.11148C218.173 9.09971 218.118 9.13501 218.087 9.18797C218.051 9.23504 218.02 9.28212 217.996 9.33508C217.953 9.42923 217.916 9.52337 217.867 9.61164C217.861 9.63517 217.855 9.65283 217.842 9.67048C217.836 9.65871 217.83 9.65283 217.83 9.65283C217.75 9.50572 217.677 9.35862 217.597 9.2174C217.585 9.20562 217.579 9.19386 217.573 9.18209C217.536 9.12913 217.493 9.09971 217.425 9.09971C217.364 9.10559 217.315 9.1409 217.284 9.19386C217.272 9.2174 217.272 9.23504 217.266 9.25858C217.241 9.44688 217.211 9.63517 217.186 9.82347C217.174 9.92938 217.168 10.0353 217.168 10.1412C217.162 10.1647 217.168 10.1942 217.18 10.2177C217.192 10.2648 217.229 10.2942 217.278 10.3001C217.34 10.306 217.382 10.2883 217.401 10.2412C217.419 10.2059 217.425 10.1765 217.431 10.1471C217.456 10.0412 217.474 9.94115 217.493 9.84112C217.505 9.78228 217.511 9.7352 217.53 9.67048C217.542 9.69402 217.554 9.71167 217.566 9.72932C217.622 9.79993 217.677 9.87054 217.744 9.92938C217.812 9.97645 217.867 9.97057 217.922 9.91761C217.934 9.90584 217.94 9.89996 217.953 9.88819C218.008 9.80581 218.075 9.72344 218.13 9.64105C218.143 9.62929 218.149 9.61752 218.161 9.60575Z" fill="#3A3B7B"/>
<path d="M204.035 9.45074C203.992 9.56257 203.984 9.64314 204.004 9.7101C204.026 9.80116 204.082 9.83097 204.159 9.80781C204.879 9.6369 206.458 10.122 207.042 10.2572C207.18 10.2856 207.292 10.1148 207.198 9.96162C207.061 9.8133 205.483 9.17828 204.88 9.14366C204.644 9.13085 204.222 9.07275 204.035 9.45074Z" fill="#3A3B7B"/>
<path d="M210.206 7.39536C210.283 7.43787 210.326 7.47843 210.347 7.52374C210.379 7.58318 210.362 7.6243 210.309 7.64529C209.833 7.86826 209.2 8.8282 208.944 9.15928C208.882 9.23544 208.739 9.19118 208.717 9.06593C208.722 8.92432 209.283 7.88257 209.597 7.59883C209.72 7.48805 209.923 7.27069 210.206 7.39536Z" fill="#3A3B7B"/>
<path d="M206.415 6.92273C206.508 6.85603 206.603 6.83266 206.652 6.876C207.371 7.4655 207.751 8.39903 207.987 9.25365C207.996 9.27356 207.997 9.30213 207.99 9.33194C207.987 9.35741 207.967 9.38433 207.936 9.40515C207.904 9.42814 207.875 9.43514 207.862 9.41533C207.547 9.00442 205.749 7.40564 206.415 6.92273Z" fill="#3A3B7B"/>
<path d="M191.207 17.1433C191.379 17.0204 191.566 16.918 191.764 16.8385C191.971 16.7817 192.192 16.7911 192.393 16.8654C192.594 16.9397 192.765 17.0748 192.879 17.2503C192.981 17.4254 193.021 17.6275 192.993 17.8263C192.964 18.025 192.87 18.2095 192.723 18.3522C192.609 18.4678 192.48 18.5685 192.338 18.6517C191.709 19.0422 191.073 19.4112 190.438 19.8017C190.308 19.8994 190.17 19.9871 190.026 20.0638C189.806 20.169 189.555 20.1971 189.315 20.1434C189.076 20.0897 188.864 19.9575 188.716 19.7696C188.605 19.6365 188.511 19.4911 188.437 19.3363C187.835 18.1222 187.211 16.9134 186.632 15.6778C186.364 15.143 186.147 14.5278 185.935 13.9341C185.843 13.7616 185.826 13.5617 185.885 13.3767C185.945 13.1917 186.077 13.0364 186.254 12.9437C186.432 12.851 186.639 12.8284 186.834 12.8805C187.028 12.9326 187.193 13.0554 187.295 13.2228C187.607 13.6203 187.882 14.0426 188.12 14.4851C188.722 15.5548 189.296 16.6245 189.875 17.6622C189.909 17.7195 189.946 17.7748 189.987 17.828C190.423 17.6519 190.833 17.4218 191.207 17.1433Z" fill="#3A3B7B"/>
<path d="M197.43 16.7701C196.054 18.3159 193.746 17.9254 192.587 15.9357C191.762 14.5237 191.618 12.1916 193.412 10.7208C193.795 10.4128 194.253 10.203 194.744 10.111C195.345 10.0282 195.959 10.1301 196.496 10.4019C197.034 10.6738 197.468 11.1018 197.737 11.6247C198.717 13.3363 198.578 15.5185 197.43 16.7701ZM196.873 13.1651C196.727 12.7445 196.433 12.3854 196.042 12.1488C195.821 11.9976 195.553 11.924 195.282 11.9406C195.011 11.9572 194.754 12.0628 194.554 12.2398C193.758 12.9191 193.59 14.529 194.17 15.4865C194.244 15.6426 194.352 15.7813 194.488 15.893C194.623 16.0046 194.783 16.0865 194.955 16.1329C195.127 16.1792 195.307 16.189 195.484 16.1614C195.66 16.1338 195.828 16.0696 195.976 15.9732C196.408 15.6517 196.724 15.2091 196.882 14.7068C197.04 14.2045 197.031 13.6675 196.856 13.1705L196.873 13.1651Z" fill="#3A3B7B"/>
<path d="M203.047 13.8387C202.906 13.8678 202.761 13.8696 202.619 13.8438C202.477 13.8181 202.342 13.7655 202.222 13.689C202.117 13.6313 202.027 13.552 201.957 13.4567C201.888 13.3614 201.842 13.2526 201.821 13.138C201.801 13.0234 201.808 12.906 201.84 12.7941C201.873 12.6822 201.931 12.5786 202.011 12.4909C202.149 12.3145 202.345 12.1882 202.568 12.1325C203.149 11.9707 203.747 11.872 204.351 11.8383C204.484 11.8235 204.618 11.8343 204.747 11.87C204.875 11.9058 204.995 11.9658 205.098 12.0465C205.202 12.1272 205.288 12.2271 205.351 12.3401C205.414 12.4531 205.453 12.5772 205.466 12.7048C205.64 13.332 205.659 13.9895 205.521 14.625C205.02 16.6789 203.292 17.3849 201.353 16.727C200.809 16.5511 200.331 16.2234 199.982 15.7857C199.516 15.2585 199.186 14.6338 199.018 13.9618C198.882 13.3633 198.897 12.7423 199.062 12.1505C199.226 11.5588 199.536 11.0134 199.965 10.56C200.373 10.0672 200.901 9.67936 201.503 9.43142C201.884 9.23008 202.329 9.17284 202.752 9.27096C202.848 9.29641 202.935 9.346 203.004 9.41459C203.073 9.48319 203.122 9.56828 203.145 9.66105C203.168 9.75381 203.165 9.85087 203.136 9.94217C203.107 10.0335 203.053 10.1157 202.98 10.1802C202.841 10.3011 202.69 10.4086 202.529 10.5012C202.033 10.804 201.602 11.1942 201.258 11.6511C201.033 11.9468 200.877 12.2863 200.803 12.6458C200.729 13.0052 200.738 13.3759 200.829 13.7318C200.956 14.217 201.236 14.6525 201.632 14.978C202.858 16.0478 204.451 15.0154 204.173 13.5553C203.766 13.6516 203.409 13.7532 203.047 13.8387Z" fill="#3A3B7B"/>
<path d="M210.538 16.8554C208.726 17.9251 206.664 16.8554 206.213 14.6089C205.884 13.0043 206.508 10.7579 208.693 9.90207C209.158 9.72391 209.662 9.66135 210.159 9.72022C210.755 9.82507 211.303 10.107 211.724 10.5264C212.145 10.9457 212.418 11.4813 212.505 12.0576C212.873 13.9671 212.037 16.0049 210.538 16.8554ZM211.167 13.2557C211.167 12.8114 211.003 12.3814 210.705 12.0415C210.545 11.8313 210.315 11.6807 210.053 11.6153C209.791 11.55 209.513 11.574 209.267 11.6832C208.286 12.0897 207.595 13.5659 207.846 14.6517C207.865 14.8221 207.923 14.9865 208.015 15.1332C208.107 15.28 208.232 15.4056 208.38 15.5014C208.528 15.5972 208.696 15.6608 208.872 15.6877C209.049 15.7146 209.229 15.7042 209.401 15.6573C209.919 15.4834 210.368 15.1586 210.685 14.728C211.001 14.2975 211.17 13.7827 211.167 13.2557Z" fill="#3A3B7B"/>
<path d="M214.336 17.305C214.309 17.5008 214.201 17.6781 214.038 17.798C213.874 17.9178 213.668 17.9704 213.464 17.9442C213.26 17.9179 213.075 17.815 212.95 17.658C212.825 17.501 212.771 17.3029 212.798 17.1071C212.825 16.9113 212.932 16.734 213.096 16.6141C213.26 16.4943 213.466 16.4417 213.67 16.4679C213.874 16.4942 214.059 16.5971 214.184 16.7541C214.309 16.9111 214.363 17.1093 214.336 17.305ZM213.851 10.0896C213.957 9.93423 214.113 9.81592 214.294 9.7523C214.476 9.68868 214.675 9.68317 214.86 9.73658C215.048 9.78182 215.215 9.88781 215.331 10.0368C215.448 10.1858 215.508 10.3687 215.501 10.5549C215.476 10.8537 215.43 11.1504 215.361 11.4428C215.178 12.4323 214.999 13.4218 214.804 14.4007C214.715 14.7911 214.598 15.1655 214.47 15.5613C214.425 15.685 214.351 15.7968 214.252 15.8876C214.191 15.9559 214.113 16.0082 214.026 16.0398C213.938 16.0715 213.843 16.0813 213.75 16.0685C213.658 16.0557 213.57 16.0207 213.495 15.9666C213.42 15.9125 213.36 15.8412 213.322 15.7592C213.255 15.6121 213.22 15.4541 213.216 15.2939C213.216 14.6306 213.216 13.9621 213.26 13.2935C213.336 12.3393 213.485 11.3918 213.706 10.4587C213.732 10.3336 213.781 10.2141 213.851 10.1056V10.0896Z" fill="#3A3B7B"/>
<path fill-rule="evenodd" clip-rule="evenodd" d="M188.852 21.603C188.787 21.7439 188.769 21.9011 188.801 22.0524C188.822 22.2518 188.869 22.4479 188.941 22.6362C189.03 22.8669 189.13 23.095 189.253 23.3762C189.281 23.4408 189.311 23.5084 189.342 23.5794C189.508 23.9603 189.716 24.4471 189.994 25.1515C190.073 25.3516 190.143 25.5534 190.213 25.7565C190.242 25.8386 190.27 25.921 190.299 26.0035C190.404 26.2969 190.584 26.5605 190.823 26.7695C190.924 26.8843 191.059 26.968 191.21 27.0098C191.363 27.0525 191.527 27.0498 191.679 27.0021C191.831 26.9543 191.964 26.8638 192.062 26.7421C192.158 26.6229 192.215 26.4792 192.226 26.3291C192.288 26.0367 192.267 25.7335 192.165 25.4516C192.002 24.9835 191.817 24.5147 191.603 24.0562L191.602 24.0542C191.251 23.3368 190.894 22.6245 190.52 21.9118L190.517 21.9068C190.407 21.7211 190.265 21.5552 190.096 21.4163C189.987 21.2924 189.836 21.2088 189.669 21.18C189.498 21.1506 189.323 21.1802 189.173 21.2637C189.031 21.3413 188.919 21.4601 188.852 21.603Z" fill="#3A3B7B"/>
<path fill-rule="evenodd" clip-rule="evenodd" d="M194.219 19.8367C193.668 19.6998 193.093 19.6798 192.533 19.7783C192.1 19.8193 191.673 19.9152 191.377 20.1054C191.227 20.2021 191.105 20.3263 191.037 20.4843C190.969 20.643 190.96 20.8246 191.016 21.0269C191.118 21.3975 191.25 21.7579 191.382 22.117L191.404 22.1752L191.404 22.1765C191.801 23.2199 192.202 24.2598 192.606 25.2961C192.653 25.4595 192.72 25.617 192.805 25.7656L192.806 25.7684C192.919 25.953 193.062 26.1181 193.232 26.2568C193.317 26.333 193.421 26.3858 193.535 26.4094C193.65 26.4331 193.769 26.4262 193.88 26.3894C193.991 26.3525 194.089 26.2871 194.164 26.2003C194.238 26.115 194.286 26.0121 194.304 25.9026C194.377 25.6053 194.353 25.2935 194.236 25.0093C194.2 24.9136 194.171 24.8159 194.141 24.7129C194.131 24.6786 194.121 24.6437 194.11 24.6082C195.036 24.2609 196.021 23.7939 196.367 22.7075C196.503 22.3321 196.514 21.9256 196.4 21.5437C196.285 21.1614 196.05 20.8226 195.726 20.5738C195.286 20.2256 194.771 19.974 194.219 19.8367ZM192.692 21.1692C192.71 21.1642 192.729 21.1595 192.747 21.1552C193.35 21.0642 193.966 21.1854 194.483 21.4963C194.711 21.6483 194.804 21.8173 194.82 21.9799C194.837 22.1473 194.774 22.3287 194.646 22.5031C194.405 22.8325 193.966 23.0961 193.569 23.1453C193.28 22.5058 192.986 21.8405 192.692 21.1692Z" fill="#3A3B7B"/>
<path d="M197.892 18.6664C198.548 18.3756 199.361 18.3253 199.997 18.5298C200.157 18.5746 200.296 18.6714 200.39 18.8038C200.483 18.9353 200.526 19.0938 200.512 19.2523C200.511 19.3551 200.485 19.4563 200.435 19.5476C200.385 19.6406 200.312 19.7205 200.223 19.7807C200.133 19.8408 200.03 19.8795 199.922 19.8933C199.814 19.9072 199.704 19.8958 199.601 19.8602L199.593 19.8574L199.586 19.8537C199.533 19.8273 199.477 19.8075 199.42 19.7945L199.416 19.7938C198.969 19.6797 198.547 19.8687 198.393 20.1009C198.319 20.2116 198.31 20.3233 198.371 20.425C198.437 20.5339 198.598 20.656 198.923 20.7431C199.012 20.7667 199.104 20.7894 199.197 20.8126C199.455 20.8765 199.722 20.9429 199.981 21.035L199.982 21.0354C201.175 21.471 201.619 22.3733 201.467 23.2219C201.316 24.0612 200.586 24.8249 199.488 25.0051C199.088 25.0901 198.672 25.0736 198.281 24.9571C197.89 24.8402 197.536 24.627 197.257 24.3386L197.249 24.331C197.161 24.2223 197.102 24.0947 197.076 23.9592C197.051 23.8369 197.064 23.7106 197.112 23.595C197.16 23.4801 197.241 23.3807 197.345 23.3083C197.456 23.2262 197.589 23.1769 197.728 23.1666C197.867 23.1564 198.006 23.1853 198.127 23.2498C198.249 23.3063 198.362 23.3783 198.464 23.4639L198.466 23.4654C198.646 23.6232 198.863 23.6643 199.072 23.6262C199.283 23.5876 199.482 23.4674 199.61 23.308C199.737 23.1496 199.788 22.9614 199.728 22.7787C199.667 22.5947 199.484 22.3885 199.081 22.2162C198.976 22.1733 198.867 22.1387 198.753 22.105C198.722 22.0959 198.691 22.0869 198.66 22.0777C198.576 22.0533 198.489 22.0281 198.405 22.0003C198.346 21.9812 198.289 21.9632 198.231 21.9452C198.075 21.8963 197.922 21.8486 197.775 21.7846C197.455 21.6801 197.179 21.4794 196.987 21.2122C196.795 20.944 196.698 20.6233 196.711 20.298C196.712 19.5051 197.232 18.9588 197.892 18.6664Z" fill="#3A3B7B"/>
<path d="M206.21 18.5816C206.083 18.522 205.942 18.4937 205.8 18.4992C205.659 18.5048 205.521 18.5441 205.4 18.6136C205.279 18.6826 205.177 18.7792 205.105 18.8949C205.038 18.9923 204.992 19.1012 204.969 19.2155C204.946 19.3298 204.947 19.4473 204.971 19.5613C204.995 19.7078 205.021 19.8503 205.047 19.9908C205.09 20.2234 205.132 20.4507 205.159 20.6825L205.16 20.6883C205.223 21.0518 205.256 21.4194 205.259 21.7878L205.259 21.7931C205.28 22.1909 205.139 22.581 204.866 22.8806L204.861 22.8859C204.772 22.9954 204.653 23.079 204.517 23.1273C204.382 23.1756 204.235 23.1867 204.093 23.1594C203.951 23.132 203.82 23.0674 203.714 22.9725C203.608 22.8777 203.532 22.7561 203.494 22.6221C203.412 22.3397 203.365 22.0491 203.353 21.7563L203.492 19.6339C203.494 19.6062 203.497 19.5777 203.499 19.549C203.504 19.4846 203.51 19.4189 203.512 19.3577C203.515 19.2676 203.512 19.1749 203.49 19.0872C203.468 18.9975 203.425 18.9123 203.35 18.8396C203.275 18.7677 203.174 18.7147 203.047 18.6786C202.817 18.6148 202.623 18.6168 202.461 18.6827C202.299 18.7487 202.189 18.8711 202.11 19.0124C202.032 19.1526 201.982 19.3186 201.944 19.4849C201.916 19.6083 201.894 19.7378 201.872 19.861C201.865 19.9035 201.857 19.9452 201.85 19.9857L201.85 19.9869C201.735 20.663 201.701 21.3494 201.748 22.0329C201.757 22.4022 201.837 22.7668 201.985 23.108C202.151 23.5482 202.453 23.9297 202.85 24.202C203.248 24.4748 203.723 24.6251 204.212 24.6331C204.701 24.641 205.181 24.5062 205.588 24.2465C205.995 23.9871 206.31 23.6154 206.492 23.1805C206.747 22.6266 206.866 22.0241 206.842 21.4191C206.827 20.9774 206.802 20.5323 206.777 20.0894C206.764 19.8722 206.752 19.6554 206.741 19.44C206.736 19.2239 206.662 19.0147 206.529 18.8403C206.446 18.7301 206.337 18.6412 206.21 18.5816Z" fill="#3A3B7B"/>
<path d="M210.712 21.9098C210.699 21.9256 210.686 21.9418 210.671 21.9588C210.568 21.3859 210.472 20.8131 210.376 20.2395C210.342 20.0337 210.307 19.827 210.272 19.621L210.268 19.598L210.255 19.5781C210.231 19.5407 210.229 19.5041 210.229 19.4259V19.4168L210.228 19.4079C210.202 19.2465 210.126 19.0962 210.009 18.9768C209.893 18.8578 209.743 18.7749 209.577 18.739C209.412 18.6998 209.238 18.7085 209.078 18.7638C208.918 18.819 208.779 18.9182 208.677 19.0489C208.593 19.1492 208.524 19.2605 208.472 19.3795C208.355 19.6356 208.236 19.8925 208.117 20.15L208.115 20.1544C207.818 20.7973 207.52 21.4445 207.229 22.0968L207.229 22.0989C207.05 22.5218 206.903 22.9675 206.757 23.4118C206.728 23.5004 206.698 23.5891 206.669 23.6775C206.616 23.8177 206.593 23.9666 206.601 24.1155C206.591 24.2487 206.624 24.3817 206.696 24.4963C206.769 24.6133 206.879 24.7054 207.009 24.7595C207.147 24.8177 207.302 24.8301 207.448 24.7946C207.594 24.7593 207.724 24.6783 207.817 24.5646C207.936 24.4244 208.038 24.2715 208.121 24.1096C208.367 23.6271 208.602 23.1386 208.836 22.6523C208.926 22.4642 209.014 22.2958 209.114 22.1123C209.121 22.1349 209.128 22.157 209.135 22.1791C209.24 22.6221 209.417 23.0463 209.66 23.4364C209.705 23.519 209.769 23.5912 209.847 23.6481C209.925 23.7056 210.016 23.746 210.112 23.7665C210.209 23.787 210.309 23.7871 210.405 23.7668C210.502 23.7465 210.593 23.7061 210.671 23.6488L210.827 23.5371L212.033 22.5614L211.962 22.9979C211.864 23.598 211.767 24.193 211.664 24.7882C211.596 25.052 211.596 25.3275 211.664 25.5912C211.693 25.7396 211.768 25.8762 211.879 25.9837C211.99 26.092 212.133 26.1656 212.289 26.1949C212.445 26.2243 212.606 26.208 212.752 26.1482C212.896 26.0894 213.018 25.9909 213.104 25.8655C213.303 25.6285 213.427 25.3416 213.461 25.039C213.512 24.6116 213.57 24.1784 213.628 23.7453C213.694 23.2461 213.761 22.747 213.817 22.2576L213.817 22.2561C213.872 21.7203 213.898 21.1823 213.896 20.6439C213.908 20.4738 213.864 20.3043 213.77 20.1595C213.675 20.0142 213.536 19.9012 213.371 19.8365C213.199 19.7616 213.006 19.7415 212.822 19.7794C212.638 19.817 212.473 19.9098 212.348 20.0442C212.125 20.2418 211.917 20.4532 211.723 20.6771L211.722 20.6787C211.51 20.9316 211.3 21.1895 211.091 21.4457C210.964 21.6014 210.838 21.7568 210.712 21.9098Z" fill="#3A3B7B"/>
</g>
<rect x="247.801" width="33.4113" height="33.4113" rx="5.56856" fill="#F5F7FA"/>
<g clip-path="url(#clip4_211_2510)">
<path d="M274.556 8.1376C274.556 8.46196 274.822 8.72491 275.151 8.72491H275.745C276.074 8.72491 276.34 8.46196 276.34 8.1376C276.34 7.81324 276.074 7.55029 275.745 7.55029H275.151C274.822 7.55029 274.556 7.81324 274.556 8.1376Z" fill="#212326"/>
<path d="M257.314 26.3442H260.202L259.361 25.5136C259.138 25.2933 258.836 25.1695 258.52 25.1695H257.314C252.717 25.1695 248.99 21.4883 248.99 16.9472C248.99 12.4062 252.717 8.72491 257.314 8.72491H266.827C271.424 8.72491 275.151 12.4062 275.151 16.9472C275.151 21.4883 271.424 25.1695 266.827 25.1695H263.268C262.795 25.1695 262.341 24.9839 262.007 24.6535L261.022 23.6804C260.464 23.1297 259.708 22.8203 258.92 22.8203H257.314C254.03 22.8203 251.368 20.1909 251.368 16.9472C251.368 13.7036 254.03 11.0741 257.314 11.0741H266.827C270.11 11.0741 272.772 13.7036 272.772 16.9472C272.772 20.1909 270.11 22.8203 266.827 22.8203H264.542C264.069 22.8203 263.615 22.6347 263.28 22.3043L262.295 21.3312C261.738 20.7805 260.982 20.4711 260.193 20.4711H257.314C255.344 20.4711 253.746 18.8934 253.746 16.9472C253.746 15.0011 255.344 13.4234 257.314 13.4234H266.827C268.797 13.4234 270.394 15.0011 270.394 16.9472C270.394 18.8697 268.836 20.4326 266.899 20.4704L266.898 20.4711H266.028C265.555 20.4711 265.101 20.2854 264.767 19.955L263.782 18.9819C263.324 18.5301 262.733 18.2407 262.1 18.1514L262.07 18.1218H257.314C256.657 18.1218 256.125 17.5959 256.125 16.9472C256.125 16.2985 256.657 15.7726 257.314 15.7726H266.827C267.483 15.7726 268.016 16.2985 268.016 16.9472C268.016 17.5959 267.483 18.1218 266.827 18.1218H264.448L265.289 18.9524C265.512 19.1727 265.815 19.2965 266.13 19.2965H266.827C268.14 19.2965 269.205 18.2447 269.205 16.9472C269.205 15.6498 268.14 14.598 266.827 14.598H257.314C256 14.598 254.935 15.6498 254.935 16.9472C254.935 18.2447 256 19.2965 257.314 19.2965H261.68C262.153 19.2965 262.606 19.4821 262.941 19.8125L263.926 20.7856C264.484 21.3363 265.24 21.6457 266.028 21.6457H267.124V21.6367C269.612 21.4851 271.583 19.4435 271.583 16.9472C271.583 14.3524 269.454 12.2488 266.827 12.2488H257.314C254.687 12.2488 252.557 14.3524 252.557 16.9472C252.557 19.5421 254.687 21.6457 257.314 21.6457H260.193C260.666 21.6457 261.12 21.8313 261.455 22.1617L262.44 23.1348C262.997 23.6855 263.753 23.9949 264.542 23.9949H266.827C270.767 23.9949 273.961 20.8396 273.961 16.9472C273.961 13.0549 270.767 9.89953 266.827 9.89953H257.314C253.373 9.89953 250.179 13.0549 250.179 16.9472C250.179 20.8396 253.373 23.9949 257.314 23.9949H258.92C259.393 23.9949 259.846 24.1806 260.181 24.511L261.166 25.4841C261.724 26.0348 262.48 26.3442 263.268 26.3442H266.827C272.081 26.3442 276.34 22.137 276.34 16.9472C276.34 11.7574 272.081 7.55029 266.827 7.55029L257.314 7.55029C252.06 7.5503 247.801 11.7574 247.801 16.9472C247.801 22.137 252.06 26.3442 257.314 26.3442Z" fill="#212326"/>
</g>
<rect x="309.751" width="33.4113" height="33.4113" rx="5.56856" fill="#F5F7FA"/>
<g clip-path="url(#clip5_211_2510)">
<path d="M318.343 9.63818C316.929 9.63818 315.574 10.1997 314.574 11.1992L311.312 14.4612C310.312 15.4607 309.751 16.8163 309.751 18.2299C309.751 21.1734 312.137 23.5596 315.081 23.5596C316.494 23.5596 317.85 22.998 318.849 21.9985L321.106 19.7422C321.106 19.7421 321.106 19.7422 321.106 19.7422L327.68 13.168C328.157 12.6906 328.805 12.4225 329.48 12.4225C330.61 12.4225 331.568 13.1591 331.9 14.1784L333.975 12.1036C333.029 10.6212 331.369 9.63818 329.48 9.63818C328.066 9.63818 326.711 10.1997 325.711 11.1992L316.881 20.0298C316.403 20.5071 315.756 20.7753 315.081 20.7753C313.675 20.7753 312.535 19.6357 312.535 18.2299C312.535 17.5548 312.803 16.9073 313.281 16.43L316.543 13.168C317.02 12.6906 317.668 12.4225 318.343 12.4225C319.473 12.4225 320.431 13.1591 320.763 14.1785L322.838 12.1037C321.892 10.6212 320.232 9.63818 318.343 9.63818Z" fill="#394149"/>
<path d="M328.018 20.0298C327.54 20.5071 326.893 20.7753 326.218 20.7753C325.088 20.7753 324.13 20.0389 323.797 19.0197L321.723 21.0944C322.669 22.5767 324.329 23.5596 326.218 23.5596C327.631 23.5596 328.987 22.998 329.987 21.9985L338.817 13.168C339.294 12.6906 339.942 12.4225 340.617 12.4225C342.023 12.4225 343.162 13.5621 343.162 14.9679C343.162 15.643 342.894 16.2904 342.417 16.7678L339.155 20.0298C338.678 20.5071 338.03 20.7753 337.355 20.7753C336.225 20.7753 335.267 20.0387 334.934 19.0194L332.86 21.0942C333.806 22.5766 335.466 23.5596 337.355 23.5596C338.769 23.5596 340.124 22.998 341.124 21.9985L344.386 18.7366C345.385 17.737 345.947 16.3814 345.947 14.9679C345.947 12.0244 343.561 9.63818 340.617 9.63818C339.203 9.63818 337.848 10.1997 336.848 11.1992L328.018 20.0298Z" fill="#394149"/>
</g>
<defs>
<clipPath id="clip0_211_2510">
<rect width="27.8428" height="27.8428" fill="white" transform="translate(0.246094 0.135254)"/>
</clipPath>
<clipPath id="clip1_211_2510">
<rect width="27.8428" height="19.4899" fill="white" transform="translate(62.0283 6.854)"/>
</clipPath>
<clipPath id="clip2_211_2510">
<rect width="38.2838" height="20.8821" fill="white" transform="translate(123.9 6.1582)"/>
</clipPath>
<clipPath id="clip3_211_2510">
<rect width="32.7153" height="20.186" fill="white" transform="translate(185.851 6.854)"/>
</clipPath>
<clipPath id="clip4_211_2510">
<rect width="28.5388" height="18.7939" fill="white" transform="translate(247.801 7.55029)"/>
</clipPath>
<clipPath id="clip5_211_2510">
<rect width="36.1956" height="13.9214" fill="white" transform="translate(309.751 9.63818)"/>
</clipPath>
</defs>
</svg>
