<svg width="37" height="34" viewBox="0 0 37 34" fill="none" xmlns="http://www.w3.org/2000/svg">
<g clip-path="url(#clip0_211_2076)">
<path d="M8.59168 9.63843C7.17815 9.63843 5.82253 10.1999 4.82302 11.1995L1.56103 14.4614C0.561519 15.461 0 16.8166 0 18.2301C0 21.1736 2.38619 23.5598 5.32971 23.5598C6.74324 23.5598 8.09886 22.9983 9.09837 21.9988L11.3547 19.7424C11.3547 19.7424 11.3547 19.7425 11.3547 19.7424L17.9289 13.1682C18.4063 12.6909 19.0537 12.4227 19.7288 12.4227C20.859 12.4227 21.8172 13.1593 22.1494 14.1787L24.2242 12.1039C23.2777 10.6214 21.6181 9.63843 19.7288 9.63843C18.3153 9.63843 16.9596 10.1999 15.9601 11.1995L7.12961 20.03C6.65224 20.5074 6.00481 20.7755 5.32971 20.7755C3.9239 20.7755 2.78428 19.6359 2.78428 18.2301C2.78428 17.555 3.05245 16.9076 3.52981 16.4302L6.79178 13.1682C7.26915 12.6909 7.91658 12.4227 8.59168 12.4227C9.72196 12.4227 10.6801 13.1594 11.0123 14.1788L13.0872 12.1039C12.1407 10.6215 10.481 9.63843 8.59168 9.63843Z" fill="#394149"/>
<path d="M18.2668 20.03C17.7895 20.5074 17.142 20.7755 16.4669 20.7755C15.3368 20.7755 14.3787 20.0391 14.0464 19.0199L11.9717 21.0947C12.9182 22.5769 14.5778 23.5598 16.4669 23.5598C17.8805 23.5598 19.2361 22.9983 20.2356 21.9988L29.0661 13.1682C29.5435 12.6909 30.1909 12.4227 30.866 12.4227C32.2718 12.4227 33.4115 13.5623 33.4115 14.9681C33.4115 15.6432 33.1433 16.2907 32.6659 16.768L29.4039 20.03C28.9266 20.5074 28.2791 20.7755 27.6041 20.7755C26.4739 20.7755 25.5157 20.039 25.1834 19.0197L23.1087 21.0945C24.0552 22.5769 25.7148 23.5598 27.6041 23.5598C29.0176 23.5598 30.3732 22.9983 31.3727 21.9988L34.6347 18.7368C35.6342 17.7373 36.1957 16.3817 36.1957 14.9681C36.1957 12.0246 33.8096 9.63843 30.866 9.63843C29.4525 9.63843 28.0969 10.1999 27.0974 11.1995L18.2668 20.03Z" fill="#394149"/>
</g>
<defs>
<clipPath id="clip0_211_2076">
<rect width="36.1956" height="13.9214" fill="white" transform="translate(0 9.63843)"/>
</clipPath>
</defs>
</svg>
