<svg width="34" height="34" viewBox="0 0 34 34" fill="none" xmlns="http://www.w3.org/2000/svg">
<g clip-path="url(#clip0_211_2046)">
<path fill-rule="evenodd" clip-rule="evenodd" d="M9.74487 2.78418C13.5891 2.78418 16.7056 5.90059 16.7056 9.74487V2.78418H23.6663C27.5105 2.78418 30.627 5.90059 30.627 9.74487C30.627 13.5891 27.5105 16.7056 23.6663 16.7056C27.5105 16.7056 30.627 19.822 30.627 23.6663C30.627 25.5751 29.8586 27.3045 28.6143 28.562L28.5882 28.5882L28.5651 28.6112C27.3073 29.8573 25.5767 30.627 23.6663 30.627C21.7688 30.627 20.0487 29.8678 18.7931 28.6365C18.7768 28.6205 18.7605 28.6044 18.7443 28.5882C18.729 28.573 18.7139 28.5577 18.6988 28.5423C17.466 27.2865 16.7056 25.5651 16.7056 23.6663C16.7056 27.5105 13.5891 30.627 9.74487 30.627C5.90059 30.627 2.78418 27.5105 2.78418 23.6663V16.7056H9.74487C5.90059 16.7056 2.78418 13.5891 2.78418 9.74487C2.78418 5.90059 5.90059 2.78418 9.74487 2.78418ZM15.3134 9.74487C15.3134 12.8203 12.8203 15.3134 9.74487 15.3134V4.17632C12.8203 4.17632 15.3134 6.66944 15.3134 9.74487ZM29.2348 23.6663C29.2348 20.5908 26.7417 18.0977 23.6663 18.0977C20.5908 18.0977 18.0977 20.5908 18.0977 23.6663H29.2348ZM4.17632 18.0977V23.6663C4.17632 26.7417 6.66944 29.2348 9.74487 29.2348C12.8203 29.2348 15.3134 26.7417 15.3134 23.6663V18.0977H4.17632ZM18.0977 15.3134V4.17632H23.6663C26.7417 4.17632 29.2348 6.66944 29.2348 9.74487C29.2348 12.8203 26.7417 15.3134 23.6663 15.3134H18.0977Z" fill="#263238"/>
</g>
<defs>
<clipPath id="clip0_211_2046">
<rect width="27.8428" height="27.8428" fill="white" transform="translate(2.78418 2.78418)"/>
</clipPath>
</defs>
</svg>
