<svg width="34" height="34" viewBox="0 0 34 34" fill="none" xmlns="http://www.w3.org/2000/svg">
<g clip-path="url(#clip0_211_2056)">
<path d="M31.3208 9.33532C31.3208 9.35886 31.3208 9.38828 31.3147 9.40593C31.284 9.63542 31.284 9.8649 31.3024 10.1003C31.3147 10.1591 31.3269 10.218 31.376 10.265C31.4557 10.3533 31.5783 10.3356 31.6273 10.2297C31.6519 10.1768 31.6519 10.1238 31.6396 10.0708C31.5783 9.84725 31.566 9.61188 31.5599 9.38239C31.5599 9.37063 31.5599 9.35297 31.5599 9.33532C31.6273 9.32944 31.6887 9.32355 31.7438 9.32355C31.7868 9.31767 31.8235 9.31178 31.8542 9.29413C31.9461 9.24706 31.9461 9.14703 31.848 9.09996C31.8112 9.0823 31.7622 9.07642 31.7193 9.07642C31.566 9.0823 31.4128 9.0823 31.2595 9.0823C31.2043 9.0823 31.1491 9.08819 31.0939 9.09407C31.0633 9.09996 31.0265 9.09996 31.002 9.11761C30.9591 9.13526 30.9346 9.16468 30.9346 9.20587C30.9407 9.24706 30.9591 9.2706 31.002 9.28825C31.0265 9.3059 31.0572 9.31178 31.0878 9.31178C31.1614 9.31767 31.2411 9.32944 31.3208 9.33532ZM33.0068 9.606C33.0068 9.61188 33.0129 9.61776 33.0129 9.61776C33.0374 9.77664 33.062 9.92963 33.0803 10.0826C33.0865 10.1356 33.0926 10.1826 33.1294 10.2238C33.2091 10.3239 33.3317 10.3121 33.3869 10.2062C33.4114 10.1532 33.4175 10.1003 33.4053 10.0414C33.3685 9.8649 33.3501 9.68837 33.3133 9.51773C33.2888 9.41182 33.2581 9.31178 33.2275 9.21764C33.2091 9.1588 33.1662 9.1176 33.0926 9.11172C33.019 9.09996 32.9639 9.13526 32.9332 9.18822C32.8964 9.23529 32.8658 9.28236 32.8412 9.33532C32.7983 9.42947 32.7615 9.52362 32.7125 9.61188C32.7063 9.63542 32.7002 9.65307 32.688 9.67072C32.6818 9.65895 32.6757 9.65307 32.6757 9.65307C32.596 9.50597 32.5224 9.35886 32.4427 9.21764C32.4305 9.20587 32.4243 9.1941 32.4182 9.18233C32.3814 9.12938 32.3385 9.09996 32.2711 9.09996C32.2098 9.10584 32.1607 9.14114 32.1301 9.1941C32.1178 9.21764 32.1178 9.23529 32.1117 9.25883C32.0871 9.44712 32.0565 9.63542 32.032 9.82371C32.0197 9.92963 32.0136 10.0355 32.0136 10.1415C32.0074 10.165 32.0136 10.1944 32.0258 10.218C32.0381 10.265 32.0749 10.2944 32.1239 10.3003C32.1852 10.3062 32.2281 10.2886 32.2465 10.2415C32.2649 10.2062 32.2711 10.1768 32.2772 10.1473C32.3017 10.0414 32.3201 9.9414 32.3385 9.84136C32.3508 9.78252 32.3569 9.73545 32.3753 9.67072C32.3875 9.69426 32.3998 9.71191 32.4121 9.72956C32.4672 9.80018 32.5224 9.87079 32.5899 9.92963C32.6573 9.9767 32.7125 9.97082 32.7677 9.91786C32.7799 9.90609 32.7861 9.90021 32.7983 9.88844C32.8535 9.80606 32.9209 9.72368 32.9761 9.6413C32.9884 9.62953 32.9945 9.61776 33.0068 9.606Z" fill="#3A3B7B"/>
<path d="M18.8806 9.45099C18.838 9.56281 18.8298 9.64338 18.8495 9.71034C18.8713 9.8014 18.9277 9.83121 19.0042 9.80805C19.7243 9.63714 21.3034 10.1223 21.888 10.2575C22.0259 10.2858 22.1381 10.115 22.044 9.96186C21.9067 9.81354 20.3283 9.17852 19.7261 9.1439C19.49 9.1311 19.068 9.073 18.8806 9.45099Z" fill="#3A3B7B"/>
<path d="M25.0519 7.39536C25.1286 7.43787 25.1716 7.47843 25.1927 7.52374C25.2243 7.58318 25.2076 7.6243 25.1546 7.64529C24.6786 7.86826 24.0452 8.8282 23.7895 9.15928C23.7275 9.23544 23.5846 9.19118 23.563 9.06593C23.5674 8.92432 24.1289 7.88257 24.4423 7.59883C24.5654 7.48805 24.7689 7.27069 25.0519 7.39536Z" fill="#3A3B7B"/>
<path d="M21.2611 6.92273C21.3533 6.85603 21.4491 6.83266 21.4981 6.876C22.2162 7.4655 22.5971 8.39903 22.8329 9.25365C22.8418 9.27356 22.8424 9.30213 22.8353 9.33194C22.8323 9.35741 22.8129 9.38433 22.7821 9.40515C22.7492 9.42814 22.7209 9.43514 22.7076 9.41533C22.3928 9.00442 20.595 7.40564 21.2611 6.92273Z" fill="#3A3B7B"/>
<path d="M6.05271 17.1431C6.22484 17.0201 6.41197 16.9177 6.60999 16.8382C6.81718 16.7814 7.038 16.7908 7.23911 16.8651C7.44017 16.9395 7.61061 17.0746 7.72456 17.2501C7.82649 17.4252 7.86635 17.6273 7.83822 17.826C7.81008 18.0247 7.71544 18.2093 7.5685 18.3519C7.45461 18.4675 7.32529 18.5682 7.18401 18.6515C6.55428 19.0419 5.91895 19.411 5.28366 19.8014C5.15366 19.8991 5.01576 19.9868 4.87126 20.0635C4.65148 20.1687 4.4003 20.1969 4.16115 20.1432C3.92201 20.0895 3.70995 19.9572 3.56164 19.7693C3.45077 19.6363 3.3572 19.4908 3.283 19.3361C2.68113 18.1219 2.05697 16.9131 1.47739 15.6776C1.2099 15.1427 0.992555 14.5276 0.780787 13.9339C0.689166 13.7614 0.671275 13.5614 0.730922 13.3764C0.79057 13.1915 0.92305 13.0361 1.10018 12.9434C1.27732 12.8508 1.48512 12.8281 1.67942 12.8802C1.87371 12.9323 2.03915 13.0552 2.14056 13.2225C2.45227 13.6201 2.72819 14.0424 2.96535 14.4848C3.56721 15.5546 4.14122 16.6243 4.72079 17.6619C4.75454 17.7193 4.79175 17.7746 4.83225 17.8277C5.26848 17.6517 5.67878 17.4215 6.05271 17.1431Z" fill="#3A3B7B"/>
<path d="M12.2757 16.7699C10.8993 18.3156 8.59208 17.9252 7.43293 15.9355C6.60813 14.5234 6.46325 12.1914 8.25773 10.7205C8.64092 10.4126 9.09912 10.2028 9.58961 10.1108C10.191 10.028 10.8043 10.1298 11.3417 10.4017C11.8792 10.6736 12.3134 11.1015 12.5823 11.6244C13.5631 13.336 13.4237 15.5183 12.2757 16.7699ZM11.7184 13.1649C11.5722 12.7443 11.2788 12.3852 10.8881 12.1486C10.667 11.9973 10.3983 11.9238 10.1273 11.9404C9.85629 11.9569 9.59952 12.0626 9.40014 12.2395C8.60325 12.9188 8.43603 14.5288 9.0156 15.4862C9.08949 15.6423 9.19796 15.7811 9.33355 15.8927C9.46913 16.0044 9.6285 16.0863 9.80049 16.1326C9.97247 16.179 10.1529 16.1887 10.3293 16.1612C10.5056 16.1335 10.6735 16.0693 10.8212 15.9729C11.2532 15.6515 11.5701 15.2088 11.7279 14.7066C11.8858 14.2043 11.8766 13.6673 11.7018 13.1702L11.7184 13.1649Z" fill="#3A3B7B"/>
<path d="M17.8928 13.839C17.7519 13.8681 17.6063 13.8698 17.4647 13.8441C17.3231 13.8183 17.1882 13.7657 17.0681 13.6892C16.963 13.6315 16.8725 13.5522 16.8031 13.4569C16.7338 13.3616 16.6874 13.2528 16.6671 13.1382C16.6468 13.0236 16.6533 12.9062 16.686 12.7943C16.7187 12.6824 16.7769 12.5789 16.8563 12.4911C16.9946 12.3147 17.191 12.1885 17.4136 12.1328C17.9947 11.9709 18.5928 11.8722 19.1969 11.8386C19.3296 11.8238 19.4641 11.8345 19.5924 11.8703C19.7207 11.9061 19.8403 11.966 19.9441 12.0468C20.0479 12.1275 20.1339 12.2273 20.197 12.3403C20.2601 12.4534 20.299 12.5774 20.3115 12.7051C20.4856 13.3322 20.5047 13.9898 20.3672 14.6253C19.8656 16.6791 18.138 17.3852 16.1987 16.7273C15.6543 16.5514 15.177 16.2236 14.8278 15.7859C14.362 15.2588 14.0318 14.6341 13.8637 13.962C13.7275 13.3635 13.7424 12.7426 13.9072 12.1508C14.072 11.559 14.3819 11.0136 14.811 10.5602C15.2183 10.0674 15.7469 9.6796 16.3492 9.43166C16.7297 9.23033 17.1751 9.17308 17.5975 9.2712C17.6933 9.29665 17.7803 9.34625 17.8494 9.41484C17.9185 9.48343 17.9673 9.56852 17.9906 9.66129C18.0139 9.75405 18.0109 9.85112 17.982 9.94241C17.953 10.0337 17.8992 10.1159 17.826 10.1805C17.6868 10.3014 17.5356 10.4089 17.3746 10.5014C16.8791 10.8042 16.448 11.1944 16.1039 11.6514C15.8784 11.947 15.7231 12.2866 15.649 12.646C15.5748 13.0055 15.5837 13.3762 15.6749 13.732C15.8012 14.2172 16.0817 14.6527 16.4773 14.9782C17.7034 16.048 19.2972 15.0157 19.0186 13.5555C18.6118 13.6518 18.2551 13.7534 17.8928 13.839Z" fill="#3A3B7B"/>
<path d="M25.3833 16.8556C23.5721 17.9254 21.5102 16.8556 21.0588 14.6092C20.73 13.0046 21.3541 10.7581 23.5387 9.90232C24.0035 9.72415 24.5076 9.6616 25.0044 9.72046C25.6011 9.82531 26.1486 10.1073 26.5695 10.5266C26.9904 10.946 27.2636 11.4815 27.3505 12.0578C27.7183 13.9673 26.8824 16.0052 25.3833 16.8556ZM26.0131 13.2559C26.0125 12.8116 25.8487 12.3817 25.5505 12.0418C25.3911 11.8316 25.1606 11.681 24.8985 11.6156C24.6362 11.5503 24.3586 11.5742 24.1127 11.6834C23.1319 12.0899 22.4408 13.5662 22.6916 14.652C22.7108 14.8224 22.7685 14.9867 22.8607 15.1335C22.9529 15.2802 23.0774 15.4059 23.2255 15.5017C23.3735 15.5974 23.5417 15.661 23.718 15.6879C23.8944 15.7148 24.0747 15.7045 24.2464 15.6575C24.7649 15.4837 25.2138 15.1588 25.5305 14.7283C25.8472 14.2977 26.0159 13.783 26.0131 13.2559Z" fill="#3A3B7B"/>
<path d="M29.1817 17.305C29.1543 17.5008 29.0471 17.6781 28.8836 17.798C28.72 17.9178 28.5135 17.9704 28.3095 17.9442C28.1056 17.9179 27.9208 17.815 27.796 17.658C27.671 17.501 27.6163 17.3029 27.6436 17.1071C27.6709 16.9113 27.7782 16.734 27.9417 16.6141C28.1053 16.4943 28.3118 16.4417 28.5157 16.4679C28.7197 16.4942 28.9044 16.5971 29.0294 16.7541C29.1543 16.9111 29.2091 17.1093 29.1817 17.305ZM28.6968 10.0896C28.8028 9.93423 28.9583 9.81592 29.1401 9.7523C29.3219 9.68868 29.5202 9.68317 29.7056 9.73658C29.8939 9.78182 30.0604 9.88781 30.1771 10.0368C30.2937 10.1858 30.3535 10.3687 30.3464 10.5549C30.3219 10.8537 30.2753 11.1504 30.2071 11.4428C30.0232 12.4323 29.8449 13.4218 29.6498 14.4007C29.5607 14.7911 29.4436 15.1655 29.3154 15.5613C29.2709 15.685 29.1964 15.7968 29.0981 15.8876C29.037 15.9559 28.959 16.0082 28.8713 16.0398C28.7835 16.0715 28.6889 16.0813 28.5961 16.0685C28.5033 16.0557 28.4154 16.0207 28.3404 15.9666C28.2655 15.9125 28.206 15.8412 28.1675 15.7592C28.1012 15.6121 28.0652 15.4541 28.0616 15.2939C28.0616 14.6306 28.0616 13.9621 28.1061 13.2935C28.1819 12.3393 28.3309 11.3918 28.552 10.4587C28.578 10.3336 28.627 10.2141 28.6968 10.1056V10.0896Z" fill="#3A3B7B"/>
<path fill-rule="evenodd" clip-rule="evenodd" d="M3.69808 21.603C3.63228 21.7439 3.61423 21.9011 3.64639 22.0524C3.66778 22.2518 3.71476 22.4479 3.78627 22.6362C3.87554 22.8669 3.97544 23.095 4.09862 23.3762C4.12695 23.4408 4.15655 23.5084 4.18753 23.5794C4.35364 23.9603 4.56206 24.4471 4.84007 25.1515C4.91876 25.3516 4.98863 25.5534 5.059 25.7565C5.08742 25.8386 5.11595 25.921 5.14515 26.0035C5.24982 26.2969 5.42993 26.5605 5.66865 26.7695C5.77002 26.8843 5.90448 26.968 6.05525 27.0098C6.20897 27.0525 6.37245 27.0498 6.52453 27.0021C6.67661 26.9543 6.81018 26.8638 6.90791 26.7421C7.00372 26.6229 7.06069 26.4792 7.07176 26.3291C7.13392 26.0367 7.11271 25.7335 7.01026 25.4516C6.84767 24.9835 6.66245 24.5147 6.44887 24.0562L6.44788 24.0542C6.09652 23.3368 5.73937 22.6245 5.36531 21.9118L5.36251 21.9068C5.25301 21.7211 5.1107 21.5552 4.94198 21.4163C4.83245 21.2924 4.68137 21.2088 4.51452 21.18C4.34412 21.1506 4.16837 21.1802 4.01865 21.2637C3.87703 21.3413 3.76476 21.4601 3.69808 21.603Z" fill="#3A3B7B"/>
<path fill-rule="evenodd" clip-rule="evenodd" d="M9.06484 19.8365C8.51392 19.6996 7.93855 19.6796 7.37884 19.7781C6.94531 19.819 6.51894 19.915 6.22287 20.1051C6.07228 20.2019 5.95054 20.3261 5.88281 20.484C5.81472 20.6428 5.80603 20.8244 5.86183 21.0267C5.96371 21.3973 6.09602 21.7576 6.22787 22.1168L6.24923 22.175L6.24974 22.1762C6.64672 23.2197 7.04748 24.2596 7.45189 25.2959C7.49904 25.4592 7.56573 25.6168 7.65061 25.7654L7.6522 25.7681C7.76432 25.9527 7.90812 26.1178 8.07754 26.2565C8.16227 26.3328 8.26706 26.3855 8.38067 26.4091C8.49541 26.4329 8.61473 26.426 8.72563 26.3891C8.83658 26.3523 8.93482 26.2869 9.00969 26.2001C9.08335 26.1147 9.13158 26.0119 9.14929 25.9024C9.22239 25.605 9.19897 25.2933 9.08213 25.009C9.04568 24.9134 9.01708 24.8156 8.98693 24.7127C8.97688 24.6784 8.9667 24.6435 8.95595 24.6079C9.88165 24.2606 10.8666 23.7936 11.213 22.7073C11.3486 22.3319 11.3599 21.9253 11.2453 21.5435C11.1306 21.1612 10.8953 20.8223 10.5718 20.5736C10.1315 20.2254 9.61717 19.9738 9.06484 19.8365ZM7.53774 21.169C7.55597 21.164 7.57433 21.1593 7.59275 21.1549C8.19541 21.064 8.812 21.1852 9.32899 21.496C9.55683 21.6481 9.65016 21.8171 9.66619 21.9797C9.68274 22.1471 9.61932 22.3285 9.49192 22.5028C9.25118 22.8322 8.81186 23.0959 8.41502 23.145C8.12573 22.5056 7.83194 21.8403 7.53774 21.169Z" fill="#3A3B7B"/>
<path d="M12.7378 18.6661C13.3939 18.3753 14.2066 18.3251 14.8425 18.5296C15.0027 18.5743 15.1416 18.6712 15.2356 18.8035C15.329 18.9351 15.3721 19.0936 15.3577 19.252C15.3567 19.3549 15.3304 19.4561 15.2809 19.5474C15.2305 19.6403 15.1576 19.7203 15.0682 19.7804C14.9789 19.8406 14.8757 19.8793 14.7675 19.8931C14.6593 19.9069 14.5492 19.8956 14.4465 19.8599L14.4387 19.8572L14.4314 19.8535C14.3789 19.8271 14.3231 19.8072 14.2653 19.7943L14.2617 19.7935C13.8143 19.6795 13.3924 19.8684 13.2382 20.1006C13.1647 20.2113 13.1556 20.3231 13.2168 20.4247C13.2824 20.5336 13.4432 20.6558 13.7686 20.7429C13.8581 20.7664 13.9499 20.7892 14.0429 20.8123C14.3003 20.8763 14.5677 20.9427 14.8263 21.0348L14.8273 21.0351C16.0202 21.4708 16.4645 22.3731 16.3124 23.2217C16.1619 24.0609 15.4317 24.8247 14.3335 25.0049C13.9339 25.0899 13.5181 25.0733 13.1271 24.9568C12.7352 24.84 12.3819 24.6268 12.1024 24.3383L12.0951 24.3308C12.0069 24.2221 11.9475 24.0944 11.9212 23.959C11.897 23.8367 11.9098 23.7103 11.9579 23.5948C12.0058 23.4799 12.0867 23.3805 12.1912 23.308C12.3015 23.2259 12.4345 23.1767 12.5737 23.1664C12.7125 23.1561 12.8513 23.1851 12.9732 23.2496C13.0949 23.306 13.2081 23.378 13.3097 23.4636L13.3116 23.4652C13.4914 23.6229 13.7088 23.6641 13.9174 23.626C14.1289 23.5873 14.3279 23.4672 14.4558 23.3078C14.583 23.1494 14.634 22.9612 14.5734 22.7785C14.5125 22.5945 14.3292 22.3883 13.9266 22.2159C13.8214 22.173 13.7122 22.1384 13.5987 22.1048C13.5681 22.0957 13.537 22.0867 13.5055 22.0775C13.4215 22.053 13.3352 22.0278 13.2505 22.0001C13.1921 21.981 13.1343 21.9629 13.077 21.945C12.9204 21.896 12.7677 21.8483 12.6208 21.7843C12.3009 21.6798 12.0246 21.4791 11.833 21.212C11.6405 20.9438 11.5437 20.6231 11.5569 20.2977C11.5579 19.5048 12.0782 18.9586 12.7378 18.6661Z" fill="#3A3B7B"/>
<path d="M21.0554 18.5816C20.9282 18.522 20.7876 18.4937 20.6461 18.4992C20.5047 18.5048 20.3669 18.5441 20.2452 18.6136C20.1243 18.6826 20.0231 18.7792 19.9506 18.8949C19.8841 18.9923 19.838 19.1012 19.8151 19.2155C19.7921 19.3298 19.7927 19.4473 19.8167 19.5613C19.8404 19.7078 19.8666 19.8503 19.8926 19.9908C19.9355 20.2234 19.9773 20.4507 20.0049 20.6825L20.0059 20.6883C20.0687 21.0518 20.1015 21.4194 20.1045 21.7878L20.1047 21.7931C20.1262 22.1909 19.985 22.581 19.7113 22.8806L19.707 22.8859C19.6179 22.9954 19.4989 23.079 19.3631 23.1273C19.2274 23.1756 19.0804 23.1867 18.9384 23.1594C18.7965 23.132 18.6653 23.0674 18.5595 22.9725C18.4537 22.8777 18.3774 22.7561 18.3393 22.6221C18.258 22.3397 18.2109 22.0491 18.1989 21.7563L18.3378 19.6339C18.3399 19.6062 18.3422 19.5777 18.3446 19.549C18.3499 19.4846 18.3553 19.4189 18.3576 19.3577C18.3608 19.2676 18.358 19.1749 18.3362 19.0872C18.3138 18.9975 18.2712 18.9123 18.1957 18.8396C18.1209 18.7677 18.0199 18.7147 17.8929 18.6786C17.6632 18.6148 17.469 18.6168 17.3071 18.6827C17.1452 18.7487 17.0342 18.8711 16.9557 19.0124C16.8778 19.1526 16.8277 19.3186 16.7899 19.4849C16.7618 19.6083 16.7392 19.7378 16.7178 19.861C16.7103 19.9035 16.7031 19.9452 16.6958 19.9857L16.6956 19.9869C16.5808 20.663 16.5466 21.3494 16.5937 22.0329C16.6025 22.4022 16.6828 22.7668 16.8305 23.108C16.9971 23.5482 17.2988 23.9297 17.696 24.202C18.0939 24.4748 18.5688 24.6251 19.0578 24.6331C19.5467 24.641 20.0266 24.5062 20.434 24.2465C20.8407 23.9871 21.1559 23.6154 21.3379 23.1805C21.5924 22.6266 21.712 22.0241 21.6873 21.4191C21.6724 20.9774 21.6473 20.5323 21.6224 20.0894C21.6102 19.8722 21.598 19.6554 21.587 19.44C21.5815 19.2239 21.5073 19.0147 21.3743 18.8403C21.292 18.7301 21.1824 18.6412 21.0554 18.5816Z" fill="#3A3B7B"/>
<path d="M25.5578 21.9096C25.5449 21.9253 25.5313 21.9416 25.5171 21.9585C25.4136 21.3856 25.3177 20.8129 25.2217 20.2393C25.1873 20.0335 25.1526 19.8268 25.1178 19.6207L25.1139 19.5977L25.1012 19.5779C25.0772 19.5405 25.0748 19.5038 25.0748 19.4256V19.4166L25.0734 19.4077C25.0474 19.2462 24.9713 19.096 24.8551 18.9766C24.7392 18.8575 24.5886 18.7747 24.423 18.7387C24.2577 18.6996 24.084 18.7082 23.9237 18.7635C23.7639 18.8187 23.6246 18.9179 23.5232 19.0487C23.4389 19.149 23.3697 19.2603 23.318 19.3792C23.2004 19.6354 23.0818 19.8922 22.9629 20.1497L22.9609 20.1542C22.6641 20.7971 22.3652 21.4442 22.0751 22.0965L22.0742 22.0986C21.8961 22.5216 21.7491 22.9672 21.6026 23.4115C21.5733 23.5002 21.544 23.5888 21.5145 23.6772C21.4616 23.8174 21.4385 23.9663 21.4465 24.1152C21.4368 24.2485 21.4701 24.3814 21.5417 24.4961C21.6148 24.6131 21.7243 24.7051 21.8548 24.7593C21.993 24.8175 22.1476 24.8298 22.294 24.7944C22.4401 24.759 22.5698 24.6781 22.6628 24.5643C22.7815 24.4242 22.8836 24.2713 22.9669 24.1093C23.2127 23.6268 23.4476 23.1384 23.6814 22.6521C23.7719 22.464 23.8598 22.2955 23.9598 22.1121C23.9667 22.1347 23.9737 22.1568 23.981 22.1789C24.0858 22.6218 24.2627 23.0461 24.5052 23.4361C24.5511 23.5188 24.6151 23.591 24.6926 23.6478C24.7712 23.7054 24.8618 23.7457 24.9582 23.7662C25.0546 23.7867 25.1545 23.7868 25.251 23.7665C25.3473 23.7462 25.4382 23.7058 25.5168 23.6486L25.6723 23.5368L26.8791 22.5612L26.8078 22.9977C26.7098 23.5977 26.6126 24.1928 26.5093 24.7879C26.4417 25.0517 26.4418 25.3273 26.5096 25.591C26.539 25.7394 26.6137 25.876 26.7244 25.9834C26.836 26.0918 26.9789 26.1653 27.1347 26.1947C27.2904 26.224 27.4517 26.2078 27.5977 26.148C27.7415 26.0891 27.8639 25.9907 27.9494 25.8652C28.1484 25.6283 28.2723 25.3414 28.3063 25.0387C28.3575 24.6113 28.4154 24.1781 28.4733 23.745C28.54 23.2458 28.6067 22.7468 28.663 22.2573L28.6632 22.2558C28.7174 21.72 28.7436 21.182 28.7418 20.6437C28.7536 20.4736 28.7095 20.3041 28.6155 20.1593C28.5211 20.0139 28.3814 19.9009 28.2162 19.8363C28.0444 19.7613 27.8521 19.7413 27.6675 19.7792C27.4842 19.8168 27.3182 19.9096 27.1937 20.0439C26.9711 20.2415 26.7623 20.453 26.5686 20.6769L26.5673 20.6784C26.3558 20.9313 26.1458 21.1892 25.9371 21.4454C25.8102 21.6012 25.6837 21.7566 25.5578 21.9096Z" fill="#3A3B7B"/>
</g>
<defs>
<clipPath id="clip0_211_2056">
<rect width="32.7153" height="20.186" fill="white" transform="translate(0.696289 6.854)"/>
</clipPath>
</defs>
</svg>
