<svg width="34" height="34" viewBox="0 0 34 34" fill="none" xmlns="http://www.w3.org/2000/svg">
<g clip-path="url(#clip0_211_2072)">
<path d="M29.5396 8.13736C29.5396 8.46172 29.8057 8.72466 30.1341 8.72466H30.7287C31.0571 8.72466 31.3232 8.46172 31.3232 8.13736C31.3232 7.813 31.0571 7.55005 30.7287 7.55005H30.1341C29.8057 7.55005 29.5396 7.813 29.5396 8.13736Z" fill="#212326"/>
<path d="M12.2971 26.3439H15.1854L14.3446 25.5133C14.1216 25.2931 13.8191 25.1693 13.5038 25.1693H12.2971C7.7 25.1693 3.9733 21.4881 3.9733 16.947C3.9733 12.4059 7.7 8.72467 12.2971 8.72467H21.8101C26.4072 8.72467 30.1339 12.4059 30.1339 16.947C30.1339 21.4881 26.4072 25.1693 21.8101 25.1693H18.2515C17.7784 25.1693 17.3247 24.9837 16.9902 24.6533L16.0051 23.6802C15.4476 23.1295 14.6914 22.8201 13.903 22.8201H12.2971C9.01345 22.8201 6.35154 20.1906 6.35154 16.947C6.35154 13.7034 9.01345 11.0739 12.2971 11.0739H21.8101C25.0938 11.0739 27.7557 13.7034 27.7557 16.947C27.7557 20.1906 25.0938 22.8201 21.8101 22.8201H19.5251C19.052 22.8201 18.5984 22.6344 18.2638 22.304L17.2787 21.3309C16.7212 20.7802 15.9651 20.4708 15.1767 20.4708H12.2971C10.327 20.4708 8.72977 18.8931 8.72977 16.947C8.72977 15.0008 10.327 13.4231 12.2971 13.4231H21.8101C23.7803 13.4231 25.3774 15.0008 25.3774 16.947C25.3774 18.8694 23.819 20.4323 21.882 20.4701L21.8816 20.4708H21.0115C20.5384 20.4708 20.0848 20.2852 19.7502 19.9548L18.7651 18.9817C18.3077 18.5298 17.7165 18.2404 17.0835 18.1511L17.0536 18.1216H12.2971C11.6404 18.1216 11.108 17.5957 11.108 16.947C11.108 16.2983 11.6404 15.7724 12.2971 15.7724H21.8101C22.4668 15.7724 22.9992 16.2983 22.9992 16.947C22.9992 17.5957 22.4668 18.1216 21.8101 18.1216H19.4318L20.2727 18.9522C20.4957 19.1725 20.7981 19.2962 21.1135 19.2962H21.8101C23.1235 19.2962 24.1883 18.2444 24.1883 16.947C24.1883 15.6496 23.1235 14.5978 21.8101 14.5978H12.2971C10.9837 14.5978 9.91889 15.6496 9.91889 16.947C9.91889 18.2444 10.9837 19.2962 12.2971 19.2962H16.663C17.1361 19.2962 17.5898 19.4819 17.9243 19.8123L18.9094 20.7854C19.4669 21.3361 20.2231 21.6455 21.0115 21.6455H22.1074V21.6364C24.5958 21.4849 26.5666 19.4432 26.5666 16.947C26.5666 14.3521 24.437 12.2485 21.8101 12.2485H12.2971C9.67022 12.2485 7.54065 14.3521 7.54065 16.947C7.54065 19.5419 9.67022 21.6455 12.2971 21.6455H15.1767C15.6497 21.6455 16.1034 21.8311 16.4379 22.1615L17.423 23.1346C17.9805 23.6853 18.7367 23.9947 19.5251 23.9947H21.8101C25.7505 23.9947 28.9448 20.8393 28.9448 16.947C28.9448 13.0546 25.7505 9.89928 21.8101 9.89928H12.2971C8.35672 9.89928 5.16242 13.0546 5.16242 16.947C5.16242 20.8393 8.35672 23.9947 12.2971 23.9947H13.903C14.3761 23.9947 14.8298 24.1803 15.1643 24.5107L16.1494 25.4838C16.7069 26.0345 17.463 26.3439 18.2515 26.3439H21.8101C27.0639 26.3439 31.323 22.1368 31.323 16.947C31.323 11.7572 27.0639 7.55005 21.8101 7.55005L12.2971 7.55005C7.04327 7.55005 2.78418 11.7572 2.78418 16.947C2.78418 22.1368 7.04327 26.3439 12.2971 26.3439Z" fill="#212326"/>
</g>
<defs>
<clipPath id="clip0_211_2072">
<rect width="28.5388" height="18.7939" fill="white" transform="translate(2.78418 7.55005)"/>
</clipPath>
</defs>
</svg>
