<svg width="34" height="34" viewBox="0 0 34 34" fill="none" xmlns="http://www.w3.org/2000/svg">
<g clip-path="url(#clip0_211_2049)">
<path fill-rule="evenodd" clip-rule="evenodd" d="M9.73498 9.71806L2.78418 16.599C4.17447 17.9753 5.76265 19.1352 7.49423 20.0427C7.97285 21.2995 8.72307 22.4782 9.74487 23.4897C13.5892 27.2953 19.822 27.2953 23.6663 23.4897C24.6881 22.4782 25.4383 21.2995 25.9169 20.0426C27.6485 19.1352 29.2367 17.9753 30.627 16.599L23.6818 9.72366C23.6766 9.71852 23.6715 9.71337 23.6663 9.70823C19.822 5.90259 13.5892 5.90259 9.74487 9.70823C9.74158 9.71151 9.73828 9.71478 9.73498 9.71806ZM23.0012 21.2841C20.9756 21.9609 18.8493 22.3074 16.7056 22.3074C14.5619 22.3074 12.4356 21.9609 10.41 21.2841C10.6295 21.5724 10.8718 21.849 11.137 22.1116C14.2125 25.1561 19.1987 25.1561 22.2741 22.1116C22.5393 21.849 22.7817 21.5724 23.0012 21.2841ZM11.2798 10.9486C11.802 11.2901 12.3574 11.5824 12.9384 11.8207C14.1328 12.3104 15.4128 12.5625 16.7056 12.5625C17.9983 12.5625 19.2784 12.3104 20.4727 11.8207C21.0538 11.5824 21.6091 11.2901 22.1314 10.9485C19.0943 8.08781 14.3168 8.08781 11.2798 10.9486Z" fill="#3B4158"/>
</g>
<defs>
<clipPath id="clip0_211_2049">
<rect width="27.8428" height="19.4899" fill="white" transform="translate(2.78418 6.854)"/>
</clipPath>
</defs>
</svg>
