<svg width="308" height="302" viewBox="0 0 308 302" fill="none" xmlns="http://www.w3.org/2000/svg">
<path d="M153.669 265.199C219.49 265.199 272.848 262.084 272.848 258.241C272.848 254.398 219.49 251.283 153.669 251.283C87.8477 251.283 34.4893 254.398 34.4893 258.241C34.4893 262.084 87.8477 265.199 153.669 265.199Z" fill="#F5F5F5"/>
<path d="M214.675 102.845L208.578 100.386C208.578 100.386 200.532 115.059 198.227 115.802C195.092 116.81 188.601 119.613 184.753 120.105C184.23 120.72 183.376 122.631 183.456 123.326C188.625 125.053 199.985 122.76 202.419 120.953C207.957 116.853 214.675 102.845 214.675 102.845Z" fill="#E58A7B"/>
<path d="M216.55 99.5072C217.687 103.705 211.528 112.151 211.528 112.151L203.458 107.627C203.458 107.627 204.97 104.154 206.814 100.62C209.77 94.9095 215.253 94.7189 216.55 99.5072Z" fill="#4CAF4F"/>
<path opacity="0.2" d="M216.55 99.5072C217.687 103.705 211.528 112.151 211.528 112.151L203.458 107.627C203.458 107.627 204.97 104.154 206.814 100.62C209.77 94.9095 215.253 94.7189 216.55 99.5072Z" fill="black"/>
<path opacity="0.2" d="M206.66 109.434L209.838 111.217L210.397 101.462C208.547 102.882 207.244 107.16 206.66 109.434Z" fill="black"/>
<path d="M211.239 96.3475C211.239 96.3475 204.957 110.325 208.62 136.351H233.373C233.767 132.552 232.464 114.013 237.178 96.114C234.463 95.5833 231.715 95.2322 228.954 95.0629C225.451 94.8599 221.939 94.8599 218.437 95.0629C216.009 95.3094 213.602 95.7389 211.239 96.3475Z" fill="#4CAF4F"/>
<path opacity="0.2" d="M211.239 96.3475C211.239 96.3475 204.957 110.325 208.62 136.351H233.373C233.767 132.552 232.464 114.013 237.178 96.114C234.463 95.5833 231.715 95.2322 228.954 95.0629C225.451 94.8599 221.939 94.8599 218.437 95.0629C216.009 95.3094 213.602 95.7389 211.239 96.3475Z" fill="black"/>
<path d="M205.498 258.794C205.461 259.458 214.847 259.993 226.459 259.993C238.07 259.993 247.523 259.458 247.56 258.794C247.597 258.13 238.217 257.602 226.6 257.602C214.983 257.602 205.541 258.136 205.498 258.794Z" fill="#E8ECF1"/>
<path d="M222.021 241.351L217.63 243.051L221.412 252.82L225.802 251.121L222.021 241.351Z" fill="#E58A7B"/>
<path d="M241.598 254.067H236.969L235.273 243.354H239.901L241.598 254.067Z" fill="#E58A7B"/>
<path d="M236.65 253.532H241.85C241.94 253.533 242.027 253.565 242.096 253.623C242.165 253.682 242.21 253.763 242.225 253.852L242.895 257.964C242.909 258.067 242.901 258.172 242.871 258.272C242.84 258.372 242.789 258.464 242.72 258.542C242.652 258.62 242.567 258.682 242.472 258.725C242.377 258.767 242.274 258.789 242.169 258.788C240.356 258.757 239.483 258.646 237.197 258.646C235.789 258.646 232.894 258.794 230.939 258.794C228.985 258.794 228.856 256.876 229.661 256.698C233.275 255.917 234.677 254.854 235.881 253.821C236.094 253.635 236.367 253.532 236.65 253.532Z" fill="#263238"/>
<path d="M221.283 251.946L226.2 250.508C226.288 250.483 226.381 250.489 226.465 250.525C226.549 250.561 226.618 250.624 226.661 250.705L228.505 254.393C228.548 254.486 228.57 254.588 228.569 254.691C228.569 254.794 228.546 254.896 228.502 254.989C228.458 255.082 228.394 255.164 228.315 255.23C228.236 255.296 228.144 255.344 228.044 255.37C226.255 255.862 225.057 256.163 222.819 256.815C221.277 257.263 219.703 257.995 218.179 258.48C217.121 258.819 214.638 258.831 213.353 258.831C211.454 258.831 211.03 256.827 211.847 256.735C213.907 256.507 214.183 256.612 215.32 256.04C217.181 255.227 218.867 254.062 220.287 252.61C220.555 252.305 220.898 252.076 221.283 251.946Z" fill="#263238"/>
<path d="M185.527 120.08L180.438 117.947L178.342 123.59C180.428 123.908 182.55 123.908 184.636 123.59L185.527 120.08Z" fill="#E58A7B"/>
<path d="M176.651 117.8L176.516 121.549L178.342 123.578L180.438 117.935L176.651 117.8Z" fill="#E58A7B"/>
<path d="M222.623 242.181L218.219 243.881L220.17 248.933L224.574 247.233L222.623 242.181Z" fill="#CF6F64"/>
<path d="M239.901 243.354H235.273L236.152 248.879H240.78L239.901 243.354Z" fill="#CF6F64"/>
<path opacity="0.2" d="M207.834 129.313C207.926 130.425 208.031 131.562 208.166 132.73L226.569 126.756C229.443 125.904 231.941 124.098 233.65 121.635C233.724 119.994 233.816 118.267 233.958 116.466C234.019 115.593 234.093 114.696 234.173 113.786C234.253 112.876 234.363 111.868 234.48 110.897L207.834 129.313Z" fill="black"/>
<path d="M213.845 109.151L213.23 109.077C213.593 106.004 215.886 103.582 218.302 103.644V104.258C216.187 104.215 214.171 106.397 213.845 109.151Z" fill="white"/>
<path d="M217.122 114.825H217.017V114.21C219.132 114.29 221.117 112.084 221.443 109.336L222.057 109.41C221.732 112.415 219.513 114.825 217.122 114.825Z" fill="white"/>
<path d="M228.61 83.2183C227.743 86.6051 226.723 92.8072 228.954 95.0631C228.954 95.0631 227.393 98.4991 221.105 98.4991C215.357 98.4991 218.437 95.0631 218.437 95.0631C222.26 94.1656 222.328 91.375 221.824 88.7319L228.61 83.2183Z" fill="#E58A7B"/>
<path d="M225.844 85.4678L221.83 88.7317C221.954 89.3391 222.026 89.956 222.045 90.5757C223.219 91.7436 225.573 88.787 225.813 87.2749C225.935 86.6796 225.945 86.0669 225.844 85.4678Z" fill="#CF6F64"/>
<path d="M214.927 83.1753C215.206 83.6594 215.582 84.0807 216.032 84.4128C216.481 84.7449 216.995 84.9807 217.539 85.1054C219.015 85.4312 219.752 84.0728 219.346 82.7082C218.984 81.4788 217.773 79.8254 216.273 80.1081C215.952 80.1743 215.651 80.3165 215.396 80.5228C215.141 80.7291 214.939 80.9935 214.807 81.2939C214.676 81.5942 214.618 81.9218 214.638 82.2491C214.659 82.5765 214.758 82.8941 214.927 83.1753Z" fill="#CF6F64"/>
<path d="M217.368 72.3386C215.069 73.3897 214.257 82.5238 217.146 83.8761C220.035 85.2283 221.719 70.3409 217.368 72.3386Z" fill="#263238"/>
<path d="M229.311 78.1229C228.758 82.7083 228.696 85.4068 226.237 87.7548C225.475 88.534 224.513 89.0875 223.456 89.3542C222.4 89.6209 221.29 89.5904 220.25 89.266C219.209 88.9417 218.279 88.3362 217.561 87.5163C216.843 86.6964 216.365 85.6941 216.181 84.62C215.438 80.5016 216.464 73.6972 221.062 71.8716C222.028 71.4455 223.09 71.2856 224.139 71.4083C225.188 71.5311 226.184 71.9321 227.026 72.5698C227.867 73.2075 228.523 74.0587 228.925 75.0351C229.326 76.0115 229.46 77.0776 229.311 78.1229Z" fill="#E58A7B"/>
<path d="M221.756 74.7112C225.161 73.8445 227.663 73.2544 226.766 76.088C225.579 79.8744 224.153 83.5379 226.065 83.7039C227.233 83.8084 232.396 81.6201 231.738 79.4011C231.167 77.4711 233.582 76.9424 234.013 75.9651C235.605 72.4246 231.05 72.8917 231.861 70.7404C232.673 68.589 228.173 65.1222 225.715 66.8495C221.713 69.6401 214.847 69.5971 218.455 65.0055C221.043 61.7292 216.427 62.3992 216.427 62.3992C216.427 62.3992 219.217 64.0527 214.521 66.6098C209.555 69.3389 214.109 76.672 221.756 74.7112Z" fill="#263238"/>
<path d="M231.118 83.1753C230.446 84.1481 229.436 84.8361 228.284 85.1054C226.766 85.4312 226.182 84.0728 226.754 82.7082C227.264 81.4788 228.665 79.8254 230.116 80.1081C231.567 80.3909 231.898 81.9706 231.118 83.1753Z" fill="#E58A7B"/>
<path d="M208.62 136.351C208.62 136.351 204.465 173.538 204.139 187.651C203.808 202.33 218.222 248.129 218.222 248.129L225.598 245.056C225.598 245.056 216.992 203.209 218.222 188.795C219.525 173.077 224.909 136.375 224.909 136.375L208.62 136.351Z" fill="#4CAF4F"/>
<path opacity="0.2" d="M218.947 146.56C215.634 153.432 217.865 167.023 219.66 175.075C220.343 169.389 221.154 163.218 221.922 157.508C221.849 148.73 221.166 141.95 218.947 146.56Z" fill="black"/>
<path d="M225.272 242.622C225.309 242.622 226.145 244.97 226.145 244.97L217.638 248.548L216.298 246.052L225.272 242.622Z" fill="#4CAF4F"/>
<path d="M217.404 136.351C217.404 136.351 220.582 171.719 222.684 184.965C224.996 199.478 234.056 247.81 234.056 247.81H242.532C242.532 247.81 237.455 200.652 236.496 186.281C235.451 170.692 233.374 136.351 233.374 136.351H217.404Z" fill="#4CAF4F"/>
<path d="M242.661 245.603C242.698 245.603 242.944 247.97 242.944 247.97H233.626L232.962 245.253L242.661 245.603Z" fill="#4CAF4F"/>
<path opacity="0.2" d="M239.416 242.8C239.396 242.8 239.378 242.794 239.363 242.781C239.348 242.769 239.339 242.751 239.336 242.732C239.286 242.302 234.707 199.705 233.847 186.797C232.912 172.795 231.031 141.735 231.013 141.422C231.012 141.412 231.013 141.401 231.017 141.392C231.02 141.382 231.025 141.373 231.032 141.366C231.039 141.358 231.048 141.352 231.057 141.348C231.066 141.344 231.077 141.342 231.087 141.342C231.107 141.342 231.126 141.349 231.141 141.363C231.156 141.377 231.165 141.395 231.167 141.416C231.167 141.729 233.066 172.764 234 186.791C234.861 199.699 239.44 242.265 239.483 242.726C239.485 242.736 239.485 242.747 239.482 242.757C239.479 242.767 239.475 242.776 239.468 242.784C239.462 242.792 239.454 242.799 239.445 242.804C239.436 242.809 239.426 242.812 239.416 242.812V242.8Z" fill="black"/>
<path d="M222.279 79.4012C222.279 79.7762 222.045 80.0774 221.799 80.0774C221.553 80.0774 221.375 79.7762 221.4 79.4012C221.424 79.0263 221.633 78.7251 221.879 78.7251C222.125 78.7251 222.303 79.0324 222.279 79.4012Z" fill="#263238"/>
<path d="M218.062 79.4012C218.062 79.7762 217.822 80.0774 217.583 80.0774C217.343 80.0774 217.159 79.7762 217.177 79.4012C217.195 79.0263 217.417 78.7251 217.663 78.7251C217.909 78.7251 218.087 79.0324 218.062 79.4012Z" fill="#263238"/>
<path d="M219.39 79.5918C218.877 80.7368 218.215 81.8093 217.423 82.782C218.038 83.3966 219.187 83.1139 219.187 83.1139L219.39 79.5918Z" fill="#DF5753"/>
<path d="M219.5 84.6811C219.486 84.6811 219.472 84.6782 219.459 84.6726C219.446 84.667 219.434 84.6587 219.424 84.6483C219.414 84.638 219.407 84.6257 219.402 84.6123C219.397 84.5989 219.395 84.5847 219.396 84.5705C219.397 84.5406 219.41 84.5124 219.432 84.4918C219.454 84.4712 219.483 84.4598 219.512 84.4598C219.983 84.4631 220.447 84.361 220.873 84.161C221.298 83.961 221.674 83.6683 221.971 83.3042C221.992 83.2856 222.02 83.2754 222.048 83.2754C222.076 83.2754 222.104 83.2856 222.125 83.3042C222.145 83.3248 222.156 83.3524 222.156 83.3811C222.156 83.4097 222.145 83.4373 222.125 83.4579C221.806 83.8448 221.405 84.1555 220.951 84.3671C220.497 84.5788 220.001 84.6861 219.5 84.6811Z" fill="#263238"/>
<path d="M223.028 78.2703C222.999 78.2854 222.966 78.2933 222.933 78.2933C222.9 78.2933 222.867 78.2854 222.838 78.2703C222.608 78.1216 222.346 78.0292 222.074 78.0003C221.802 77.9715 221.526 78.0071 221.271 78.1043C221.246 78.1168 221.218 78.1242 221.19 78.126C221.163 78.1278 221.135 78.124 221.108 78.1148C221.082 78.1056 221.058 78.0913 221.037 78.0726C221.016 78.0539 221 78.0313 220.988 78.006C220.965 77.9513 220.964 77.8898 220.986 77.8347C221.008 77.7796 221.05 77.7352 221.105 77.7109C221.426 77.5797 221.774 77.5279 222.12 77.56C222.465 77.5921 222.798 77.7072 223.09 77.8953C223.113 77.9114 223.134 77.9319 223.149 77.9558C223.165 77.9796 223.175 78.0064 223.181 78.0344C223.186 78.0624 223.185 78.0912 223.179 78.119C223.173 78.1468 223.162 78.1732 223.145 78.1965C223.114 78.2318 223.074 78.2574 223.028 78.2703Z" fill="#263238"/>
<path d="M216.433 77.0406C216.4 77.0327 216.37 77.0156 216.347 76.9914C216.326 76.9714 216.31 76.9475 216.299 76.9211C216.288 76.8947 216.282 76.8664 216.282 76.8378C216.282 76.8091 216.288 76.7808 216.299 76.7544C216.31 76.728 216.326 76.7041 216.347 76.6841C216.582 76.4198 216.876 76.2136 217.204 76.0814C217.533 75.9492 217.887 75.8946 218.24 75.9219C218.268 75.9262 218.295 75.9364 218.32 75.9516C218.344 75.9669 218.365 75.9869 218.381 76.0106C218.397 76.0342 218.408 76.0609 218.413 76.089C218.419 76.1171 218.418 76.146 218.412 76.1739C218.399 76.2308 218.365 76.281 218.318 76.3149C218.27 76.3489 218.212 76.3643 218.154 76.3583C217.875 76.3407 217.595 76.3869 217.336 76.4934C217.077 76.5999 216.846 76.7639 216.66 76.973C216.632 77.0041 216.596 77.0269 216.556 77.0388C216.516 77.0507 216.473 77.0513 216.433 77.0406Z" fill="#263238"/>
<path d="M239.557 102.163L233.164 100.46C233.164 100.46 226.895 115.894 224.676 116.896C221.664 118.273 214.036 123.043 210.79 125.299C210.612 126.067 210.753 128.102 211.159 128.661C216.691 127.653 227.282 123.578 229.495 121.506C234.541 116.78 239.557 102.163 239.557 102.163Z" fill="#E58A7B"/>
<path d="M235.095 254.344C234.783 254.369 234.472 254.284 234.216 254.104C234.137 254.033 234.078 253.942 234.044 253.841C234.011 253.739 234.004 253.631 234.025 253.526C234.029 253.461 234.051 253.398 234.087 253.344C234.124 253.29 234.175 253.247 234.234 253.219C234.751 252.955 236.195 253.871 236.361 253.975C236.379 253.986 236.393 254.003 236.401 254.023C236.409 254.043 236.41 254.065 236.404 254.086C236.399 254.107 236.388 254.127 236.373 254.143C236.358 254.159 236.339 254.171 236.318 254.178C235.917 254.276 235.507 254.332 235.095 254.344ZM234.48 253.385C234.434 253.375 234.385 253.375 234.339 253.385C234.315 253.397 234.296 253.416 234.283 253.439C234.27 253.461 234.263 253.488 234.265 253.514C234.249 253.586 234.251 253.66 234.273 253.73C234.295 253.8 234.334 253.864 234.388 253.914C234.628 254.129 235.23 254.153 236.023 254C235.551 253.689 235.019 253.479 234.462 253.385H234.48Z" fill="#4CAF4F"/>
<path d="M236.287 254.178C236.271 254.183 236.254 254.183 236.238 254.178C235.777 253.92 234.91 252.906 235.039 252.389C235.059 252.307 235.105 252.234 235.171 252.182C235.236 252.13 235.318 252.101 235.402 252.1C235.484 252.089 235.568 252.096 235.648 252.121C235.728 252.145 235.801 252.186 235.863 252.242C236.373 252.678 236.404 254.018 236.404 254.086C236.407 254.106 236.403 254.127 236.393 254.144C236.383 254.162 236.367 254.176 236.349 254.184C236.328 254.188 236.307 254.186 236.287 254.178ZM235.463 252.303H235.42C235.279 252.303 235.261 252.383 235.254 252.414C235.181 252.715 235.728 253.483 236.183 253.846C236.181 253.327 236.02 252.821 235.722 252.395C235.65 252.333 235.558 252.3 235.463 252.303Z" fill="#4CAF4F"/>
<path d="M218.775 253.575C218.399 253.707 217.989 253.707 217.613 253.575C217.528 253.529 217.455 253.462 217.403 253.38C217.35 253.299 217.319 253.205 217.312 253.108C217.304 253.048 217.312 252.986 217.335 252.929C217.357 252.872 217.394 252.821 217.441 252.783C217.933 252.34 219.943 252.783 220.17 252.869C220.192 252.874 220.211 252.887 220.224 252.905C220.238 252.923 220.245 252.945 220.244 252.967C220.245 252.99 220.239 253.013 220.227 253.032C220.215 253.052 220.197 253.068 220.176 253.078C219.724 253.282 219.255 253.448 218.775 253.575ZM217.773 252.844C217.703 252.858 217.637 252.89 217.582 252.936C217.563 252.951 217.548 252.971 217.539 252.994C217.53 253.016 217.528 253.041 217.533 253.065C217.537 253.13 217.557 253.192 217.592 253.247C217.626 253.302 217.674 253.347 217.73 253.379C218.056 253.551 218.812 253.416 219.789 253.004C219.131 252.838 218.449 252.784 217.773 252.844Z" fill="#4CAF4F"/>
<path d="M220.158 253.078H220.109C219.494 252.967 218.265 252.26 218.228 251.731C218.228 251.609 218.283 251.436 218.578 251.338C218.678 251.303 218.784 251.288 218.889 251.294C218.995 251.3 219.098 251.328 219.193 251.375C219.857 251.701 220.207 252.881 220.226 252.936C220.23 252.955 220.229 252.974 220.224 252.993C220.219 253.011 220.209 253.027 220.195 253.041C220.186 253.056 220.173 253.068 220.158 253.078ZM218.701 251.522H218.64C218.449 251.59 218.449 251.67 218.449 251.695C218.449 252.014 219.341 252.598 219.961 252.795C219.818 252.301 219.516 251.869 219.101 251.566C218.977 251.503 218.835 251.487 218.701 251.522Z" fill="#4CAF4F"/>
<path d="M211.313 124.937L204.902 127.887L204.158 129.731L206.525 131.323C206.525 131.323 210.95 130.844 212.21 127.998L211.313 124.937Z" fill="#E58A7B"/>
<path d="M211.583 128.766C211.44 127.534 211.033 126.347 210.391 125.287L211.405 124.524C212.168 125.747 212.654 127.121 212.831 128.551L211.583 128.766Z" fill="#263238"/>
<path d="M212.677 125.809C212.813 126.022 212.88 126.272 212.868 126.524C212.857 126.777 212.768 127.019 212.613 127.219C212.459 127.419 212.247 127.567 212.006 127.642C211.765 127.717 211.506 127.716 211.266 127.64C211.025 127.563 210.814 127.413 210.661 127.212C210.508 127.011 210.421 126.768 210.412 126.515C210.402 126.263 210.47 126.014 210.607 125.801C210.744 125.589 210.944 125.424 211.178 125.329C211.44 125.196 211.745 125.171 212.026 125.261C212.307 125.35 212.541 125.547 212.677 125.809Z" fill="#263238"/>
<path d="M200.568 130.272L201.423 131.132L207.176 128.674L204.902 127.887L200.568 130.272Z" fill="#E58A7B"/>
<path opacity="0.2" d="M225.272 242.622C225.309 242.622 226.145 244.97 226.145 244.97L217.638 248.548L216.298 246.052L225.272 242.622Z" fill="black"/>
<path opacity="0.2" d="M242.661 245.603C242.698 245.603 242.944 247.97 242.944 247.97H233.626L232.962 245.253L242.661 245.603Z" fill="black"/>
<path d="M241.223 100.392C242.913 105.844 236.306 113.3 236.306 113.3L227.178 109.576C228.26 106.424 229.507 103.332 230.915 100.312C233.718 94.2702 239.514 94.891 241.223 100.392Z" fill="#4CAF4F"/>
<path opacity="0.2" d="M241.223 100.392C242.913 105.844 236.306 113.3 236.306 113.3L227.178 109.576C228.26 106.424 229.507 103.332 230.915 100.312C233.718 94.2702 239.514 94.891 241.223 100.392Z" fill="black"/>
<path d="M150.522 45.7661H146.594V46.3992H150.522V45.7661Z" fill="#4CAF4F"/>
<path d="M201.366 70.8241L200.891 81.3735L201.524 81.402L201.999 70.8526L201.366 70.8241Z" fill="#4CAF4F"/>
<path d="M200.145 48.606H127.613L120.864 199.644H193.395L200.145 48.606Z" fill="#4CAF4F"/>
<path opacity="0.56" d="M197.981 50.6836H125.449L118.7 201.722H191.232L197.981 50.6836Z" fill="#FAFAFA"/>
<path opacity="0.07" d="M195.817 52.7549H123.286L116.53 203.793H189.062L195.817 52.7549Z" fill="#4CAF4F"/>
<path d="M187.562 118.63H125.652L125.136 130.186H187.046L187.562 118.63Z" fill="white"/>
<path d="M159.699 110.196H126.027L125.8 115.366H159.472L159.699 110.196Z" fill="#4CAF4F"/>
<path d="M186.167 149.818H124.257L123.74 161.374H185.65L186.167 149.818Z" fill="white"/>
<path opacity="0.47" d="M174.814 176.981H133.182L132.561 190.83H174.193L174.814 176.981Z" fill="#4CAF4F"/>
<path d="M172.029 192.981H130.397C130.379 192.985 130.36 192.985 130.342 192.981C130.336 192.963 130.336 192.943 130.342 192.925L130.957 179.07C130.957 179.061 130.959 179.052 130.962 179.043C130.966 179.034 130.972 179.027 130.979 179.02C130.986 179.014 130.994 179.009 131.003 179.006C131.012 179.003 131.021 179.002 131.03 179.003H172.662C172.67 178.999 172.678 178.997 172.687 178.997C172.695 178.997 172.704 178.999 172.712 179.003C172.716 179.01 172.718 179.019 172.718 179.027C172.718 179.036 172.716 179.045 172.712 179.052L172.109 192.938C172.102 192.952 172.09 192.964 172.076 192.971C172.062 192.979 172.045 192.982 172.029 192.981ZM130.471 192.833H171.955L172.57 179.126H131.086L130.471 192.833Z" fill="white"/>
<path d="M152.427 141.385H124.632L124.404 146.56H152.194L152.427 141.385Z" fill="#4CAF4F"/>
<path d="M174.021 81.3004C173.862 84.6635 172.666 87.895 170.597 90.5512C169.066 92.5576 167.095 94.1865 164.836 95.3127C162.577 96.439 160.09 97.0327 157.566 97.0484C155.526 97.0639 153.505 96.6617 151.627 95.8665C149.748 95.0713 148.053 93.9 146.644 92.4246C145.236 90.9493 144.144 89.2012 143.437 87.2881C142.729 85.3749 142.421 83.3372 142.531 81.3004C142.747 77.0739 144.57 73.0896 147.626 70.1624C150.683 67.2351 154.742 65.5861 158.974 65.5524C161.015 65.5334 163.038 65.9331 164.919 66.7269C166.8 67.5208 168.497 68.6918 169.908 70.1677C171.318 71.6436 172.41 73.393 173.118 75.3078C173.825 77.2226 174.133 79.2621 174.021 81.3004Z" fill="white"/>
<path d="M175.502 68.847C175.462 69.7412 175.144 70.6007 174.593 71.3057C174.184 71.8386 173.66 72.2712 173.059 72.5705C172.458 72.8699 171.797 73.028 171.126 73.0329C170.475 73.0368 169.834 72.8815 169.258 72.5804C168.681 72.2793 168.187 71.8417 167.819 71.3057C167.331 70.5814 167.09 69.7192 167.13 68.847C167.19 67.7248 167.675 66.6676 168.487 65.8909C169.299 65.1142 170.377 64.6765 171.501 64.6672C172.043 64.6622 172.58 64.7683 173.08 64.9789C173.579 65.1896 174.03 65.5002 174.405 65.8918C174.78 66.2834 175.071 66.7476 175.26 67.2559C175.448 67.7641 175.531 68.3056 175.502 68.847Z" fill="#4CAF4F"/>
<path d="M132.321 124.408C132.292 124.903 132.075 125.369 131.716 125.711C131.357 126.053 130.881 126.246 130.385 126.252C130.145 126.254 129.908 126.208 129.687 126.116C129.466 126.023 129.266 125.886 129.1 125.713C128.934 125.54 128.806 125.335 128.722 125.111C128.639 124.886 128.602 124.647 128.615 124.408C128.641 123.911 128.857 123.444 129.217 123.101C129.577 122.758 130.054 122.566 130.551 122.564C130.79 122.562 131.027 122.609 131.248 122.701C131.469 122.794 131.668 122.931 131.834 123.104C131.999 123.277 132.128 123.481 132.212 123.705C132.296 123.93 132.333 124.169 132.321 124.408Z" fill="#263238"/>
<path d="M140.607 124.408C140.579 124.903 140.363 125.37 140.004 125.712C139.644 126.055 139.167 126.248 138.671 126.252C138.432 126.254 138.195 126.207 137.975 126.114C137.754 126.021 137.556 125.884 137.39 125.711C137.225 125.538 137.097 125.333 137.014 125.109C136.931 124.885 136.894 124.646 136.907 124.408C136.933 123.912 137.148 123.446 137.506 123.103C137.865 122.761 138.341 122.568 138.837 122.564C139.076 122.561 139.314 122.607 139.535 122.7C139.756 122.792 139.956 122.929 140.121 123.102C140.287 123.275 140.416 123.48 140.5 123.705C140.583 123.929 140.62 124.168 140.607 124.408Z" fill="#263238"/>
<path d="M148.899 124.408C148.871 124.903 148.655 125.37 148.296 125.712C147.936 126.055 147.459 126.248 146.963 126.252C146.723 126.254 146.486 126.207 146.266 126.114C146.045 126.021 145.846 125.884 145.68 125.711C145.514 125.539 145.386 125.334 145.302 125.11C145.218 124.886 145.181 124.647 145.193 124.408C145.221 123.912 145.436 123.445 145.796 123.103C146.156 122.76 146.632 122.567 147.129 122.564C147.368 122.561 147.606 122.607 147.827 122.7C148.048 122.792 148.247 122.929 148.413 123.102C148.579 123.275 148.708 123.48 148.792 123.705C148.875 123.929 148.912 124.168 148.899 124.408Z" fill="#263238"/>
<path d="M130.926 155.596C130.896 156.091 130.68 156.557 130.321 156.899C129.962 157.241 129.486 157.435 128.99 157.44C128.75 157.442 128.513 157.395 128.293 157.302C128.072 157.209 127.873 157.072 127.707 156.9C127.541 156.727 127.413 156.522 127.329 156.298C127.245 156.074 127.208 155.835 127.219 155.596C127.247 155.1 127.463 154.634 127.823 154.291C128.183 153.949 128.659 153.756 129.156 153.752C129.395 153.75 129.632 153.797 129.853 153.89C130.073 153.983 130.272 154.12 130.438 154.292C130.604 154.465 130.733 154.67 130.817 154.894C130.9 155.118 130.938 155.357 130.926 155.596Z" fill="#263238"/>
<path d="M139.212 155.596C139.184 156.091 138.969 156.556 138.61 156.899C138.252 157.241 137.777 157.435 137.281 157.44C137.042 157.443 136.804 157.397 136.583 157.304C136.362 157.211 136.163 157.074 135.997 156.902C135.831 156.729 135.702 156.524 135.619 156.299C135.535 156.075 135.499 155.835 135.511 155.596C135.539 155.1 135.755 154.634 136.115 154.291C136.474 153.949 136.951 153.756 137.447 153.752C137.687 153.75 137.923 153.797 138.144 153.89C138.364 153.983 138.563 154.12 138.728 154.293C138.893 154.466 139.021 154.67 139.105 154.894C139.188 155.119 139.224 155.357 139.212 155.596Z" fill="#263238"/>
<path d="M147.522 155.596C147.494 156.092 147.278 156.558 146.919 156.901C146.559 157.243 146.083 157.436 145.586 157.44C145.347 157.441 145.11 157.394 144.89 157.3C144.67 157.207 144.471 157.07 144.305 156.898C144.14 156.725 144.011 156.521 143.927 156.297C143.843 156.073 143.805 155.835 143.816 155.596C143.845 155.101 144.062 154.635 144.421 154.293C144.78 153.951 145.256 153.757 145.752 153.752C145.992 153.749 146.229 153.796 146.45 153.888C146.671 153.981 146.871 154.118 147.037 154.291C147.203 154.463 147.331 154.668 147.415 154.893C147.498 155.118 147.535 155.357 147.522 155.596Z" fill="#263238"/>
<path d="M155.796 155.596C155.766 156.091 155.55 156.557 155.191 156.899C154.831 157.241 154.356 157.435 153.859 157.44C153.62 157.441 153.384 157.394 153.163 157.3C152.943 157.207 152.744 157.07 152.579 156.898C152.413 156.725 152.285 156.521 152.2 156.297C152.116 156.073 152.078 155.835 152.089 155.596C152.119 155.101 152.335 154.635 152.694 154.293C153.054 153.951 153.529 153.757 154.025 153.752C154.265 153.75 154.502 153.797 154.722 153.89C154.943 153.983 155.142 154.12 155.308 154.292C155.474 154.465 155.603 154.67 155.686 154.894C155.77 155.118 155.807 155.357 155.796 155.596Z" fill="#263238"/>
<path d="M164.119 155.596C164.089 156.091 163.873 156.557 163.514 156.899C163.154 157.241 162.679 157.435 162.182 157.44C161.943 157.443 161.705 157.397 161.484 157.304C161.263 157.211 161.064 157.074 160.898 156.902C160.732 156.729 160.603 156.524 160.52 156.299C160.436 156.075 160.399 155.835 160.412 155.596C160.44 155.1 160.656 154.634 161.016 154.291C161.375 153.949 161.852 153.756 162.348 153.752C162.588 153.75 162.825 153.797 163.045 153.89C163.266 153.983 163.465 154.12 163.631 154.292C163.797 154.465 163.925 154.67 164.009 154.894C164.093 155.118 164.13 155.357 164.119 155.596Z" fill="#263238"/>
<path d="M162.86 80.4805C165.433 77.9646 165.57 73.9319 163.165 71.4733C160.761 69.0146 156.726 69.061 154.153 71.5769C151.581 74.0928 151.444 78.1255 153.849 80.5841C156.253 83.0428 160.288 82.9964 162.86 80.4805Z" fill="#4CAF4F"/>
<path d="M170.597 90.5512C169.066 92.5576 167.095 94.1864 164.836 95.3127C162.577 96.4389 160.09 97.0327 157.566 97.0483C155.118 97.0691 152.703 96.4873 150.534 95.3542C148.364 94.2212 146.507 92.5717 145.125 90.5512C148.112 87.5762 152.839 85.6338 158.076 85.6338C163.313 85.6338 167.874 87.5762 170.597 90.5512Z" fill="#4CAF4F"/>
<path opacity="0.1" d="M162.86 80.4805C165.433 77.9646 165.57 73.9319 163.165 71.4733C160.761 69.0146 156.726 69.061 154.153 71.5769C151.581 74.0928 151.444 78.1255 153.849 80.5841C156.253 83.0428 160.288 82.9964 162.86 80.4805Z" fill="white"/>
<path opacity="0.1" d="M170.597 90.5512C169.066 92.5576 167.095 94.1864 164.836 95.3127C162.577 96.4389 160.09 97.0327 157.566 97.0483C155.118 97.0691 152.703 96.4873 150.534 95.3542C148.364 94.2212 146.507 92.5717 145.125 90.5512C148.112 87.5762 152.839 85.6338 158.076 85.6338C163.313 85.6338 167.874 87.5762 170.597 90.5512Z" fill="white"/>
<path d="M80.1597 132.97C79.5758 134.249 78.9611 135.656 78.4264 137.021C77.8916 138.386 77.3445 139.793 76.8712 141.195C75.9049 143.957 75.1688 146.794 74.6707 149.677L74.5355 150.581C74.5226 150.736 74.5371 150.892 74.5785 151.042C74.7236 151.551 74.952 152.033 75.2546 152.468C76.044 153.593 76.9597 154.624 77.9838 155.541C79.0635 156.546 80.1961 157.491 81.3768 158.375C82.557 159.285 83.7986 160.17 85.0218 161.006L83.8724 163.163C80.9516 161.891 78.1792 160.301 75.605 158.424C74.2317 157.422 72.9922 156.249 71.917 154.933C71.2796 154.149 70.7826 153.261 70.4479 152.308C70.2533 151.713 70.1537 151.09 70.1528 150.464C70.1528 150.316 70.1528 150.101 70.1528 149.997V149.696L70.2143 149.081C70.5667 145.879 71.2401 142.72 72.2243 139.652C72.7037 138.14 73.2139 136.634 73.7979 135.165C74.3818 133.696 74.9842 132.257 75.7279 130.764L80.1597 132.97Z" fill="#E58A7B"/>
<path d="M84.155 160.624L88.5008 158.424L87.3759 163.194C87.3759 163.194 84.3947 164.03 83.0117 162.579L84.155 160.624Z" fill="#E58A7B"/>
<path d="M92.4778 159.204L91.3222 163.151L87.376 163.194L88.5008 158.424L92.4778 159.204Z" fill="#E58A7B"/>
<path d="M98.6124 109.957C98.8448 110.809 99.1684 111.633 99.5774 112.416C99.4579 112.551 99.304 112.652 99.132 112.707C98.9599 112.762 98.7761 112.77 98.6001 112.729L98.6124 109.957Z" fill="#DF5753"/>
<path d="M98.4835 109.994C98.7381 109.994 98.9445 109.677 98.9445 109.287C98.9445 108.897 98.7381 108.58 98.4835 108.58C98.2289 108.58 98.0225 108.897 98.0225 109.287C98.0225 109.677 98.2289 109.994 98.4835 109.994Z" fill="#263238"/>
<path d="M98.3481 108.605L99.2825 108.34C99.2825 108.34 98.8276 109.066 98.3481 108.605Z" fill="#263238"/>
<path d="M86.6078 114.469C87.1671 117.327 87.7265 122.57 85.7227 124.482C85.7227 124.482 86.5094 127.383 91.8264 127.383C97.6719 127.383 94.617 124.482 94.617 124.482C91.4268 123.72 91.5067 121.353 92.0661 119.128L86.6078 114.469Z" fill="#E58A7B"/>
<path d="M85.0526 107.953C85.3476 112.729 85.3722 114.757 87.7817 117.21C91.4145 120.898 97.217 119.497 98.3541 114.751C99.3807 110.449 98.7291 103.368 94.0514 101.468C93.0246 101.045 91.9069 100.891 90.804 101.021C89.7011 101.15 88.6495 101.559 87.7485 102.208C86.8476 102.857 86.1272 103.725 85.6554 104.731C85.1837 105.736 84.9762 106.845 85.0526 107.953Z" fill="#E58A7B"/>
<path d="M85.5258 102.581C83.1285 103.453 79.9322 102.802 81.1862 110.196C82.5139 118.027 80.4731 120.603 80.4731 120.603C80.4731 120.603 89.5642 122.539 98.8458 120.486C98.8458 120.486 96.0121 115.532 96.8051 111.881C97.8193 107.271 97.0202 105.568 97.0202 105.568C97.0202 105.568 88.8942 101.351 85.5258 102.581Z" fill="#263238"/>
<path d="M95.668 110.443C95.6705 111.351 95.9305 112.24 96.4179 113.006C97.0694 114.002 97.8378 113.621 98.0283 112.563C98.2004 111.635 98.0713 109.994 97.2415 109.355C96.4117 108.715 95.6803 109.342 95.668 110.443Z" fill="#E58A7B"/>
<path d="M83.4423 103.386C82.7538 101.45 86.0362 98.4686 92.982 99.698C99.9278 100.927 100.229 106.711 100.229 106.711L98.8276 105.04L98.889 106.797L91.7527 108.168L83.4423 103.386Z" fill="#263238"/>
<path d="M84.0324 124.807C83.9914 124.527 84.0616 124.241 84.2281 124.011C84.3946 123.782 84.6442 123.626 84.9237 123.578C87.0874 123.221 92.0048 122.496 94.4758 122.84C96.3198 123.099 96.7992 124.168 96.8791 125.047C96.8916 125.201 96.8711 125.356 96.8188 125.501C96.7665 125.646 96.6837 125.779 96.576 125.889C96.4682 126 96.3381 126.086 96.1942 126.142C96.0504 126.199 95.8962 126.223 95.742 126.215L85.0589 125.735C84.8071 125.723 84.5673 125.623 84.3803 125.454C84.1932 125.285 84.0704 125.057 84.0324 124.807Z" fill="#4CAF4F"/>
<path opacity="0.6" d="M84.0324 124.807C83.9914 124.527 84.0616 124.241 84.2281 124.011C84.3946 123.782 84.6442 123.626 84.9237 123.578C87.0874 123.221 92.0048 122.496 94.4758 122.84C96.3198 123.099 96.7992 124.168 96.8791 125.047C96.8916 125.201 96.8711 125.356 96.8188 125.501C96.7665 125.646 96.6837 125.779 96.576 125.889C96.4682 126 96.3381 126.086 96.1942 126.142C96.0504 126.199 95.8962 126.223 95.742 126.215L85.0589 125.735C84.8071 125.723 84.5673 125.623 84.3803 125.454C84.1932 125.285 84.0704 125.057 84.0324 124.807Z" fill="black"/>
<path d="M90.2095 232.191L94.1741 234.945L100.806 225.952L96.8418 223.205L90.2095 232.191Z" fill="#E58A7B"/>
<path d="M80.9648 232.013L85.1508 234.398L91.0209 224.889L86.835 222.504L80.9648 232.013Z" fill="#E58A7B"/>
<path d="M100.801 225.952L97.3831 230.587L93.4185 227.839L96.836 223.205L100.801 225.952Z" fill="#CF6F64"/>
<path d="M86.8289 222.504L91.021 224.895L87.9968 229.794L83.8047 227.403L86.8289 222.504Z" fill="#CF6F64"/>
<path d="M93.5536 154.828C93.5536 154.828 109.031 174.332 106.124 192.987C103.782 208.053 90.1975 228.454 90.1975 228.454L83.811 225.282C88.3126 216.262 92.1541 206.927 95.3054 197.351C96.2772 194.378 96.5608 191.223 96.1349 188.125C95.709 185.026 94.5846 182.065 92.8467 179.464C85.0035 168.013 72.4395 174.83 80.8913 154.828H93.5536Z" fill="#4CAF4F"/>
<path opacity="0.6" d="M93.5536 154.828C93.5536 154.828 109.031 174.332 106.124 192.987C103.782 208.053 90.1975 228.454 90.1975 228.454L83.811 225.282C88.3126 216.262 92.1541 206.927 95.3054 197.351C96.2772 194.378 96.5608 191.223 96.1349 188.125C95.709 185.026 94.5846 182.065 92.8467 179.464C85.0035 168.013 72.4395 174.83 80.8913 154.828H93.5536Z" fill="black"/>
<path opacity="0.4" d="M101.145 167.355L98.895 165.118C98.895 165.296 103.253 192.2 104.476 199.761C105.198 197.552 105.751 195.292 106.13 192.999C107.568 183.847 104.562 174.498 101.145 167.355Z" fill="black"/>
<path d="M100.462 154.828C100.462 154.828 119.099 179.341 119.628 194.038C120.064 206.332 99.3435 230.15 99.3435 230.15L93.3197 226.253C93.3197 226.253 105.447 209.338 108.502 195.52C107.322 181.825 82.3662 154.828 82.3662 154.828H100.462Z" fill="#4CAF4F"/>
<path opacity="0.6" d="M100.462 154.828C100.462 154.828 119.099 179.341 119.628 194.038C120.064 206.332 99.3435 230.15 99.3435 230.15L93.3197 226.253C93.3197 226.253 105.447 209.338 108.502 195.52C107.322 181.825 82.3662 154.828 82.3662 154.828H100.462Z" fill="black"/>
<path d="M77.4061 125.576C75.4146 126.049 73.5029 133.29 73.5029 133.29L81.2909 138.49C81.2909 138.49 83.8848 132.761 82.9751 130.253C82.0346 127.641 79.9078 124.98 77.4061 125.576Z" fill="#4CAF4F"/>
<path opacity="0.2" d="M78.9306 130.241L78.3896 136.554L81.2848 138.496C82.0842 136.697 82.676 134.812 83.0489 132.878L78.9306 130.241Z" fill="black"/>
<path d="M102.768 125.717C102.768 125.717 105.067 126.522 100.463 154.822H80.8792C81.2111 146.831 81.2172 141.914 77.4062 125.576C80.1484 125.011 82.9278 124.645 85.7228 124.482C88.6838 124.269 91.6562 124.269 94.6171 124.482C98.4404 124.832 102.768 125.717 102.768 125.717Z" fill="#4CAF4F"/>
<path d="M104.759 130.241C105.201 131.471 105.669 132.792 106.16 134.065C106.652 135.337 107.119 136.646 107.617 137.937L109.123 141.797L109.504 142.762L109.701 143.242L109.793 143.481C109.793 143.524 109.793 143.524 109.793 143.518C109.681 143.36 109.533 143.23 109.363 143.137C109.12 142.994 108.845 142.912 108.564 142.897C108.33 142.89 108.097 142.934 107.881 143.027C107.599 143.156 107.599 143.211 107.605 143.205C107.656 143.164 107.701 143.116 107.74 143.063C108.08 142.617 108.375 142.137 108.619 141.631C108.908 141.066 109.185 140.463 109.461 139.855C110.002 138.625 110.5 137.353 110.998 136.068C111.496 134.784 111.969 133.487 112.43 132.177L113.831 128.256L116.198 128.871C115.731 131.673 115.128 134.403 114.403 137.181C114.053 138.564 113.641 139.935 113.174 141.318C112.94 142.012 112.682 142.701 112.387 143.408C112.079 144.175 111.701 144.912 111.256 145.608C111.092 145.843 110.912 146.065 110.715 146.272C110.401 146.611 110.02 146.881 109.596 147.065C109.22 147.226 108.813 147.302 108.404 147.286C107.946 147.269 107.499 147.136 107.107 146.899C106.644 146.61 106.259 146.211 105.988 145.737C105.896 145.577 105.816 145.418 105.761 145.301L105.644 145.067L105.41 144.588L104.943 143.635C104.329 142.356 103.714 141.066 103.179 139.769C102.644 138.472 102.079 137.156 101.55 135.835C101.022 134.513 100.548 133.192 100.1 131.766L104.759 130.241Z" fill="#E58A7B"/>
<path d="M102.767 125.717C105.122 126.277 107.771 133.235 107.771 133.235L100.77 139.191C100.77 139.191 96.2396 131.606 97.1555 129.104C98.1082 126.498 99.6941 124.986 102.767 125.717Z" fill="#4CAF4F"/>
<path d="M114.944 126.055L117.403 124.002L119.112 126.664L117.852 128.883C117.852 128.883 115.848 130.727 114.078 129.787C113.797 129.155 113.729 128.449 113.886 127.776C114.042 127.102 114.414 126.498 114.944 126.055Z" fill="#E58A7B"/>
<path d="M121.841 124.009L121.656 124.679L117.765 125.33L117.384 124.002L121.841 124.009Z" fill="#E58A7B"/>
<path d="M99.8233 230.464L92.8037 225.928L94.0638 223.739L101.95 228.589L99.8233 230.464Z" fill="#4CAF4F"/>
<path d="M87.8985 234.078C87.2826 234.003 86.6908 233.793 86.1651 233.464C86.1434 233.456 86.1246 233.442 86.1113 233.423C86.098 233.405 86.0908 233.382 86.0908 233.359C86.0908 233.336 86.098 233.314 86.1113 233.295C86.1246 233.276 86.1434 233.262 86.1651 233.255C86.3556 233.193 88.0091 232.683 88.4886 233.076C88.5425 233.121 88.5834 233.18 88.6072 233.245C88.631 233.311 88.6367 233.382 88.6238 233.451C88.6153 233.562 88.5786 233.669 88.5173 233.761C88.456 233.854 88.372 233.929 88.2734 233.98C88.1583 234.043 88.0296 234.077 87.8985 234.078ZM86.5155 233.402C87.2838 233.796 87.8985 233.937 88.1935 233.789C88.2578 233.754 88.3118 233.702 88.3506 233.64C88.3893 233.578 88.4114 233.506 88.4148 233.433C88.4148 233.335 88.4148 233.292 88.3595 233.267C88.1013 233.058 87.1793 233.218 86.5032 233.402H86.5155Z" fill="#263238"/>
<path d="M86.2084 233.507C86.176 233.506 86.145 233.493 86.1223 233.47C86.1132 233.453 86.1084 233.434 86.1084 233.414C86.1084 233.395 86.1132 233.376 86.1223 233.359C86.1223 233.304 86.5219 231.97 87.1488 231.669C87.2289 231.632 87.3159 231.613 87.4039 231.613C87.492 231.613 87.5789 231.632 87.659 231.669C87.7453 231.696 87.8201 231.751 87.8713 231.826C87.9225 231.901 87.9474 231.99 87.9418 232.081C87.8988 232.634 86.7739 233.396 86.2576 233.525L86.2084 233.507ZM87.4009 231.829C87.3411 231.83 87.2824 231.845 87.2288 231.872C86.8477 232.056 86.5342 232.775 86.3805 233.212C86.9214 232.984 87.6652 232.382 87.6898 232.044C87.6898 231.988 87.6898 231.921 87.5484 231.859C87.5024 231.835 87.4525 231.818 87.4009 231.81V231.829Z" fill="#263238"/>
<path d="M96.67 236.734C95.9754 236.734 95.0103 235.842 94.4817 235.295C94.4682 235.276 94.4609 235.254 94.4609 235.231C94.4609 235.208 94.4682 235.185 94.4817 235.166C94.4938 235.146 94.5111 235.13 94.5317 235.119C94.5522 235.109 94.5753 235.103 94.5985 235.105C94.8444 235.105 96.9773 235.424 97.2785 236.027C97.3104 236.081 97.3272 236.142 97.3272 236.205C97.3272 236.268 97.3104 236.329 97.2785 236.383C97.2333 236.477 97.1651 236.558 97.0801 236.618C96.9952 236.678 96.8964 236.716 96.7929 236.727L96.67 236.734ZM94.8874 235.381C95.6619 236.131 96.3442 236.549 96.7314 236.5C96.7992 236.491 96.8638 236.466 96.9196 236.426C96.9753 236.386 97.0204 236.334 97.051 236.273C97.0648 236.252 97.0721 236.227 97.0721 236.202C97.0721 236.177 97.0648 236.152 97.051 236.131C96.8912 235.799 95.7541 235.516 94.8874 235.381Z" fill="#263238"/>
<path d="M94.9552 235.351C94.8172 235.355 94.6792 235.344 94.5434 235.32C94.5244 235.317 94.5065 235.309 94.4914 235.298C94.4763 235.286 94.4646 235.27 94.4573 235.252C94.4481 235.234 94.4434 235.214 94.4434 235.194C94.4434 235.174 94.4481 235.154 94.4573 235.136C94.4942 235.093 95.324 234.091 96.1108 234.023C96.3335 234.006 96.5542 234.076 96.7255 234.22C96.9652 234.429 96.9529 234.613 96.8914 234.73C96.7378 235.148 95.6744 235.351 94.9552 235.351ZM94.7954 235.123C95.4838 235.16 96.5841 234.933 96.7255 234.632C96.7255 234.632 96.7746 234.533 96.6148 234.398C96.5512 234.343 96.477 234.301 96.3966 234.276C96.3162 234.25 96.2315 234.242 96.1477 234.251C95.6177 234.398 95.1457 234.705 94.7954 235.13V235.123Z" fill="#263238"/>
<path d="M86.374 232.843L81.1616 231.367C81.0717 231.34 80.975 231.347 80.8899 231.387C80.8048 231.427 80.7374 231.496 80.7006 231.583L78.9426 235.535C78.9013 235.636 78.8819 235.745 78.8857 235.854C78.8895 235.963 78.9164 236.071 78.9646 236.169C79.0128 236.267 79.0812 236.354 79.1653 236.424C79.2495 236.493 79.3474 236.545 79.4528 236.574C81.2968 237.053 82.1819 237.188 84.4747 237.846C85.8884 238.24 87.9046 238.971 89.8531 239.524C91.8016 240.077 92.4532 238.178 91.6971 237.772C88.2795 235.965 88.0091 234.699 87.0748 233.347C86.9074 233.102 86.6594 232.923 86.374 232.843Z" fill="#4CAF4F"/>
<path d="M94.6232 234.576L90.173 231.503C90.0975 231.448 90.0045 231.422 89.9116 231.431C89.8187 231.441 89.7324 231.483 89.669 231.552L86.7185 234.724C86.6466 234.806 86.593 234.902 86.5612 235.006C86.5294 235.111 86.5202 235.22 86.5341 235.329C86.5481 235.437 86.5849 235.541 86.6421 235.634C86.6994 235.726 86.7757 235.806 86.8661 235.867C88.4335 236.918 89.2448 237.342 91.2057 238.701C92.435 239.537 94.8138 241.393 96.4734 242.548C98.133 243.704 99.3685 242.118 98.7784 241.491C96.1353 238.67 95.5576 236.9 95.1211 235.295C95.0454 235.004 94.869 234.749 94.6232 234.576Z" fill="#4CAF4F"/>
<path d="M91.0152 228.86L82.9937 224.87L83.8235 222.694L92.392 226.899L91.0152 228.86Z" fill="#4CAF4F"/>
<path d="M80.5839 153.673L79.9077 155.443C79.8401 155.578 79.9999 155.72 80.2274 155.72H100.561C100.739 155.72 100.887 155.634 100.899 155.523L101.071 153.765C101.071 153.648 100.93 153.544 100.739 153.544H80.9035C80.8438 153.538 80.7836 153.547 80.728 153.569C80.6724 153.592 80.623 153.627 80.5839 153.673Z" fill="#4CAF4F"/>
<path opacity="0.4" d="M80.5839 153.673L79.9077 155.443C79.8401 155.578 79.9999 155.72 80.2274 155.72H100.561C100.739 155.72 100.887 155.634 100.899 155.523L101.071 153.765C101.071 153.648 100.93 153.544 100.739 153.544H80.9035C80.8438 153.538 80.7836 153.547 80.728 153.569C80.6724 153.592 80.623 153.627 80.5839 153.673Z" fill="white"/>
<path d="M83.7861 155.892H83.2513C83.1469 155.892 83.0669 155.836 83.0731 155.769L83.3251 153.488C83.3251 153.427 83.4235 153.372 83.5279 153.372H84.0627C84.1672 153.372 84.2471 153.427 84.241 153.488L83.989 155.769C83.9828 155.836 83.8906 155.892 83.7861 155.892Z" fill="#4CAF4F"/>
<path d="M96.3259 155.892H95.7972C95.6928 155.892 95.6128 155.836 95.619 155.769L95.8649 153.488C95.8649 153.427 95.9694 153.372 96.0738 153.372H96.6025C96.707 153.372 96.793 153.427 96.7807 153.488L96.5349 155.769C96.5041 155.836 96.4365 155.892 96.3259 155.892Z" fill="#4CAF4F"/>
<path d="M83.3192 259.987C92.4138 259.987 99.7863 259.453 99.7863 258.795C99.7863 258.136 92.4138 257.602 83.3192 257.602C74.2246 257.602 66.8521 258.136 66.8521 258.795C66.8521 259.453 74.2246 259.987 83.3192 259.987Z" fill="#F5F5F5"/>
<path d="M93.3505 257.11C90.4369 256.262 87.2037 255.174 85.249 254.037C85.1937 254 85.1323 253.982 85.0769 253.951V240.76H90.9717C91.4191 240.733 91.8396 240.537 92.147 240.211C92.4545 239.885 92.6257 239.453 92.6257 239.005C92.6257 238.557 92.4545 238.125 92.147 237.799C91.8396 237.473 91.4191 237.277 90.9717 237.25H85.1077V177.123H81.5671V237.25H75.7093C75.4701 237.236 75.2305 237.271 75.0053 237.353C74.7801 237.434 74.574 237.561 74.3996 237.726C74.2252 237.89 74.0863 238.088 73.9913 238.308C73.8964 238.528 73.8474 238.765 73.8474 239.005C73.8474 239.245 73.8964 239.482 73.9913 239.702C74.0863 239.922 74.2252 240.12 74.3996 240.284C74.574 240.449 74.7801 240.576 75.0053 240.657C75.2305 240.739 75.4701 240.774 75.7093 240.76H81.5671V253.932C81.5118 253.932 81.4565 253.982 81.4012 254.018C79.4158 255.174 76.2072 256.262 73.2936 257.092C73.0968 257.151 72.9278 257.279 72.8172 257.453C72.7066 257.626 72.6617 257.833 72.6907 258.037C72.7197 258.24 72.8206 258.427 72.9752 258.562C73.1297 258.698 73.3277 258.774 73.5333 258.776H93.1107C93.3072 258.763 93.4932 258.682 93.6375 258.548C93.7819 258.414 93.8759 258.235 93.904 258.04C93.9321 257.845 93.8924 257.646 93.7917 257.477C93.6909 257.308 93.5352 257.178 93.3505 257.11Z" fill="#E0E0E0"/>
<path d="M94.2543 171H72.3964C70.6379 171 69.2124 172.426 69.2124 174.185V180.682C69.2124 182.44 70.6379 183.866 72.3964 183.866H94.2543C96.0127 183.866 97.4383 182.44 97.4383 180.682V174.185C97.4383 172.426 96.0127 171 94.2543 171Z" fill="#4CAF4F"/>
<path d="M72.1934 183.872V184.99C72.1934 185.912 73.1953 186.662 74.4246 186.662H92.2502C93.4796 186.662 94.4815 185.912 94.4815 184.99V183.872H72.1934Z" fill="#4CAF4F"/>
<path opacity="0.3" d="M72.1934 183.872V184.99C72.1934 185.912 73.1953 186.662 74.4246 186.662H92.2502C93.4796 186.662 94.4815 185.912 94.4815 184.99V183.872H72.1934Z" fill="white"/>
</svg>
